G04 #@! TF.FileFunction,Profile,NP*
%FSLAX46Y46*%
G04 Gerber Fmt 4.6, Leading zero omitted, Abs format (unit mm)*
G04 Created by KiCad (PCBNEW 4.0.5+dfsg1-4) date Sat Jul 14 15:59:12 2018*
%MOMM*%
%LPD*%
G01*
G04 APERTURE LIST*
%ADD10C,0.100000*%
%ADD11C,0.150000*%
G04 APERTURE END LIST*
D10*
D11*
X88900000Y-38100000D02*
X86360000Y-38100000D01*
X88900000Y-35560000D02*
X88900000Y-38100000D01*
X86360000Y-35560000D02*
X88900000Y-35560000D01*
X86360000Y-27940000D02*
X86360000Y-35560000D01*
X88900000Y-27940000D02*
X86360000Y-27940000D01*
X88900000Y-25400000D02*
X88900000Y-27940000D01*
X86360000Y-25400000D02*
X88900000Y-25400000D01*
X12700000Y-38100000D02*
X15240000Y-38100000D01*
X12700000Y-35560000D02*
X12700000Y-38100000D01*
X15240000Y-35560000D02*
X12700000Y-35560000D01*
X15240000Y-27940000D02*
X15240000Y-35560000D01*
X12700000Y-27940000D02*
X15240000Y-27940000D01*
X12700000Y-25400000D02*
X12700000Y-27940000D01*
X15240000Y-25400000D02*
X12700000Y-25400000D01*
X15240000Y-38100000D02*
X19050000Y-38100000D01*
X19050000Y-25400000D02*
X15240000Y-25400000D01*
X86360000Y-38100000D02*
X82550000Y-38100000D01*
X82550000Y-25400000D02*
X86360000Y-25400000D01*
X19050000Y-38100000D02*
X19050000Y-34925000D01*
X19050000Y-28575000D02*
X19050000Y-25400000D01*
X25400000Y-38100000D02*
X25400000Y-34925000D01*
X25400000Y-28575000D02*
X25400000Y-25400000D01*
X25400000Y-28575000D02*
X19050000Y-28575000D01*
X25400000Y-34925000D02*
X19050000Y-34925000D01*
X82550000Y-25400000D02*
X82550000Y-28575000D01*
X82550000Y-34925000D02*
X82550000Y-38100000D01*
X76200000Y-34925000D02*
X76200000Y-38100000D01*
X76200000Y-25400000D02*
X76200000Y-28575000D01*
X76200000Y-34925000D02*
X82550000Y-34925000D01*
X76200000Y-28575000D02*
X82550000Y-28575000D01*
X76200000Y-25400000D02*
X25400000Y-25400000D01*
X25400000Y-38100000D02*
X76200000Y-38100000D01*
M02*
