G04 #@! TF.FileFunction,Legend,Top*
%FSLAX46Y46*%
G04 Gerber Fmt 4.6, Leading zero omitted, Abs format (unit mm)*
G04 Created by KiCad (PCBNEW 4.0.5+dfsg1-4) date Sun Jul 15 17:14:37 2018*
%MOMM*%
%LPD*%
G01*
G04 APERTURE LIST*
%ADD10C,0.100000*%
%ADD11C,0.127000*%
%ADD12C,0.150000*%
%ADD13C,0.010000*%
G04 APERTURE END LIST*
D10*
D11*
X162560000Y-98425000D02*
X156210000Y-98425000D01*
X165100000Y-98425000D02*
X163830000Y-98425000D01*
X143510000Y-104775000D02*
X140970000Y-104775000D01*
X162560000Y-104775000D02*
X155575000Y-104775000D01*
X155575000Y-97790000D02*
X154940000Y-97790000D01*
X114935000Y-98425000D02*
X118110000Y-98425000D01*
X125730000Y-98425000D02*
X124460000Y-98425000D01*
X138430000Y-98425000D02*
X132080000Y-98425000D01*
X143510000Y-98425000D02*
X140970000Y-98425000D01*
X163830000Y-104775000D02*
X165100000Y-104775000D01*
X118110000Y-104775000D02*
X114300000Y-104775000D01*
X125730000Y-104775000D02*
X124460000Y-104775000D01*
X138430000Y-104775000D02*
X132080000Y-104775000D01*
D12*
X131630000Y-103900000D02*
X131630000Y-99300000D01*
X126180000Y-99300000D02*
X126180000Y-103900000D01*
X149395000Y-102905000D02*
X149395000Y-102855000D01*
X145245000Y-102905000D02*
X145245000Y-102760000D01*
X145245000Y-97755000D02*
X145245000Y-97900000D01*
X149395000Y-97755000D02*
X149395000Y-97900000D01*
X149395000Y-102905000D02*
X145245000Y-102905000D01*
X149395000Y-97755000D02*
X145245000Y-97755000D01*
X149395000Y-102855000D02*
X150795000Y-102855000D01*
X146820000Y-104990000D02*
X147820000Y-104990000D01*
X147820000Y-103290000D02*
X146820000Y-103290000D01*
X118560000Y-99300000D02*
X118560000Y-103900000D01*
X124010000Y-103900000D02*
X124010000Y-99300000D01*
X135520000Y-103870000D02*
X135520000Y-100870000D01*
X133720000Y-103870000D02*
X133720000Y-100870000D01*
X155035000Y-103240000D02*
X152035000Y-103240000D01*
X155035000Y-105040000D02*
X152035000Y-105040000D01*
X135290000Y-96280000D02*
X136490000Y-96280000D01*
X136490000Y-98030000D02*
X135290000Y-98030000D01*
X121955000Y-105805000D02*
X123155000Y-105805000D01*
X123155000Y-107555000D02*
X121955000Y-107555000D01*
X154905000Y-101205000D02*
X153705000Y-101205000D01*
X153705000Y-99455000D02*
X154905000Y-99455000D01*
X153705000Y-97550000D02*
X154905000Y-97550000D01*
X154905000Y-99300000D02*
X153705000Y-99300000D01*
D13*
G36*
X148596805Y-105912514D02*
X148686292Y-105965808D01*
X148754292Y-106045554D01*
X148790184Y-106146800D01*
X148793200Y-106188119D01*
X148769548Y-106309072D01*
X148705590Y-106420487D01*
X148611817Y-106512675D01*
X148498722Y-106575949D01*
X148376798Y-106600619D01*
X148347424Y-106599723D01*
X148232482Y-106590581D01*
X148239791Y-106781340D01*
X148244763Y-106879022D01*
X148252785Y-106936994D01*
X148267451Y-106966344D01*
X148292354Y-106978158D01*
X148304250Y-106980216D01*
X148348912Y-106995490D01*
X148361400Y-107011966D01*
X148338077Y-107023262D01*
X148276385Y-107031619D01*
X148188732Y-107035496D01*
X148170900Y-107035600D01*
X148079841Y-107033227D01*
X148012481Y-107026951D01*
X147981232Y-107018035D01*
X147980400Y-107016223D01*
X148000829Y-106992441D01*
X148037550Y-106971773D01*
X148057622Y-106961441D01*
X148072341Y-106945857D01*
X148082537Y-106917832D01*
X148089040Y-106870177D01*
X148092679Y-106795702D01*
X148094286Y-106687219D01*
X148094689Y-106537538D01*
X148094700Y-106476800D01*
X148094548Y-106311809D01*
X148094167Y-106265890D01*
X148234400Y-106265890D01*
X148236892Y-106371444D01*
X148245898Y-106438055D01*
X148263712Y-106477407D01*
X148278850Y-106492242D01*
X148349020Y-106519911D01*
X148439361Y-106524493D01*
X148524924Y-106506241D01*
X148557004Y-106489421D01*
X148619809Y-106416980D01*
X148652695Y-106318829D01*
X148654626Y-106211050D01*
X148624563Y-106109725D01*
X148585181Y-106052571D01*
X148511135Y-106007252D01*
X148417377Y-105994264D01*
X148324424Y-106014921D01*
X148290851Y-106033740D01*
X148261631Y-106059967D01*
X148244595Y-106096381D01*
X148236578Y-106155999D01*
X148234416Y-106251837D01*
X148234400Y-106265890D01*
X148094167Y-106265890D01*
X148093542Y-106190682D01*
X148090852Y-106106479D01*
X148085647Y-106052265D01*
X148077100Y-106021102D01*
X148064379Y-106006052D01*
X148046657Y-106000178D01*
X148037550Y-105998783D01*
X147988858Y-105984265D01*
X147988104Y-105963434D01*
X148033254Y-105939126D01*
X148093247Y-105921015D01*
X148172953Y-105901476D01*
X148215095Y-105896709D01*
X148231609Y-105910083D01*
X148234436Y-105944967D01*
X148234400Y-105960852D01*
X148234400Y-106029104D01*
X148305639Y-105960852D01*
X148395857Y-105905085D01*
X148496452Y-105890623D01*
X148596805Y-105912514D01*
X148596805Y-105912514D01*
G37*
X148596805Y-105912514D02*
X148686292Y-105965808D01*
X148754292Y-106045554D01*
X148790184Y-106146800D01*
X148793200Y-106188119D01*
X148769548Y-106309072D01*
X148705590Y-106420487D01*
X148611817Y-106512675D01*
X148498722Y-106575949D01*
X148376798Y-106600619D01*
X148347424Y-106599723D01*
X148232482Y-106590581D01*
X148239791Y-106781340D01*
X148244763Y-106879022D01*
X148252785Y-106936994D01*
X148267451Y-106966344D01*
X148292354Y-106978158D01*
X148304250Y-106980216D01*
X148348912Y-106995490D01*
X148361400Y-107011966D01*
X148338077Y-107023262D01*
X148276385Y-107031619D01*
X148188732Y-107035496D01*
X148170900Y-107035600D01*
X148079841Y-107033227D01*
X148012481Y-107026951D01*
X147981232Y-107018035D01*
X147980400Y-107016223D01*
X148000829Y-106992441D01*
X148037550Y-106971773D01*
X148057622Y-106961441D01*
X148072341Y-106945857D01*
X148082537Y-106917832D01*
X148089040Y-106870177D01*
X148092679Y-106795702D01*
X148094286Y-106687219D01*
X148094689Y-106537538D01*
X148094700Y-106476800D01*
X148094548Y-106311809D01*
X148094167Y-106265890D01*
X148234400Y-106265890D01*
X148236892Y-106371444D01*
X148245898Y-106438055D01*
X148263712Y-106477407D01*
X148278850Y-106492242D01*
X148349020Y-106519911D01*
X148439361Y-106524493D01*
X148524924Y-106506241D01*
X148557004Y-106489421D01*
X148619809Y-106416980D01*
X148652695Y-106318829D01*
X148654626Y-106211050D01*
X148624563Y-106109725D01*
X148585181Y-106052571D01*
X148511135Y-106007252D01*
X148417377Y-105994264D01*
X148324424Y-106014921D01*
X148290851Y-106033740D01*
X148261631Y-106059967D01*
X148244595Y-106096381D01*
X148236578Y-106155999D01*
X148234416Y-106251837D01*
X148234400Y-106265890D01*
X148094167Y-106265890D01*
X148093542Y-106190682D01*
X148090852Y-106106479D01*
X148085647Y-106052265D01*
X148077100Y-106021102D01*
X148064379Y-106006052D01*
X148046657Y-106000178D01*
X148037550Y-105998783D01*
X147988858Y-105984265D01*
X147988104Y-105963434D01*
X148033254Y-105939126D01*
X148093247Y-105921015D01*
X148172953Y-105901476D01*
X148215095Y-105896709D01*
X148231609Y-105910083D01*
X148234436Y-105944967D01*
X148234400Y-105960852D01*
X148234400Y-106029104D01*
X148305639Y-105960852D01*
X148395857Y-105905085D01*
X148496452Y-105890623D01*
X148596805Y-105912514D01*
G36*
X146875682Y-105521845D02*
X146965990Y-105539893D01*
X147042279Y-105563814D01*
X147091043Y-105589633D01*
X147101559Y-105606850D01*
X147098789Y-105652689D01*
X147095474Y-105721395D01*
X147095209Y-105727500D01*
X147084384Y-105790610D01*
X147065297Y-105814837D01*
X147047533Y-105797442D01*
X147040600Y-105743094D01*
X147029835Y-105686696D01*
X146988717Y-105647058D01*
X146954211Y-105628794D01*
X146819400Y-105589838D01*
X146681358Y-105593336D01*
X146551923Y-105635841D01*
X146442937Y-105713902D01*
X146380512Y-105795873D01*
X146349736Y-105860388D01*
X146334222Y-105926132D01*
X146330852Y-106011978D01*
X146333360Y-106080989D01*
X146341960Y-106187565D01*
X146358267Y-106261711D01*
X146387573Y-106321736D01*
X146413555Y-106358536D01*
X146477062Y-106427376D01*
X146547685Y-106484067D01*
X146565663Y-106494812D01*
X146662174Y-106526071D01*
X146783619Y-106537996D01*
X146907971Y-106530618D01*
X147013198Y-106503969D01*
X147034250Y-106494133D01*
X147093225Y-106470778D01*
X147115977Y-106478949D01*
X147098567Y-106514724D01*
X147077842Y-106537528D01*
X147007561Y-106580084D01*
X146903732Y-106610109D01*
X146782531Y-106625489D01*
X146660131Y-106624111D01*
X146557835Y-106605467D01*
X146400165Y-106534081D01*
X146278959Y-106430020D01*
X146197203Y-106298818D01*
X146157882Y-106146008D01*
X146163983Y-105977122D01*
X146180065Y-105905383D01*
X146238002Y-105785545D01*
X146335603Y-105679547D01*
X146462209Y-105594296D01*
X146607160Y-105536695D01*
X146759795Y-105513649D01*
X146784860Y-105513644D01*
X146875682Y-105521845D01*
X146875682Y-105521845D01*
G37*
X146875682Y-105521845D02*
X146965990Y-105539893D01*
X147042279Y-105563814D01*
X147091043Y-105589633D01*
X147101559Y-105606850D01*
X147098789Y-105652689D01*
X147095474Y-105721395D01*
X147095209Y-105727500D01*
X147084384Y-105790610D01*
X147065297Y-105814837D01*
X147047533Y-105797442D01*
X147040600Y-105743094D01*
X147029835Y-105686696D01*
X146988717Y-105647058D01*
X146954211Y-105628794D01*
X146819400Y-105589838D01*
X146681358Y-105593336D01*
X146551923Y-105635841D01*
X146442937Y-105713902D01*
X146380512Y-105795873D01*
X146349736Y-105860388D01*
X146334222Y-105926132D01*
X146330852Y-106011978D01*
X146333360Y-106080989D01*
X146341960Y-106187565D01*
X146358267Y-106261711D01*
X146387573Y-106321736D01*
X146413555Y-106358536D01*
X146477062Y-106427376D01*
X146547685Y-106484067D01*
X146565663Y-106494812D01*
X146662174Y-106526071D01*
X146783619Y-106537996D01*
X146907971Y-106530618D01*
X147013198Y-106503969D01*
X147034250Y-106494133D01*
X147093225Y-106470778D01*
X147115977Y-106478949D01*
X147098567Y-106514724D01*
X147077842Y-106537528D01*
X147007561Y-106580084D01*
X146903732Y-106610109D01*
X146782531Y-106625489D01*
X146660131Y-106624111D01*
X146557835Y-106605467D01*
X146400165Y-106534081D01*
X146278959Y-106430020D01*
X146197203Y-106298818D01*
X146157882Y-106146008D01*
X146163983Y-105977122D01*
X146180065Y-105905383D01*
X146238002Y-105785545D01*
X146335603Y-105679547D01*
X146462209Y-105594296D01*
X146607160Y-105536695D01*
X146759795Y-105513649D01*
X146784860Y-105513644D01*
X146875682Y-105521845D01*
G36*
X147664215Y-105899078D02*
X147716844Y-105924361D01*
X147749956Y-105959525D01*
X147774778Y-105997892D01*
X147790446Y-106044605D01*
X147798947Y-106111724D01*
X147802264Y-106211308D01*
X147802600Y-106279403D01*
X147803429Y-106395415D01*
X147807155Y-106470352D01*
X147815630Y-106513928D01*
X147830707Y-106535859D01*
X147853400Y-106545640D01*
X147898882Y-106565260D01*
X147898682Y-106584504D01*
X147857747Y-106598839D01*
X147789900Y-106603800D01*
X147718471Y-106600476D01*
X147684695Y-106586674D01*
X147675643Y-106556649D01*
X147675600Y-106553000D01*
X147672272Y-106516235D01*
X147655855Y-106506434D01*
X147616697Y-106524607D01*
X147554056Y-106565700D01*
X147485780Y-106608623D01*
X147437486Y-106624394D01*
X147388899Y-106616846D01*
X147353410Y-106603622D01*
X147285660Y-106551246D01*
X147252833Y-106468510D01*
X147255184Y-106386073D01*
X147379992Y-106386073D01*
X147383607Y-106424909D01*
X147406564Y-106464100D01*
X147461181Y-106516510D01*
X147526711Y-106520729D01*
X147606163Y-106476917D01*
X147608674Y-106474956D01*
X147656872Y-106422162D01*
X147674631Y-106353123D01*
X147675600Y-106322556D01*
X147671011Y-106256567D01*
X147652947Y-106227807D01*
X147626453Y-106222800D01*
X147522489Y-106244404D01*
X147435081Y-106302070D01*
X147407307Y-106335966D01*
X147379992Y-106386073D01*
X147255184Y-106386073D01*
X147255188Y-106385955D01*
X147282988Y-106311536D01*
X147339408Y-106256878D01*
X147432489Y-106216292D01*
X147529199Y-106192074D01*
X147612978Y-106171918D01*
X147657571Y-106151362D01*
X147674225Y-106123899D01*
X147675600Y-106107354D01*
X147654677Y-106037067D01*
X147601252Y-105990384D01*
X147529342Y-105970497D01*
X147452961Y-105980594D01*
X147386125Y-106023865D01*
X147373723Y-106038650D01*
X147321609Y-106108500D01*
X147320804Y-106039302D01*
X147343302Y-105973345D01*
X147408091Y-105924806D01*
X147508548Y-105897381D01*
X147583595Y-105892600D01*
X147664215Y-105899078D01*
X147664215Y-105899078D01*
G37*
X147664215Y-105899078D02*
X147716844Y-105924361D01*
X147749956Y-105959525D01*
X147774778Y-105997892D01*
X147790446Y-106044605D01*
X147798947Y-106111724D01*
X147802264Y-106211308D01*
X147802600Y-106279403D01*
X147803429Y-106395415D01*
X147807155Y-106470352D01*
X147815630Y-106513928D01*
X147830707Y-106535859D01*
X147853400Y-106545640D01*
X147898882Y-106565260D01*
X147898682Y-106584504D01*
X147857747Y-106598839D01*
X147789900Y-106603800D01*
X147718471Y-106600476D01*
X147684695Y-106586674D01*
X147675643Y-106556649D01*
X147675600Y-106553000D01*
X147672272Y-106516235D01*
X147655855Y-106506434D01*
X147616697Y-106524607D01*
X147554056Y-106565700D01*
X147485780Y-106608623D01*
X147437486Y-106624394D01*
X147388899Y-106616846D01*
X147353410Y-106603622D01*
X147285660Y-106551246D01*
X147252833Y-106468510D01*
X147255184Y-106386073D01*
X147379992Y-106386073D01*
X147383607Y-106424909D01*
X147406564Y-106464100D01*
X147461181Y-106516510D01*
X147526711Y-106520729D01*
X147606163Y-106476917D01*
X147608674Y-106474956D01*
X147656872Y-106422162D01*
X147674631Y-106353123D01*
X147675600Y-106322556D01*
X147671011Y-106256567D01*
X147652947Y-106227807D01*
X147626453Y-106222800D01*
X147522489Y-106244404D01*
X147435081Y-106302070D01*
X147407307Y-106335966D01*
X147379992Y-106386073D01*
X147255184Y-106386073D01*
X147255188Y-106385955D01*
X147282988Y-106311536D01*
X147339408Y-106256878D01*
X147432489Y-106216292D01*
X147529199Y-106192074D01*
X147612978Y-106171918D01*
X147657571Y-106151362D01*
X147674225Y-106123899D01*
X147675600Y-106107354D01*
X147654677Y-106037067D01*
X147601252Y-105990384D01*
X147529342Y-105970497D01*
X147452961Y-105980594D01*
X147386125Y-106023865D01*
X147373723Y-106038650D01*
X147321609Y-106108500D01*
X147320804Y-106039302D01*
X147343302Y-105973345D01*
X147408091Y-105924806D01*
X147508548Y-105897381D01*
X147583595Y-105892600D01*
X147664215Y-105899078D01*
G36*
X149341408Y-105899821D02*
X149402591Y-105924243D01*
X149442979Y-105973201D01*
X149466513Y-106053644D01*
X149477134Y-106172521D01*
X149479000Y-106287008D01*
X149479880Y-106400994D01*
X149483815Y-106474066D01*
X149492744Y-106516097D01*
X149508605Y-106536960D01*
X149529800Y-106545640D01*
X149575282Y-106565260D01*
X149575082Y-106584504D01*
X149534147Y-106598839D01*
X149466300Y-106603800D01*
X149394871Y-106600476D01*
X149361095Y-106586674D01*
X149352043Y-106556649D01*
X149352000Y-106553000D01*
X149349571Y-106516869D01*
X149335529Y-106506571D01*
X149299738Y-106523208D01*
X149235283Y-106565700D01*
X149165432Y-106609077D01*
X149114717Y-106624546D01*
X149062499Y-106615806D01*
X149027780Y-106602871D01*
X148971204Y-106556000D01*
X148935173Y-106480675D01*
X148929006Y-106399456D01*
X149072600Y-106399456D01*
X149089711Y-106478661D01*
X149136315Y-106519660D01*
X149205320Y-106519491D01*
X149276498Y-106484622D01*
X149339412Y-106434494D01*
X149368798Y-106383392D01*
X149376885Y-106308281D01*
X149377011Y-106295349D01*
X149377400Y-106202799D01*
X149269825Y-106226970D01*
X149158475Y-106266103D01*
X149093291Y-106323812D01*
X149072600Y-106399456D01*
X148929006Y-106399456D01*
X148928892Y-106397963D01*
X148931798Y-106383244D01*
X148978823Y-106298411D01*
X149071631Y-106234225D01*
X149204380Y-106192326D01*
X149288565Y-106172131D01*
X149333538Y-106151663D01*
X149350508Y-106124470D01*
X149352000Y-106107354D01*
X149331077Y-106037067D01*
X149277652Y-105990384D01*
X149205742Y-105970497D01*
X149129361Y-105980594D01*
X149062525Y-106023865D01*
X149050123Y-106038650D01*
X148998009Y-106108500D01*
X148997204Y-106039302D01*
X149019695Y-105973507D01*
X149084046Y-105924876D01*
X149183024Y-105897505D01*
X149255488Y-105892988D01*
X149341408Y-105899821D01*
X149341408Y-105899821D01*
G37*
X149341408Y-105899821D02*
X149402591Y-105924243D01*
X149442979Y-105973201D01*
X149466513Y-106053644D01*
X149477134Y-106172521D01*
X149479000Y-106287008D01*
X149479880Y-106400994D01*
X149483815Y-106474066D01*
X149492744Y-106516097D01*
X149508605Y-106536960D01*
X149529800Y-106545640D01*
X149575282Y-106565260D01*
X149575082Y-106584504D01*
X149534147Y-106598839D01*
X149466300Y-106603800D01*
X149394871Y-106600476D01*
X149361095Y-106586674D01*
X149352043Y-106556649D01*
X149352000Y-106553000D01*
X149349571Y-106516869D01*
X149335529Y-106506571D01*
X149299738Y-106523208D01*
X149235283Y-106565700D01*
X149165432Y-106609077D01*
X149114717Y-106624546D01*
X149062499Y-106615806D01*
X149027780Y-106602871D01*
X148971204Y-106556000D01*
X148935173Y-106480675D01*
X148929006Y-106399456D01*
X149072600Y-106399456D01*
X149089711Y-106478661D01*
X149136315Y-106519660D01*
X149205320Y-106519491D01*
X149276498Y-106484622D01*
X149339412Y-106434494D01*
X149368798Y-106383392D01*
X149376885Y-106308281D01*
X149377011Y-106295349D01*
X149377400Y-106202799D01*
X149269825Y-106226970D01*
X149158475Y-106266103D01*
X149093291Y-106323812D01*
X149072600Y-106399456D01*
X148929006Y-106399456D01*
X148928892Y-106397963D01*
X148931798Y-106383244D01*
X148978823Y-106298411D01*
X149071631Y-106234225D01*
X149204380Y-106192326D01*
X149288565Y-106172131D01*
X149333538Y-106151663D01*
X149350508Y-106124470D01*
X149352000Y-106107354D01*
X149331077Y-106037067D01*
X149277652Y-105990384D01*
X149205742Y-105970497D01*
X149129361Y-105980594D01*
X149062525Y-106023865D01*
X149050123Y-106038650D01*
X148998009Y-106108500D01*
X148997204Y-106039302D01*
X149019695Y-105973507D01*
X149084046Y-105924876D01*
X149183024Y-105897505D01*
X149255488Y-105892988D01*
X149341408Y-105899821D01*
G36*
X150187515Y-105905349D02*
X150212371Y-105916272D01*
X150242782Y-105949538D01*
X150247880Y-106011512D01*
X150246022Y-106030572D01*
X150232096Y-106090462D01*
X150212796Y-106119731D01*
X150196187Y-106112493D01*
X150190200Y-106071293D01*
X150167218Y-106017496D01*
X150105861Y-105981008D01*
X150025100Y-105968800D01*
X149929853Y-105986527D01*
X149865260Y-106042938D01*
X149834490Y-106108831D01*
X149815184Y-106227724D01*
X149832292Y-106338809D01*
X149879443Y-106434003D01*
X149950265Y-106505219D01*
X150038387Y-106544372D01*
X150137436Y-106543377D01*
X150169279Y-106533684D01*
X150220443Y-106518984D01*
X150239510Y-106529934D01*
X150241000Y-106543135D01*
X150218373Y-106583752D01*
X150159070Y-106611461D01*
X150075952Y-106624596D01*
X149981882Y-106621495D01*
X149889723Y-106600492D01*
X149866850Y-106591542D01*
X149774697Y-106525708D01*
X149713052Y-106428017D01*
X149685356Y-106309599D01*
X149695051Y-106181586D01*
X149717991Y-106110107D01*
X149776480Y-106026567D01*
X149867430Y-105958536D01*
X149976089Y-105911800D01*
X150087702Y-105892143D01*
X150187515Y-105905349D01*
X150187515Y-105905349D01*
G37*
X150187515Y-105905349D02*
X150212371Y-105916272D01*
X150242782Y-105949538D01*
X150247880Y-106011512D01*
X150246022Y-106030572D01*
X150232096Y-106090462D01*
X150212796Y-106119731D01*
X150196187Y-106112493D01*
X150190200Y-106071293D01*
X150167218Y-106017496D01*
X150105861Y-105981008D01*
X150025100Y-105968800D01*
X149929853Y-105986527D01*
X149865260Y-106042938D01*
X149834490Y-106108831D01*
X149815184Y-106227724D01*
X149832292Y-106338809D01*
X149879443Y-106434003D01*
X149950265Y-106505219D01*
X150038387Y-106544372D01*
X150137436Y-106543377D01*
X150169279Y-106533684D01*
X150220443Y-106518984D01*
X150239510Y-106529934D01*
X150241000Y-106543135D01*
X150218373Y-106583752D01*
X150159070Y-106611461D01*
X150075952Y-106624596D01*
X149981882Y-106621495D01*
X149889723Y-106600492D01*
X149866850Y-106591542D01*
X149774697Y-106525708D01*
X149713052Y-106428017D01*
X149685356Y-106309599D01*
X149695051Y-106181586D01*
X149717991Y-106110107D01*
X149776480Y-106026567D01*
X149867430Y-105958536D01*
X149976089Y-105911800D01*
X150087702Y-105892143D01*
X150187515Y-105905349D01*
G36*
X153068376Y-105902297D02*
X153112606Y-105918752D01*
X153167924Y-105970450D01*
X153213426Y-106050294D01*
X153237100Y-106135680D01*
X153238200Y-106155076D01*
X153230385Y-106195198D01*
X153201752Y-106222117D01*
X153144516Y-106238251D01*
X153050889Y-106246021D01*
X152939750Y-106247853D01*
X152844408Y-106249268D01*
X152789121Y-106255100D01*
X152763158Y-106268402D01*
X152755792Y-106292228D01*
X152755600Y-106300261D01*
X152778018Y-106400222D01*
X152837442Y-106478742D01*
X152922124Y-106528656D01*
X153020317Y-106542801D01*
X153112617Y-106517999D01*
X153180288Y-106490407D01*
X153209934Y-106493576D01*
X153200249Y-106527347D01*
X153199542Y-106528501D01*
X153155515Y-106565009D01*
X153080312Y-106598669D01*
X152993373Y-106622283D01*
X152927865Y-106629105D01*
X152848744Y-106615320D01*
X152767412Y-106581849D01*
X152760421Y-106577748D01*
X152675060Y-106498426D01*
X152622834Y-106393033D01*
X152603711Y-106273977D01*
X152617659Y-106153665D01*
X152629572Y-106125989D01*
X152755600Y-106125989D01*
X152755600Y-106197400D01*
X153109929Y-106197400D01*
X153094378Y-106114850D01*
X153058315Y-106015357D01*
X152996627Y-105957796D01*
X152930452Y-105943400D01*
X152850901Y-105966304D01*
X152788366Y-106025204D01*
X152756945Y-106105379D01*
X152755600Y-106125989D01*
X152629572Y-106125989D01*
X152664647Y-106044505D01*
X152744643Y-105958905D01*
X152762033Y-105947272D01*
X152857273Y-105908438D01*
X152966816Y-105892842D01*
X153068376Y-105902297D01*
X153068376Y-105902297D01*
G37*
X153068376Y-105902297D02*
X153112606Y-105918752D01*
X153167924Y-105970450D01*
X153213426Y-106050294D01*
X153237100Y-106135680D01*
X153238200Y-106155076D01*
X153230385Y-106195198D01*
X153201752Y-106222117D01*
X153144516Y-106238251D01*
X153050889Y-106246021D01*
X152939750Y-106247853D01*
X152844408Y-106249268D01*
X152789121Y-106255100D01*
X152763158Y-106268402D01*
X152755792Y-106292228D01*
X152755600Y-106300261D01*
X152778018Y-106400222D01*
X152837442Y-106478742D01*
X152922124Y-106528656D01*
X153020317Y-106542801D01*
X153112617Y-106517999D01*
X153180288Y-106490407D01*
X153209934Y-106493576D01*
X153200249Y-106527347D01*
X153199542Y-106528501D01*
X153155515Y-106565009D01*
X153080312Y-106598669D01*
X152993373Y-106622283D01*
X152927865Y-106629105D01*
X152848744Y-106615320D01*
X152767412Y-106581849D01*
X152760421Y-106577748D01*
X152675060Y-106498426D01*
X152622834Y-106393033D01*
X152603711Y-106273977D01*
X152617659Y-106153665D01*
X152629572Y-106125989D01*
X152755600Y-106125989D01*
X152755600Y-106197400D01*
X153109929Y-106197400D01*
X153094378Y-106114850D01*
X153058315Y-106015357D01*
X152996627Y-105957796D01*
X152930452Y-105943400D01*
X152850901Y-105966304D01*
X152788366Y-106025204D01*
X152756945Y-106105379D01*
X152755600Y-106125989D01*
X152629572Y-106125989D01*
X152664647Y-106044505D01*
X152744643Y-105958905D01*
X152762033Y-105947272D01*
X152857273Y-105908438D01*
X152966816Y-105892842D01*
X153068376Y-105902297D01*
G36*
X157502850Y-105912089D02*
X157608577Y-105969442D01*
X157679177Y-106062990D01*
X157713036Y-106191061D01*
X157715887Y-106257317D01*
X157691432Y-106389840D01*
X157625395Y-106498066D01*
X157523558Y-106576056D01*
X157391706Y-106617873D01*
X157361242Y-106621460D01*
X157262037Y-106621019D01*
X157183341Y-106595703D01*
X157154621Y-106579257D01*
X157065543Y-106495270D01*
X157013894Y-106383704D01*
X157001848Y-106253552D01*
X157010094Y-106214786D01*
X157149800Y-106214786D01*
X157164090Y-106341137D01*
X157202845Y-106445732D01*
X157259889Y-106523246D01*
X157329044Y-106568351D01*
X157404136Y-106575721D01*
X157478989Y-106540030D01*
X157501978Y-106518542D01*
X157556234Y-106431171D01*
X157579423Y-106327181D01*
X157574649Y-106217585D01*
X157545015Y-106113396D01*
X157493626Y-106025628D01*
X157423586Y-105965295D01*
X157339885Y-105943400D01*
X157250438Y-105964787D01*
X157188641Y-106027985D01*
X157155506Y-106131548D01*
X157149800Y-106214786D01*
X157010094Y-106214786D01*
X157031576Y-106113808D01*
X157038062Y-106096801D01*
X157105407Y-105991023D01*
X157205894Y-105922366D01*
X157335423Y-105893403D01*
X157363609Y-105892600D01*
X157502850Y-105912089D01*
X157502850Y-105912089D01*
G37*
X157502850Y-105912089D02*
X157608577Y-105969442D01*
X157679177Y-106062990D01*
X157713036Y-106191061D01*
X157715887Y-106257317D01*
X157691432Y-106389840D01*
X157625395Y-106498066D01*
X157523558Y-106576056D01*
X157391706Y-106617873D01*
X157361242Y-106621460D01*
X157262037Y-106621019D01*
X157183341Y-106595703D01*
X157154621Y-106579257D01*
X157065543Y-106495270D01*
X157013894Y-106383704D01*
X157001848Y-106253552D01*
X157010094Y-106214786D01*
X157149800Y-106214786D01*
X157164090Y-106341137D01*
X157202845Y-106445732D01*
X157259889Y-106523246D01*
X157329044Y-106568351D01*
X157404136Y-106575721D01*
X157478989Y-106540030D01*
X157501978Y-106518542D01*
X157556234Y-106431171D01*
X157579423Y-106327181D01*
X157574649Y-106217585D01*
X157545015Y-106113396D01*
X157493626Y-106025628D01*
X157423586Y-105965295D01*
X157339885Y-105943400D01*
X157250438Y-105964787D01*
X157188641Y-106027985D01*
X157155506Y-106131548D01*
X157149800Y-106214786D01*
X157010094Y-106214786D01*
X157031576Y-106113808D01*
X157038062Y-106096801D01*
X157105407Y-105991023D01*
X157205894Y-105922366D01*
X157335423Y-105893403D01*
X157363609Y-105892600D01*
X157502850Y-105912089D01*
G36*
X150577724Y-105903870D02*
X150588093Y-105928059D01*
X150594475Y-105978494D01*
X150598459Y-106062942D01*
X150601633Y-106189172D01*
X150602170Y-106213691D01*
X150605471Y-106347575D01*
X150609552Y-106439043D01*
X150616023Y-106496475D01*
X150626493Y-106528248D01*
X150642570Y-106542741D01*
X150665864Y-106548333D01*
X150666450Y-106548416D01*
X150711112Y-106563690D01*
X150723600Y-106580166D01*
X150700277Y-106591462D01*
X150638585Y-106599819D01*
X150550932Y-106603696D01*
X150533100Y-106603800D01*
X150442046Y-106600906D01*
X150374687Y-106593253D01*
X150343433Y-106582378D01*
X150342600Y-106580166D01*
X150364196Y-106558629D01*
X150399750Y-106548416D01*
X150425049Y-106542147D01*
X150441872Y-106525797D01*
X150452323Y-106490166D01*
X150458509Y-106426056D01*
X150462534Y-106324268D01*
X150464109Y-106267250D01*
X150471318Y-105994200D01*
X150406959Y-105994200D01*
X150354344Y-105985295D01*
X150347152Y-105964835D01*
X150384520Y-105942201D01*
X150412450Y-105934486D01*
X150487487Y-105916699D01*
X150538670Y-105903152D01*
X150561779Y-105898157D01*
X150577724Y-105903870D01*
X150577724Y-105903870D01*
G37*
X150577724Y-105903870D02*
X150588093Y-105928059D01*
X150594475Y-105978494D01*
X150598459Y-106062942D01*
X150601633Y-106189172D01*
X150602170Y-106213691D01*
X150605471Y-106347575D01*
X150609552Y-106439043D01*
X150616023Y-106496475D01*
X150626493Y-106528248D01*
X150642570Y-106542741D01*
X150665864Y-106548333D01*
X150666450Y-106548416D01*
X150711112Y-106563690D01*
X150723600Y-106580166D01*
X150700277Y-106591462D01*
X150638585Y-106599819D01*
X150550932Y-106603696D01*
X150533100Y-106603800D01*
X150442046Y-106600906D01*
X150374687Y-106593253D01*
X150343433Y-106582378D01*
X150342600Y-106580166D01*
X150364196Y-106558629D01*
X150399750Y-106548416D01*
X150425049Y-106542147D01*
X150441872Y-106525797D01*
X150452323Y-106490166D01*
X150458509Y-106426056D01*
X150462534Y-106324268D01*
X150464109Y-106267250D01*
X150471318Y-105994200D01*
X150406959Y-105994200D01*
X150354344Y-105985295D01*
X150347152Y-105964835D01*
X150384520Y-105942201D01*
X150412450Y-105934486D01*
X150487487Y-105916699D01*
X150538670Y-105903152D01*
X150561779Y-105898157D01*
X150577724Y-105903870D01*
G36*
X151035415Y-105673823D02*
X151044418Y-105718367D01*
X151037824Y-105803700D01*
X151021405Y-105943400D01*
X151126502Y-105943400D01*
X151198457Y-105949279D01*
X151229070Y-105968926D01*
X151231600Y-105981500D01*
X151214823Y-106007992D01*
X151159209Y-106018908D01*
X151130000Y-106019600D01*
X151028400Y-106019600D01*
X151028400Y-106233685D01*
X151032642Y-106362620D01*
X151047630Y-106447717D01*
X151076751Y-106495402D01*
X151123393Y-106512102D01*
X151173016Y-106507956D01*
X151221926Y-106500762D01*
X151226586Y-106512586D01*
X151195913Y-106549304D01*
X151130097Y-106592746D01*
X151049234Y-106603800D01*
X150980722Y-106597837D01*
X150943751Y-106573415D01*
X150926171Y-106538646D01*
X150914896Y-106483962D01*
X150906307Y-106394651D01*
X150901775Y-106286870D01*
X150901400Y-106246546D01*
X150900539Y-106138403D01*
X150896510Y-106071348D01*
X150887140Y-106035680D01*
X150870258Y-106021696D01*
X150850600Y-106019600D01*
X150809307Y-106010192D01*
X150799800Y-105997162D01*
X150820938Y-105973447D01*
X150850600Y-105961440D01*
X150882947Y-105943245D01*
X150898011Y-105901623D01*
X150901400Y-105832371D01*
X150907479Y-105751748D01*
X150929082Y-105706244D01*
X150950530Y-105690293D01*
X151005714Y-105666537D01*
X151035415Y-105673823D01*
X151035415Y-105673823D01*
G37*
X151035415Y-105673823D02*
X151044418Y-105718367D01*
X151037824Y-105803700D01*
X151021405Y-105943400D01*
X151126502Y-105943400D01*
X151198457Y-105949279D01*
X151229070Y-105968926D01*
X151231600Y-105981500D01*
X151214823Y-106007992D01*
X151159209Y-106018908D01*
X151130000Y-106019600D01*
X151028400Y-106019600D01*
X151028400Y-106233685D01*
X151032642Y-106362620D01*
X151047630Y-106447717D01*
X151076751Y-106495402D01*
X151123393Y-106512102D01*
X151173016Y-106507956D01*
X151221926Y-106500762D01*
X151226586Y-106512586D01*
X151195913Y-106549304D01*
X151130097Y-106592746D01*
X151049234Y-106603800D01*
X150980722Y-106597837D01*
X150943751Y-106573415D01*
X150926171Y-106538646D01*
X150914896Y-106483962D01*
X150906307Y-106394651D01*
X150901775Y-106286870D01*
X150901400Y-106246546D01*
X150900539Y-106138403D01*
X150896510Y-106071348D01*
X150887140Y-106035680D01*
X150870258Y-106021696D01*
X150850600Y-106019600D01*
X150809307Y-106010192D01*
X150799800Y-105997162D01*
X150820938Y-105973447D01*
X150850600Y-105961440D01*
X150882947Y-105943245D01*
X150898011Y-105901623D01*
X150901400Y-105832371D01*
X150907479Y-105751748D01*
X150929082Y-105706244D01*
X150950530Y-105690293D01*
X151005714Y-105666537D01*
X151035415Y-105673823D01*
G36*
X151517524Y-105903870D02*
X151527893Y-105928059D01*
X151534275Y-105978494D01*
X151538259Y-106062942D01*
X151541433Y-106189172D01*
X151541970Y-106213691D01*
X151545271Y-106347575D01*
X151549352Y-106439043D01*
X151555823Y-106496475D01*
X151566293Y-106528248D01*
X151582370Y-106542741D01*
X151605664Y-106548333D01*
X151606250Y-106548416D01*
X151650912Y-106563690D01*
X151663400Y-106580166D01*
X151640077Y-106591462D01*
X151578385Y-106599819D01*
X151490732Y-106603696D01*
X151472900Y-106603800D01*
X151376911Y-106600648D01*
X151310007Y-106592116D01*
X151282578Y-106579591D01*
X151282400Y-106578400D01*
X151304136Y-106559306D01*
X151345900Y-106553000D01*
X151409400Y-106553000D01*
X151409400Y-105994200D01*
X151345900Y-105994200D01*
X151293836Y-105985274D01*
X151287029Y-105964784D01*
X151324474Y-105942160D01*
X151352250Y-105934486D01*
X151427287Y-105916699D01*
X151478470Y-105903152D01*
X151501579Y-105898157D01*
X151517524Y-105903870D01*
X151517524Y-105903870D01*
G37*
X151517524Y-105903870D02*
X151527893Y-105928059D01*
X151534275Y-105978494D01*
X151538259Y-106062942D01*
X151541433Y-106189172D01*
X151541970Y-106213691D01*
X151545271Y-106347575D01*
X151549352Y-106439043D01*
X151555823Y-106496475D01*
X151566293Y-106528248D01*
X151582370Y-106542741D01*
X151605664Y-106548333D01*
X151606250Y-106548416D01*
X151650912Y-106563690D01*
X151663400Y-106580166D01*
X151640077Y-106591462D01*
X151578385Y-106599819D01*
X151490732Y-106603696D01*
X151472900Y-106603800D01*
X151376911Y-106600648D01*
X151310007Y-106592116D01*
X151282578Y-106579591D01*
X151282400Y-106578400D01*
X151304136Y-106559306D01*
X151345900Y-106553000D01*
X151409400Y-106553000D01*
X151409400Y-105994200D01*
X151345900Y-105994200D01*
X151293836Y-105985274D01*
X151287029Y-105964784D01*
X151324474Y-105942160D01*
X151352250Y-105934486D01*
X151427287Y-105916699D01*
X151478470Y-105903152D01*
X151501579Y-105898157D01*
X151517524Y-105903870D01*
G36*
X152452577Y-105896716D02*
X152494820Y-105909915D01*
X152490391Y-105933474D01*
X152455188Y-105960164D01*
X152429835Y-105992085D01*
X152390157Y-106060155D01*
X152341389Y-106153639D01*
X152288772Y-106261806D01*
X152237541Y-106373920D01*
X152192935Y-106479250D01*
X152162791Y-106559350D01*
X152132419Y-106598840D01*
X152090770Y-106595695D01*
X152048601Y-106553048D01*
X152032085Y-106521250D01*
X152007115Y-106462304D01*
X151968683Y-106371286D01*
X151923016Y-106262950D01*
X151895418Y-106197400D01*
X151846358Y-106088978D01*
X151801964Y-106005930D01*
X151767210Y-105957035D01*
X151754036Y-105947887D01*
X151719062Y-105928374D01*
X151714200Y-105916137D01*
X151737448Y-105904536D01*
X151798629Y-105896130D01*
X151884900Y-105892618D01*
X151892000Y-105892600D01*
X151983207Y-105895956D01*
X152046230Y-105904951D01*
X152069799Y-105917975D01*
X152069800Y-105918000D01*
X152048593Y-105938841D01*
X152020499Y-105943400D01*
X151974058Y-105952019D01*
X151959617Y-105962450D01*
X151963610Y-105992617D01*
X151983613Y-106058791D01*
X152016095Y-106150086D01*
X152043593Y-106221179D01*
X152087364Y-106329788D01*
X152119483Y-106396549D01*
X152145685Y-106420449D01*
X152171703Y-106400474D01*
X152203273Y-106335612D01*
X152246127Y-106224848D01*
X152262018Y-106182579D01*
X152300921Y-106073041D01*
X152318981Y-106002064D01*
X152316547Y-105962043D01*
X152293967Y-105945372D01*
X152273000Y-105943400D01*
X152231725Y-105932763D01*
X152222200Y-105918000D01*
X152245165Y-105904090D01*
X152304407Y-105894864D01*
X152361900Y-105892600D01*
X152452577Y-105896716D01*
X152452577Y-105896716D01*
G37*
X152452577Y-105896716D02*
X152494820Y-105909915D01*
X152490391Y-105933474D01*
X152455188Y-105960164D01*
X152429835Y-105992085D01*
X152390157Y-106060155D01*
X152341389Y-106153639D01*
X152288772Y-106261806D01*
X152237541Y-106373920D01*
X152192935Y-106479250D01*
X152162791Y-106559350D01*
X152132419Y-106598840D01*
X152090770Y-106595695D01*
X152048601Y-106553048D01*
X152032085Y-106521250D01*
X152007115Y-106462304D01*
X151968683Y-106371286D01*
X151923016Y-106262950D01*
X151895418Y-106197400D01*
X151846358Y-106088978D01*
X151801964Y-106005930D01*
X151767210Y-105957035D01*
X151754036Y-105947887D01*
X151719062Y-105928374D01*
X151714200Y-105916137D01*
X151737448Y-105904536D01*
X151798629Y-105896130D01*
X151884900Y-105892618D01*
X151892000Y-105892600D01*
X151983207Y-105895956D01*
X152046230Y-105904951D01*
X152069799Y-105917975D01*
X152069800Y-105918000D01*
X152048593Y-105938841D01*
X152020499Y-105943400D01*
X151974058Y-105952019D01*
X151959617Y-105962450D01*
X151963610Y-105992617D01*
X151983613Y-106058791D01*
X152016095Y-106150086D01*
X152043593Y-106221179D01*
X152087364Y-106329788D01*
X152119483Y-106396549D01*
X152145685Y-106420449D01*
X152171703Y-106400474D01*
X152203273Y-106335612D01*
X152246127Y-106224848D01*
X152262018Y-106182579D01*
X152300921Y-106073041D01*
X152318981Y-106002064D01*
X152316547Y-105962043D01*
X152293967Y-105945372D01*
X152273000Y-105943400D01*
X152231725Y-105932763D01*
X152222200Y-105918000D01*
X152245165Y-105904090D01*
X152304407Y-105894864D01*
X152361900Y-105892600D01*
X152452577Y-105896716D01*
G36*
X154192921Y-105540857D02*
X154331378Y-105544721D01*
X154428438Y-105549230D01*
X154493487Y-105556234D01*
X154535913Y-105567585D01*
X154565105Y-105585132D01*
X154590448Y-105610726D01*
X154599321Y-105620966D01*
X154649984Y-105713723D01*
X154655838Y-105812760D01*
X154620154Y-105907969D01*
X154546206Y-105989241D01*
X154464905Y-106036107D01*
X154410477Y-106062785D01*
X154396343Y-106086460D01*
X154412020Y-106116305D01*
X154533261Y-106278276D01*
X154632466Y-106404592D01*
X154708077Y-106493393D01*
X154758538Y-106542821D01*
X154777977Y-106553000D01*
X154809754Y-106567752D01*
X154813000Y-106578400D01*
X154790348Y-106593778D01*
X154733253Y-106602805D01*
X154702757Y-106603800D01*
X154592515Y-106603800D01*
X154385257Y-106323757D01*
X154309837Y-106221020D01*
X154246688Y-106133415D01*
X154201323Y-106068711D01*
X154179254Y-106034679D01*
X154178000Y-106031657D01*
X154200574Y-106024138D01*
X154257034Y-106019926D01*
X154280754Y-106019600D01*
X154386400Y-105998808D01*
X154463061Y-105940912D01*
X154503621Y-105852631D01*
X154508200Y-105804854D01*
X154492181Y-105711630D01*
X154441644Y-105650763D01*
X154352868Y-105619303D01*
X154266327Y-105613200D01*
X154126054Y-105613200D01*
X154139900Y-106540300D01*
X154209750Y-106548337D01*
X154260488Y-106561632D01*
X154279600Y-106580087D01*
X154256095Y-106590529D01*
X154193134Y-106598625D01*
X154102049Y-106603199D01*
X154051000Y-106603800D01*
X153950334Y-106601361D01*
X153872285Y-106594830D01*
X153828184Y-106585382D01*
X153822400Y-106580087D01*
X153844366Y-106560334D01*
X153892250Y-106548337D01*
X153962100Y-106540300D01*
X153962100Y-106070400D01*
X153961948Y-105905409D01*
X153960942Y-105784282D01*
X153958252Y-105700079D01*
X153953047Y-105645865D01*
X153944500Y-105614702D01*
X153931779Y-105599652D01*
X153914057Y-105593778D01*
X153904950Y-105592383D01*
X153860280Y-105576162D01*
X153847800Y-105558141D01*
X153872823Y-105546918D01*
X153946815Y-105540440D01*
X154068161Y-105538788D01*
X154192921Y-105540857D01*
X154192921Y-105540857D01*
G37*
X154192921Y-105540857D02*
X154331378Y-105544721D01*
X154428438Y-105549230D01*
X154493487Y-105556234D01*
X154535913Y-105567585D01*
X154565105Y-105585132D01*
X154590448Y-105610726D01*
X154599321Y-105620966D01*
X154649984Y-105713723D01*
X154655838Y-105812760D01*
X154620154Y-105907969D01*
X154546206Y-105989241D01*
X154464905Y-106036107D01*
X154410477Y-106062785D01*
X154396343Y-106086460D01*
X154412020Y-106116305D01*
X154533261Y-106278276D01*
X154632466Y-106404592D01*
X154708077Y-106493393D01*
X154758538Y-106542821D01*
X154777977Y-106553000D01*
X154809754Y-106567752D01*
X154813000Y-106578400D01*
X154790348Y-106593778D01*
X154733253Y-106602805D01*
X154702757Y-106603800D01*
X154592515Y-106603800D01*
X154385257Y-106323757D01*
X154309837Y-106221020D01*
X154246688Y-106133415D01*
X154201323Y-106068711D01*
X154179254Y-106034679D01*
X154178000Y-106031657D01*
X154200574Y-106024138D01*
X154257034Y-106019926D01*
X154280754Y-106019600D01*
X154386400Y-105998808D01*
X154463061Y-105940912D01*
X154503621Y-105852631D01*
X154508200Y-105804854D01*
X154492181Y-105711630D01*
X154441644Y-105650763D01*
X154352868Y-105619303D01*
X154266327Y-105613200D01*
X154126054Y-105613200D01*
X154139900Y-106540300D01*
X154209750Y-106548337D01*
X154260488Y-106561632D01*
X154279600Y-106580087D01*
X154256095Y-106590529D01*
X154193134Y-106598625D01*
X154102049Y-106603199D01*
X154051000Y-106603800D01*
X153950334Y-106601361D01*
X153872285Y-106594830D01*
X153828184Y-106585382D01*
X153822400Y-106580087D01*
X153844366Y-106560334D01*
X153892250Y-106548337D01*
X153962100Y-106540300D01*
X153962100Y-106070400D01*
X153961948Y-105905409D01*
X153960942Y-105784282D01*
X153958252Y-105700079D01*
X153953047Y-105645865D01*
X153944500Y-105614702D01*
X153931779Y-105599652D01*
X153914057Y-105593778D01*
X153904950Y-105592383D01*
X153860280Y-105576162D01*
X153847800Y-105558141D01*
X153872823Y-105546918D01*
X153946815Y-105540440D01*
X154068161Y-105538788D01*
X154192921Y-105540857D01*
G36*
X155082657Y-105916320D02*
X155087832Y-105980775D01*
X155091264Y-106075901D01*
X155092400Y-106182622D01*
X155093555Y-106328128D01*
X155098073Y-106430253D01*
X155107526Y-106496387D01*
X155123490Y-106533919D01*
X155147537Y-106550237D01*
X155171317Y-106553000D01*
X155211092Y-106564172D01*
X155219400Y-106578400D01*
X155195762Y-106591198D01*
X155131776Y-106600118D01*
X155037833Y-106603776D01*
X155028900Y-106603800D01*
X154932911Y-106600648D01*
X154866007Y-106592116D01*
X154838578Y-106579591D01*
X154838400Y-106578400D01*
X154860136Y-106559306D01*
X154901900Y-106553000D01*
X154965400Y-106553000D01*
X154965400Y-106273600D01*
X154964815Y-106151323D01*
X154961997Y-106071061D01*
X154955348Y-106024032D01*
X154943273Y-106001453D01*
X154924174Y-105994543D01*
X154914600Y-105994200D01*
X154870266Y-105986392D01*
X154869812Y-105966823D01*
X154909439Y-105941274D01*
X154961996Y-105922020D01*
X155027824Y-105903395D01*
X155070858Y-105893233D01*
X155076296Y-105892600D01*
X155082657Y-105916320D01*
X155082657Y-105916320D01*
G37*
X155082657Y-105916320D02*
X155087832Y-105980775D01*
X155091264Y-106075901D01*
X155092400Y-106182622D01*
X155093555Y-106328128D01*
X155098073Y-106430253D01*
X155107526Y-106496387D01*
X155123490Y-106533919D01*
X155147537Y-106550237D01*
X155171317Y-106553000D01*
X155211092Y-106564172D01*
X155219400Y-106578400D01*
X155195762Y-106591198D01*
X155131776Y-106600118D01*
X155037833Y-106603776D01*
X155028900Y-106603800D01*
X154932911Y-106600648D01*
X154866007Y-106592116D01*
X154838578Y-106579591D01*
X154838400Y-106578400D01*
X154860136Y-106559306D01*
X154901900Y-106553000D01*
X154965400Y-106553000D01*
X154965400Y-106273600D01*
X154964815Y-106151323D01*
X154961997Y-106071061D01*
X154955348Y-106024032D01*
X154943273Y-106001453D01*
X154924174Y-105994543D01*
X154914600Y-105994200D01*
X154870266Y-105986392D01*
X154869812Y-105966823D01*
X154909439Y-105941274D01*
X154961996Y-105922020D01*
X155027824Y-105903395D01*
X155070858Y-105893233D01*
X155076296Y-105892600D01*
X155082657Y-105916320D01*
G36*
X155486874Y-105507519D02*
X155494331Y-105545237D01*
X155497824Y-105615946D01*
X155498785Y-105727827D01*
X155498800Y-105752440D01*
X155498800Y-106024115D01*
X155576948Y-105958357D01*
X155675053Y-105901708D01*
X155772688Y-105889316D01*
X155863003Y-105915042D01*
X155939146Y-105972746D01*
X155994266Y-106056288D01*
X156021511Y-106159529D01*
X156014031Y-106276329D01*
X155996503Y-106334341D01*
X155934296Y-106439613D01*
X155842669Y-106523781D01*
X155733529Y-106581290D01*
X155618786Y-106606589D01*
X155510347Y-106594124D01*
X155473271Y-106578331D01*
X155424967Y-106566679D01*
X155409942Y-106578331D01*
X155393257Y-106598137D01*
X155380534Y-106593544D01*
X155371283Y-106559942D01*
X155365010Y-106492722D01*
X155361224Y-106387275D01*
X155359852Y-106273778D01*
X155498800Y-106273778D01*
X155500823Y-106379293D01*
X155508351Y-106445256D01*
X155523570Y-106482806D01*
X155543250Y-106500165D01*
X155626084Y-106524273D01*
X155721311Y-106519131D01*
X155797219Y-106488570D01*
X155854674Y-106420142D01*
X155886318Y-106324082D01*
X155891091Y-106217119D01*
X155867934Y-106115984D01*
X155825187Y-106046759D01*
X155754975Y-106005037D01*
X155665526Y-105995926D01*
X155577361Y-106020414D01*
X155555251Y-106033740D01*
X155526549Y-106059299D01*
X155509569Y-106094609D01*
X155501334Y-106152335D01*
X155498865Y-106245142D01*
X155498800Y-106273778D01*
X155359852Y-106273778D01*
X155359431Y-106238989D01*
X155359100Y-106102173D01*
X155358970Y-105930934D01*
X155358080Y-105803789D01*
X155355677Y-105714030D01*
X155351010Y-105654952D01*
X155343327Y-105619849D01*
X155331876Y-105602013D01*
X155315905Y-105594738D01*
X155301950Y-105592383D01*
X155253327Y-105577268D01*
X155251699Y-105556713D01*
X155294586Y-105536824D01*
X155327350Y-105529784D01*
X155399599Y-105514609D01*
X155454350Y-105498343D01*
X155474024Y-105494614D01*
X155486874Y-105507519D01*
X155486874Y-105507519D01*
G37*
X155486874Y-105507519D02*
X155494331Y-105545237D01*
X155497824Y-105615946D01*
X155498785Y-105727827D01*
X155498800Y-105752440D01*
X155498800Y-106024115D01*
X155576948Y-105958357D01*
X155675053Y-105901708D01*
X155772688Y-105889316D01*
X155863003Y-105915042D01*
X155939146Y-105972746D01*
X155994266Y-106056288D01*
X156021511Y-106159529D01*
X156014031Y-106276329D01*
X155996503Y-106334341D01*
X155934296Y-106439613D01*
X155842669Y-106523781D01*
X155733529Y-106581290D01*
X155618786Y-106606589D01*
X155510347Y-106594124D01*
X155473271Y-106578331D01*
X155424967Y-106566679D01*
X155409942Y-106578331D01*
X155393257Y-106598137D01*
X155380534Y-106593544D01*
X155371283Y-106559942D01*
X155365010Y-106492722D01*
X155361224Y-106387275D01*
X155359852Y-106273778D01*
X155498800Y-106273778D01*
X155500823Y-106379293D01*
X155508351Y-106445256D01*
X155523570Y-106482806D01*
X155543250Y-106500165D01*
X155626084Y-106524273D01*
X155721311Y-106519131D01*
X155797219Y-106488570D01*
X155854674Y-106420142D01*
X155886318Y-106324082D01*
X155891091Y-106217119D01*
X155867934Y-106115984D01*
X155825187Y-106046759D01*
X155754975Y-106005037D01*
X155665526Y-105995926D01*
X155577361Y-106020414D01*
X155555251Y-106033740D01*
X155526549Y-106059299D01*
X155509569Y-106094609D01*
X155501334Y-106152335D01*
X155498865Y-106245142D01*
X155498800Y-106273778D01*
X155359852Y-106273778D01*
X155359431Y-106238989D01*
X155359100Y-106102173D01*
X155358970Y-105930934D01*
X155358080Y-105803789D01*
X155355677Y-105714030D01*
X155351010Y-105654952D01*
X155343327Y-105619849D01*
X155331876Y-105602013D01*
X155315905Y-105594738D01*
X155301950Y-105592383D01*
X155253327Y-105577268D01*
X155251699Y-105556713D01*
X155294586Y-105536824D01*
X155327350Y-105529784D01*
X155399599Y-105514609D01*
X155454350Y-105498343D01*
X155474024Y-105494614D01*
X155486874Y-105507519D01*
G36*
X156325074Y-105507519D02*
X156332531Y-105545237D01*
X156336024Y-105615946D01*
X156336985Y-105727827D01*
X156337000Y-105752440D01*
X156337000Y-106024115D01*
X156415148Y-105958357D01*
X156507809Y-105907019D01*
X156611376Y-105890647D01*
X156708873Y-105909848D01*
X156765566Y-105945839D01*
X156839307Y-106045573D01*
X156869405Y-106159872D01*
X156857221Y-106279733D01*
X156804116Y-106396157D01*
X156711452Y-106500142D01*
X156677785Y-106526391D01*
X156616367Y-106567187D01*
X156562817Y-106589935D01*
X156498794Y-106599137D01*
X156405956Y-106599295D01*
X156383367Y-106598668D01*
X156197300Y-106593134D01*
X156197300Y-106285037D01*
X156337000Y-106285037D01*
X156340890Y-106397367D01*
X156357216Y-106468450D01*
X156392959Y-106507548D01*
X156455103Y-106523919D01*
X156519306Y-106526827D01*
X156598790Y-106515319D01*
X156656110Y-106471956D01*
X156664688Y-106461523D01*
X156711843Y-106372558D01*
X156732685Y-106269424D01*
X156727985Y-106166762D01*
X156698513Y-106079213D01*
X156645040Y-106021419D01*
X156641435Y-106019405D01*
X156555371Y-105995661D01*
X156464164Y-106003905D01*
X156391147Y-106041781D01*
X156387800Y-106045000D01*
X156360378Y-106081851D01*
X156344745Y-106132985D01*
X156337997Y-106212120D01*
X156337000Y-106285037D01*
X156197300Y-106285037D01*
X156197300Y-106096817D01*
X156197167Y-105926618D01*
X156196258Y-105800474D01*
X156193810Y-105711643D01*
X156189059Y-105653381D01*
X156181241Y-105618944D01*
X156169591Y-105601588D01*
X156153345Y-105594569D01*
X156140150Y-105592383D01*
X156091527Y-105577268D01*
X156089899Y-105556713D01*
X156132786Y-105536824D01*
X156165550Y-105529784D01*
X156237799Y-105514609D01*
X156292550Y-105498343D01*
X156312224Y-105494614D01*
X156325074Y-105507519D01*
X156325074Y-105507519D01*
G37*
X156325074Y-105507519D02*
X156332531Y-105545237D01*
X156336024Y-105615946D01*
X156336985Y-105727827D01*
X156337000Y-105752440D01*
X156337000Y-106024115D01*
X156415148Y-105958357D01*
X156507809Y-105907019D01*
X156611376Y-105890647D01*
X156708873Y-105909848D01*
X156765566Y-105945839D01*
X156839307Y-106045573D01*
X156869405Y-106159872D01*
X156857221Y-106279733D01*
X156804116Y-106396157D01*
X156711452Y-106500142D01*
X156677785Y-106526391D01*
X156616367Y-106567187D01*
X156562817Y-106589935D01*
X156498794Y-106599137D01*
X156405956Y-106599295D01*
X156383367Y-106598668D01*
X156197300Y-106593134D01*
X156197300Y-106285037D01*
X156337000Y-106285037D01*
X156340890Y-106397367D01*
X156357216Y-106468450D01*
X156392959Y-106507548D01*
X156455103Y-106523919D01*
X156519306Y-106526827D01*
X156598790Y-106515319D01*
X156656110Y-106471956D01*
X156664688Y-106461523D01*
X156711843Y-106372558D01*
X156732685Y-106269424D01*
X156727985Y-106166762D01*
X156698513Y-106079213D01*
X156645040Y-106021419D01*
X156641435Y-106019405D01*
X156555371Y-105995661D01*
X156464164Y-106003905D01*
X156391147Y-106041781D01*
X156387800Y-106045000D01*
X156360378Y-106081851D01*
X156344745Y-106132985D01*
X156337997Y-106212120D01*
X156337000Y-106285037D01*
X156197300Y-106285037D01*
X156197300Y-106096817D01*
X156197167Y-105926618D01*
X156196258Y-105800474D01*
X156193810Y-105711643D01*
X156189059Y-105653381D01*
X156181241Y-105618944D01*
X156169591Y-105601588D01*
X156153345Y-105594569D01*
X156140150Y-105592383D01*
X156091527Y-105577268D01*
X156089899Y-105556713D01*
X156132786Y-105536824D01*
X156165550Y-105529784D01*
X156237799Y-105514609D01*
X156292550Y-105498343D01*
X156312224Y-105494614D01*
X156325074Y-105507519D01*
G36*
X158401433Y-105912435D02*
X158448736Y-105941063D01*
X158475621Y-105966937D01*
X158493870Y-105999906D01*
X158505861Y-106050570D01*
X158513972Y-106129529D01*
X158520582Y-106247384D01*
X158521400Y-106264913D01*
X158527584Y-106386181D01*
X158534255Y-106465824D01*
X158543664Y-106512986D01*
X158558064Y-106536810D01*
X158579709Y-106546440D01*
X158591250Y-106548416D01*
X158641418Y-106562133D01*
X158647361Y-106579005D01*
X158615031Y-106594253D01*
X158550380Y-106603099D01*
X158522259Y-106603800D01*
X158396118Y-106603800D01*
X158388909Y-106333420D01*
X158385087Y-106212918D01*
X158379589Y-106132406D01*
X158369839Y-106081078D01*
X158353260Y-106048133D01*
X158327277Y-106022767D01*
X158312058Y-106011116D01*
X158263133Y-105978839D01*
X158224041Y-105973565D01*
X158170058Y-105993771D01*
X158153975Y-106001367D01*
X158100611Y-106033073D01*
X158066233Y-106074129D01*
X158047560Y-106134932D01*
X158041312Y-106225875D01*
X158043915Y-106350099D01*
X158049046Y-106447619D01*
X158057201Y-106505446D01*
X158072004Y-106534680D01*
X158097078Y-106546425D01*
X158108650Y-106548416D01*
X158153312Y-106563690D01*
X158165800Y-106580166D01*
X158142477Y-106591462D01*
X158080785Y-106599819D01*
X157993132Y-106603696D01*
X157975300Y-106603800D01*
X157879311Y-106600648D01*
X157812407Y-106592116D01*
X157784978Y-106579591D01*
X157784800Y-106578400D01*
X157806536Y-106559306D01*
X157848300Y-106553000D01*
X157911800Y-106553000D01*
X157911800Y-105994200D01*
X157848300Y-105994200D01*
X157795974Y-105987184D01*
X157788631Y-105969437D01*
X157822931Y-105945909D01*
X157895539Y-105921549D01*
X157897647Y-105921015D01*
X157977353Y-105901476D01*
X158019495Y-105896709D01*
X158036009Y-105910083D01*
X158038836Y-105944967D01*
X158038800Y-105960852D01*
X158038800Y-106029104D01*
X158110039Y-105960852D01*
X158198215Y-105907522D01*
X158301469Y-105891026D01*
X158401433Y-105912435D01*
X158401433Y-105912435D01*
G37*
X158401433Y-105912435D02*
X158448736Y-105941063D01*
X158475621Y-105966937D01*
X158493870Y-105999906D01*
X158505861Y-106050570D01*
X158513972Y-106129529D01*
X158520582Y-106247384D01*
X158521400Y-106264913D01*
X158527584Y-106386181D01*
X158534255Y-106465824D01*
X158543664Y-106512986D01*
X158558064Y-106536810D01*
X158579709Y-106546440D01*
X158591250Y-106548416D01*
X158641418Y-106562133D01*
X158647361Y-106579005D01*
X158615031Y-106594253D01*
X158550380Y-106603099D01*
X158522259Y-106603800D01*
X158396118Y-106603800D01*
X158388909Y-106333420D01*
X158385087Y-106212918D01*
X158379589Y-106132406D01*
X158369839Y-106081078D01*
X158353260Y-106048133D01*
X158327277Y-106022767D01*
X158312058Y-106011116D01*
X158263133Y-105978839D01*
X158224041Y-105973565D01*
X158170058Y-105993771D01*
X158153975Y-106001367D01*
X158100611Y-106033073D01*
X158066233Y-106074129D01*
X158047560Y-106134932D01*
X158041312Y-106225875D01*
X158043915Y-106350099D01*
X158049046Y-106447619D01*
X158057201Y-106505446D01*
X158072004Y-106534680D01*
X158097078Y-106546425D01*
X158108650Y-106548416D01*
X158153312Y-106563690D01*
X158165800Y-106580166D01*
X158142477Y-106591462D01*
X158080785Y-106599819D01*
X157993132Y-106603696D01*
X157975300Y-106603800D01*
X157879311Y-106600648D01*
X157812407Y-106592116D01*
X157784978Y-106579591D01*
X157784800Y-106578400D01*
X157806536Y-106559306D01*
X157848300Y-106553000D01*
X157911800Y-106553000D01*
X157911800Y-105994200D01*
X157848300Y-105994200D01*
X157795974Y-105987184D01*
X157788631Y-105969437D01*
X157822931Y-105945909D01*
X157895539Y-105921549D01*
X157897647Y-105921015D01*
X157977353Y-105901476D01*
X158019495Y-105896709D01*
X158036009Y-105910083D01*
X158038836Y-105944967D01*
X158038800Y-105960852D01*
X158038800Y-106029104D01*
X158110039Y-105960852D01*
X158198215Y-105907522D01*
X158301469Y-105891026D01*
X158401433Y-105912435D01*
G36*
X153639572Y-106173240D02*
X153709784Y-106176532D01*
X153744487Y-106181235D01*
X153746200Y-106182622D01*
X153738049Y-106226694D01*
X153707724Y-106254192D01*
X153646412Y-106268616D01*
X153545302Y-106273469D01*
X153517260Y-106273600D01*
X153418211Y-106272689D01*
X153360301Y-106268189D01*
X153333879Y-106257448D01*
X153329294Y-106237811D01*
X153332440Y-106222800D01*
X153344336Y-106197165D01*
X153370774Y-106181912D01*
X153422750Y-106174425D01*
X153511257Y-106172087D01*
X153545962Y-106172000D01*
X153639572Y-106173240D01*
X153639572Y-106173240D01*
G37*
X153639572Y-106173240D02*
X153709784Y-106176532D01*
X153744487Y-106181235D01*
X153746200Y-106182622D01*
X153738049Y-106226694D01*
X153707724Y-106254192D01*
X153646412Y-106268616D01*
X153545302Y-106273469D01*
X153517260Y-106273600D01*
X153418211Y-106272689D01*
X153360301Y-106268189D01*
X153333879Y-106257448D01*
X153329294Y-106237811D01*
X153332440Y-106222800D01*
X153344336Y-106197165D01*
X153370774Y-106181912D01*
X153422750Y-106174425D01*
X153511257Y-106172087D01*
X153545962Y-106172000D01*
X153639572Y-106173240D01*
G36*
X150582136Y-105576964D02*
X150617501Y-105623367D01*
X150611242Y-105661319D01*
X150591520Y-105684319D01*
X150540283Y-105710915D01*
X150483921Y-105710646D01*
X150461133Y-105697866D01*
X150443762Y-105649940D01*
X150460094Y-105595193D01*
X150493236Y-105563344D01*
X150544394Y-105552261D01*
X150582136Y-105576964D01*
X150582136Y-105576964D01*
G37*
X150582136Y-105576964D02*
X150617501Y-105623367D01*
X150611242Y-105661319D01*
X150591520Y-105684319D01*
X150540283Y-105710915D01*
X150483921Y-105710646D01*
X150461133Y-105697866D01*
X150443762Y-105649940D01*
X150460094Y-105595193D01*
X150493236Y-105563344D01*
X150544394Y-105552261D01*
X150582136Y-105576964D01*
G36*
X151524740Y-105571396D02*
X151547574Y-105605683D01*
X151546071Y-105657438D01*
X151533728Y-105679919D01*
X151482391Y-105711992D01*
X151429608Y-105703852D01*
X151395298Y-105659585D01*
X151396272Y-105602361D01*
X151429314Y-105564644D01*
X151477708Y-105552350D01*
X151524740Y-105571396D01*
X151524740Y-105571396D01*
G37*
X151524740Y-105571396D02*
X151547574Y-105605683D01*
X151546071Y-105657438D01*
X151533728Y-105679919D01*
X151482391Y-105711992D01*
X151429608Y-105703852D01*
X151395298Y-105659585D01*
X151396272Y-105602361D01*
X151429314Y-105564644D01*
X151477708Y-105552350D01*
X151524740Y-105571396D01*
G36*
X155085282Y-105574010D02*
X155110070Y-105618479D01*
X155106501Y-105659585D01*
X155071280Y-105704372D01*
X155018340Y-105711763D01*
X154968071Y-105679919D01*
X154950571Y-105629789D01*
X154954225Y-105605683D01*
X154990645Y-105561695D01*
X155039902Y-105553110D01*
X155085282Y-105574010D01*
X155085282Y-105574010D01*
G37*
X155085282Y-105574010D02*
X155110070Y-105618479D01*
X155106501Y-105659585D01*
X155071280Y-105704372D01*
X155018340Y-105711763D01*
X154968071Y-105679919D01*
X154950571Y-105629789D01*
X154954225Y-105605683D01*
X154990645Y-105561695D01*
X155039902Y-105553110D01*
X155085282Y-105574010D01*
G36*
X130168195Y-97287486D02*
X130078708Y-97234192D01*
X130010708Y-97154446D01*
X129974816Y-97053200D01*
X129971800Y-97011881D01*
X129995452Y-96890928D01*
X130059410Y-96779513D01*
X130153183Y-96687325D01*
X130266278Y-96624051D01*
X130388202Y-96599381D01*
X130417576Y-96600277D01*
X130532518Y-96609419D01*
X130525209Y-96418660D01*
X130520237Y-96320978D01*
X130512215Y-96263006D01*
X130497549Y-96233656D01*
X130472646Y-96221842D01*
X130460750Y-96219784D01*
X130416088Y-96204510D01*
X130403600Y-96188034D01*
X130426923Y-96176738D01*
X130488615Y-96168381D01*
X130576268Y-96164504D01*
X130594100Y-96164400D01*
X130685159Y-96166773D01*
X130752519Y-96173049D01*
X130783768Y-96181965D01*
X130784600Y-96183777D01*
X130764171Y-96207559D01*
X130727450Y-96228227D01*
X130707378Y-96238559D01*
X130692659Y-96254143D01*
X130682463Y-96282168D01*
X130675960Y-96329823D01*
X130672321Y-96404298D01*
X130670714Y-96512781D01*
X130670311Y-96662462D01*
X130670300Y-96723200D01*
X130670452Y-96888191D01*
X130670833Y-96934110D01*
X130530600Y-96934110D01*
X130528108Y-96828556D01*
X130519102Y-96761945D01*
X130501288Y-96722593D01*
X130486150Y-96707758D01*
X130415980Y-96680089D01*
X130325639Y-96675507D01*
X130240076Y-96693759D01*
X130207996Y-96710579D01*
X130145191Y-96783020D01*
X130112305Y-96881171D01*
X130110374Y-96988950D01*
X130140437Y-97090275D01*
X130179819Y-97147429D01*
X130253865Y-97192748D01*
X130347623Y-97205736D01*
X130440576Y-97185079D01*
X130474149Y-97166260D01*
X130503369Y-97140033D01*
X130520405Y-97103619D01*
X130528422Y-97044001D01*
X130530584Y-96948163D01*
X130530600Y-96934110D01*
X130670833Y-96934110D01*
X130671458Y-97009318D01*
X130674148Y-97093521D01*
X130679353Y-97147735D01*
X130687900Y-97178898D01*
X130700621Y-97193948D01*
X130718343Y-97199822D01*
X130727450Y-97201217D01*
X130776142Y-97215735D01*
X130776896Y-97236566D01*
X130731746Y-97260874D01*
X130671753Y-97278985D01*
X130592047Y-97298524D01*
X130549905Y-97303291D01*
X130533391Y-97289917D01*
X130530564Y-97255033D01*
X130530600Y-97239148D01*
X130530600Y-97170896D01*
X130459361Y-97239148D01*
X130369143Y-97294915D01*
X130268548Y-97309377D01*
X130168195Y-97287486D01*
X130168195Y-97287486D01*
G37*
X130168195Y-97287486D02*
X130078708Y-97234192D01*
X130010708Y-97154446D01*
X129974816Y-97053200D01*
X129971800Y-97011881D01*
X129995452Y-96890928D01*
X130059410Y-96779513D01*
X130153183Y-96687325D01*
X130266278Y-96624051D01*
X130388202Y-96599381D01*
X130417576Y-96600277D01*
X130532518Y-96609419D01*
X130525209Y-96418660D01*
X130520237Y-96320978D01*
X130512215Y-96263006D01*
X130497549Y-96233656D01*
X130472646Y-96221842D01*
X130460750Y-96219784D01*
X130416088Y-96204510D01*
X130403600Y-96188034D01*
X130426923Y-96176738D01*
X130488615Y-96168381D01*
X130576268Y-96164504D01*
X130594100Y-96164400D01*
X130685159Y-96166773D01*
X130752519Y-96173049D01*
X130783768Y-96181965D01*
X130784600Y-96183777D01*
X130764171Y-96207559D01*
X130727450Y-96228227D01*
X130707378Y-96238559D01*
X130692659Y-96254143D01*
X130682463Y-96282168D01*
X130675960Y-96329823D01*
X130672321Y-96404298D01*
X130670714Y-96512781D01*
X130670311Y-96662462D01*
X130670300Y-96723200D01*
X130670452Y-96888191D01*
X130670833Y-96934110D01*
X130530600Y-96934110D01*
X130528108Y-96828556D01*
X130519102Y-96761945D01*
X130501288Y-96722593D01*
X130486150Y-96707758D01*
X130415980Y-96680089D01*
X130325639Y-96675507D01*
X130240076Y-96693759D01*
X130207996Y-96710579D01*
X130145191Y-96783020D01*
X130112305Y-96881171D01*
X130110374Y-96988950D01*
X130140437Y-97090275D01*
X130179819Y-97147429D01*
X130253865Y-97192748D01*
X130347623Y-97205736D01*
X130440576Y-97185079D01*
X130474149Y-97166260D01*
X130503369Y-97140033D01*
X130520405Y-97103619D01*
X130528422Y-97044001D01*
X130530584Y-96948163D01*
X130530600Y-96934110D01*
X130670833Y-96934110D01*
X130671458Y-97009318D01*
X130674148Y-97093521D01*
X130679353Y-97147735D01*
X130687900Y-97178898D01*
X130700621Y-97193948D01*
X130718343Y-97199822D01*
X130727450Y-97201217D01*
X130776142Y-97215735D01*
X130776896Y-97236566D01*
X130731746Y-97260874D01*
X130671753Y-97278985D01*
X130592047Y-97298524D01*
X130549905Y-97303291D01*
X130533391Y-97289917D01*
X130530564Y-97255033D01*
X130530600Y-97239148D01*
X130530600Y-97170896D01*
X130459361Y-97239148D01*
X130369143Y-97294915D01*
X130268548Y-97309377D01*
X130168195Y-97287486D01*
G36*
X131889318Y-97678155D02*
X131799010Y-97660107D01*
X131722721Y-97636186D01*
X131673957Y-97610367D01*
X131663441Y-97593150D01*
X131666211Y-97547311D01*
X131669526Y-97478605D01*
X131669791Y-97472500D01*
X131680616Y-97409390D01*
X131699703Y-97385163D01*
X131717467Y-97402558D01*
X131724400Y-97456906D01*
X131735165Y-97513304D01*
X131776283Y-97552942D01*
X131810789Y-97571206D01*
X131945600Y-97610162D01*
X132083642Y-97606664D01*
X132213077Y-97564159D01*
X132322063Y-97486098D01*
X132384488Y-97404127D01*
X132415264Y-97339612D01*
X132430778Y-97273868D01*
X132434148Y-97188022D01*
X132431640Y-97119011D01*
X132423040Y-97012435D01*
X132406733Y-96938289D01*
X132377427Y-96878264D01*
X132351445Y-96841464D01*
X132287938Y-96772624D01*
X132217315Y-96715933D01*
X132199337Y-96705188D01*
X132102826Y-96673929D01*
X131981381Y-96662004D01*
X131857029Y-96669382D01*
X131751802Y-96696031D01*
X131730750Y-96705867D01*
X131671775Y-96729222D01*
X131649023Y-96721051D01*
X131666433Y-96685276D01*
X131687158Y-96662472D01*
X131757439Y-96619916D01*
X131861268Y-96589891D01*
X131982469Y-96574511D01*
X132104869Y-96575889D01*
X132207165Y-96594533D01*
X132364835Y-96665919D01*
X132486041Y-96769980D01*
X132567797Y-96901182D01*
X132607118Y-97053992D01*
X132601017Y-97222878D01*
X132584935Y-97294617D01*
X132526998Y-97414455D01*
X132429397Y-97520453D01*
X132302791Y-97605704D01*
X132157840Y-97663305D01*
X132005205Y-97686351D01*
X131980140Y-97686356D01*
X131889318Y-97678155D01*
X131889318Y-97678155D01*
G37*
X131889318Y-97678155D02*
X131799010Y-97660107D01*
X131722721Y-97636186D01*
X131673957Y-97610367D01*
X131663441Y-97593150D01*
X131666211Y-97547311D01*
X131669526Y-97478605D01*
X131669791Y-97472500D01*
X131680616Y-97409390D01*
X131699703Y-97385163D01*
X131717467Y-97402558D01*
X131724400Y-97456906D01*
X131735165Y-97513304D01*
X131776283Y-97552942D01*
X131810789Y-97571206D01*
X131945600Y-97610162D01*
X132083642Y-97606664D01*
X132213077Y-97564159D01*
X132322063Y-97486098D01*
X132384488Y-97404127D01*
X132415264Y-97339612D01*
X132430778Y-97273868D01*
X132434148Y-97188022D01*
X132431640Y-97119011D01*
X132423040Y-97012435D01*
X132406733Y-96938289D01*
X132377427Y-96878264D01*
X132351445Y-96841464D01*
X132287938Y-96772624D01*
X132217315Y-96715933D01*
X132199337Y-96705188D01*
X132102826Y-96673929D01*
X131981381Y-96662004D01*
X131857029Y-96669382D01*
X131751802Y-96696031D01*
X131730750Y-96705867D01*
X131671775Y-96729222D01*
X131649023Y-96721051D01*
X131666433Y-96685276D01*
X131687158Y-96662472D01*
X131757439Y-96619916D01*
X131861268Y-96589891D01*
X131982469Y-96574511D01*
X132104869Y-96575889D01*
X132207165Y-96594533D01*
X132364835Y-96665919D01*
X132486041Y-96769980D01*
X132567797Y-96901182D01*
X132607118Y-97053992D01*
X132601017Y-97222878D01*
X132584935Y-97294617D01*
X132526998Y-97414455D01*
X132429397Y-97520453D01*
X132302791Y-97605704D01*
X132157840Y-97663305D01*
X132005205Y-97686351D01*
X131980140Y-97686356D01*
X131889318Y-97678155D01*
G36*
X131100785Y-97300922D02*
X131048156Y-97275639D01*
X131015044Y-97240475D01*
X130990222Y-97202108D01*
X130974554Y-97155395D01*
X130966053Y-97088276D01*
X130962736Y-96988692D01*
X130962400Y-96920597D01*
X130961571Y-96804585D01*
X130957845Y-96729648D01*
X130949370Y-96686072D01*
X130934293Y-96664141D01*
X130911600Y-96654360D01*
X130866118Y-96634740D01*
X130866318Y-96615496D01*
X130907253Y-96601161D01*
X130975100Y-96596200D01*
X131046529Y-96599524D01*
X131080305Y-96613326D01*
X131089357Y-96643351D01*
X131089400Y-96647000D01*
X131092728Y-96683765D01*
X131109145Y-96693566D01*
X131148303Y-96675393D01*
X131210944Y-96634300D01*
X131279220Y-96591377D01*
X131327514Y-96575606D01*
X131376101Y-96583154D01*
X131411590Y-96596378D01*
X131479340Y-96648754D01*
X131512167Y-96731490D01*
X131509816Y-96813927D01*
X131385008Y-96813927D01*
X131381393Y-96775091D01*
X131358436Y-96735900D01*
X131303819Y-96683490D01*
X131238289Y-96679271D01*
X131158837Y-96723083D01*
X131156326Y-96725044D01*
X131108128Y-96777838D01*
X131090369Y-96846877D01*
X131089400Y-96877444D01*
X131093989Y-96943433D01*
X131112053Y-96972193D01*
X131138547Y-96977200D01*
X131242511Y-96955596D01*
X131329919Y-96897930D01*
X131357693Y-96864034D01*
X131385008Y-96813927D01*
X131509816Y-96813927D01*
X131509812Y-96814045D01*
X131482012Y-96888464D01*
X131425592Y-96943122D01*
X131332511Y-96983708D01*
X131235801Y-97007926D01*
X131152022Y-97028082D01*
X131107429Y-97048638D01*
X131090775Y-97076101D01*
X131089400Y-97092646D01*
X131110323Y-97162933D01*
X131163748Y-97209616D01*
X131235658Y-97229503D01*
X131312039Y-97219406D01*
X131378875Y-97176135D01*
X131391277Y-97161350D01*
X131443391Y-97091500D01*
X131444196Y-97160698D01*
X131421698Y-97226655D01*
X131356909Y-97275194D01*
X131256452Y-97302619D01*
X131181405Y-97307400D01*
X131100785Y-97300922D01*
X131100785Y-97300922D01*
G37*
X131100785Y-97300922D02*
X131048156Y-97275639D01*
X131015044Y-97240475D01*
X130990222Y-97202108D01*
X130974554Y-97155395D01*
X130966053Y-97088276D01*
X130962736Y-96988692D01*
X130962400Y-96920597D01*
X130961571Y-96804585D01*
X130957845Y-96729648D01*
X130949370Y-96686072D01*
X130934293Y-96664141D01*
X130911600Y-96654360D01*
X130866118Y-96634740D01*
X130866318Y-96615496D01*
X130907253Y-96601161D01*
X130975100Y-96596200D01*
X131046529Y-96599524D01*
X131080305Y-96613326D01*
X131089357Y-96643351D01*
X131089400Y-96647000D01*
X131092728Y-96683765D01*
X131109145Y-96693566D01*
X131148303Y-96675393D01*
X131210944Y-96634300D01*
X131279220Y-96591377D01*
X131327514Y-96575606D01*
X131376101Y-96583154D01*
X131411590Y-96596378D01*
X131479340Y-96648754D01*
X131512167Y-96731490D01*
X131509816Y-96813927D01*
X131385008Y-96813927D01*
X131381393Y-96775091D01*
X131358436Y-96735900D01*
X131303819Y-96683490D01*
X131238289Y-96679271D01*
X131158837Y-96723083D01*
X131156326Y-96725044D01*
X131108128Y-96777838D01*
X131090369Y-96846877D01*
X131089400Y-96877444D01*
X131093989Y-96943433D01*
X131112053Y-96972193D01*
X131138547Y-96977200D01*
X131242511Y-96955596D01*
X131329919Y-96897930D01*
X131357693Y-96864034D01*
X131385008Y-96813927D01*
X131509816Y-96813927D01*
X131509812Y-96814045D01*
X131482012Y-96888464D01*
X131425592Y-96943122D01*
X131332511Y-96983708D01*
X131235801Y-97007926D01*
X131152022Y-97028082D01*
X131107429Y-97048638D01*
X131090775Y-97076101D01*
X131089400Y-97092646D01*
X131110323Y-97162933D01*
X131163748Y-97209616D01*
X131235658Y-97229503D01*
X131312039Y-97219406D01*
X131378875Y-97176135D01*
X131391277Y-97161350D01*
X131443391Y-97091500D01*
X131444196Y-97160698D01*
X131421698Y-97226655D01*
X131356909Y-97275194D01*
X131256452Y-97302619D01*
X131181405Y-97307400D01*
X131100785Y-97300922D01*
G36*
X129423592Y-97300179D02*
X129362409Y-97275757D01*
X129322021Y-97226799D01*
X129298487Y-97146356D01*
X129287866Y-97027479D01*
X129286000Y-96912992D01*
X129285120Y-96799006D01*
X129281185Y-96725934D01*
X129272256Y-96683903D01*
X129256395Y-96663040D01*
X129235200Y-96654360D01*
X129189718Y-96634740D01*
X129189918Y-96615496D01*
X129230853Y-96601161D01*
X129298700Y-96596200D01*
X129370129Y-96599524D01*
X129403905Y-96613326D01*
X129412957Y-96643351D01*
X129413000Y-96647000D01*
X129415429Y-96683131D01*
X129429471Y-96693429D01*
X129465262Y-96676792D01*
X129529717Y-96634300D01*
X129599568Y-96590923D01*
X129650283Y-96575454D01*
X129702501Y-96584194D01*
X129737220Y-96597129D01*
X129793796Y-96644000D01*
X129829827Y-96719325D01*
X129835994Y-96800544D01*
X129692400Y-96800544D01*
X129675289Y-96721339D01*
X129628685Y-96680340D01*
X129559680Y-96680509D01*
X129488502Y-96715378D01*
X129425588Y-96765506D01*
X129396202Y-96816608D01*
X129388115Y-96891719D01*
X129387989Y-96904651D01*
X129387600Y-96997201D01*
X129495175Y-96973030D01*
X129606525Y-96933897D01*
X129671709Y-96876188D01*
X129692400Y-96800544D01*
X129835994Y-96800544D01*
X129836108Y-96802037D01*
X129833202Y-96816756D01*
X129786177Y-96901589D01*
X129693369Y-96965775D01*
X129560620Y-97007674D01*
X129476435Y-97027869D01*
X129431462Y-97048337D01*
X129414492Y-97075530D01*
X129413000Y-97092646D01*
X129433923Y-97162933D01*
X129487348Y-97209616D01*
X129559258Y-97229503D01*
X129635639Y-97219406D01*
X129702475Y-97176135D01*
X129714877Y-97161350D01*
X129766991Y-97091500D01*
X129767796Y-97160698D01*
X129745305Y-97226493D01*
X129680954Y-97275124D01*
X129581976Y-97302495D01*
X129509512Y-97307012D01*
X129423592Y-97300179D01*
X129423592Y-97300179D01*
G37*
X129423592Y-97300179D02*
X129362409Y-97275757D01*
X129322021Y-97226799D01*
X129298487Y-97146356D01*
X129287866Y-97027479D01*
X129286000Y-96912992D01*
X129285120Y-96799006D01*
X129281185Y-96725934D01*
X129272256Y-96683903D01*
X129256395Y-96663040D01*
X129235200Y-96654360D01*
X129189718Y-96634740D01*
X129189918Y-96615496D01*
X129230853Y-96601161D01*
X129298700Y-96596200D01*
X129370129Y-96599524D01*
X129403905Y-96613326D01*
X129412957Y-96643351D01*
X129413000Y-96647000D01*
X129415429Y-96683131D01*
X129429471Y-96693429D01*
X129465262Y-96676792D01*
X129529717Y-96634300D01*
X129599568Y-96590923D01*
X129650283Y-96575454D01*
X129702501Y-96584194D01*
X129737220Y-96597129D01*
X129793796Y-96644000D01*
X129829827Y-96719325D01*
X129835994Y-96800544D01*
X129692400Y-96800544D01*
X129675289Y-96721339D01*
X129628685Y-96680340D01*
X129559680Y-96680509D01*
X129488502Y-96715378D01*
X129425588Y-96765506D01*
X129396202Y-96816608D01*
X129388115Y-96891719D01*
X129387989Y-96904651D01*
X129387600Y-96997201D01*
X129495175Y-96973030D01*
X129606525Y-96933897D01*
X129671709Y-96876188D01*
X129692400Y-96800544D01*
X129835994Y-96800544D01*
X129836108Y-96802037D01*
X129833202Y-96816756D01*
X129786177Y-96901589D01*
X129693369Y-96965775D01*
X129560620Y-97007674D01*
X129476435Y-97027869D01*
X129431462Y-97048337D01*
X129414492Y-97075530D01*
X129413000Y-97092646D01*
X129433923Y-97162933D01*
X129487348Y-97209616D01*
X129559258Y-97229503D01*
X129635639Y-97219406D01*
X129702475Y-97176135D01*
X129714877Y-97161350D01*
X129766991Y-97091500D01*
X129767796Y-97160698D01*
X129745305Y-97226493D01*
X129680954Y-97275124D01*
X129581976Y-97302495D01*
X129509512Y-97307012D01*
X129423592Y-97300179D01*
G36*
X128577485Y-97294651D02*
X128552629Y-97283728D01*
X128522218Y-97250462D01*
X128517120Y-97188488D01*
X128518978Y-97169428D01*
X128532904Y-97109538D01*
X128552204Y-97080269D01*
X128568813Y-97087507D01*
X128574800Y-97128707D01*
X128597782Y-97182504D01*
X128659139Y-97218992D01*
X128739900Y-97231200D01*
X128835147Y-97213473D01*
X128899740Y-97157062D01*
X128930510Y-97091169D01*
X128949816Y-96972276D01*
X128932708Y-96861191D01*
X128885557Y-96765997D01*
X128814735Y-96694781D01*
X128726613Y-96655628D01*
X128627564Y-96656623D01*
X128595721Y-96666316D01*
X128544557Y-96681016D01*
X128525490Y-96670066D01*
X128524000Y-96656865D01*
X128546627Y-96616248D01*
X128605930Y-96588539D01*
X128689048Y-96575404D01*
X128783118Y-96578505D01*
X128875277Y-96599508D01*
X128898150Y-96608458D01*
X128990303Y-96674292D01*
X129051948Y-96771983D01*
X129079644Y-96890401D01*
X129069949Y-97018414D01*
X129047009Y-97089893D01*
X128988520Y-97173433D01*
X128897570Y-97241464D01*
X128788911Y-97288200D01*
X128677298Y-97307857D01*
X128577485Y-97294651D01*
X128577485Y-97294651D01*
G37*
X128577485Y-97294651D02*
X128552629Y-97283728D01*
X128522218Y-97250462D01*
X128517120Y-97188488D01*
X128518978Y-97169428D01*
X128532904Y-97109538D01*
X128552204Y-97080269D01*
X128568813Y-97087507D01*
X128574800Y-97128707D01*
X128597782Y-97182504D01*
X128659139Y-97218992D01*
X128739900Y-97231200D01*
X128835147Y-97213473D01*
X128899740Y-97157062D01*
X128930510Y-97091169D01*
X128949816Y-96972276D01*
X128932708Y-96861191D01*
X128885557Y-96765997D01*
X128814735Y-96694781D01*
X128726613Y-96655628D01*
X128627564Y-96656623D01*
X128595721Y-96666316D01*
X128544557Y-96681016D01*
X128525490Y-96670066D01*
X128524000Y-96656865D01*
X128546627Y-96616248D01*
X128605930Y-96588539D01*
X128689048Y-96575404D01*
X128783118Y-96578505D01*
X128875277Y-96599508D01*
X128898150Y-96608458D01*
X128990303Y-96674292D01*
X129051948Y-96771983D01*
X129079644Y-96890401D01*
X129069949Y-97018414D01*
X129047009Y-97089893D01*
X128988520Y-97173433D01*
X128897570Y-97241464D01*
X128788911Y-97288200D01*
X128677298Y-97307857D01*
X128577485Y-97294651D01*
G36*
X125696624Y-97297703D02*
X125652394Y-97281248D01*
X125597076Y-97229550D01*
X125551574Y-97149706D01*
X125527900Y-97064320D01*
X125526800Y-97044924D01*
X125534615Y-97004802D01*
X125563248Y-96977883D01*
X125620484Y-96961749D01*
X125714111Y-96953979D01*
X125825250Y-96952147D01*
X125920592Y-96950732D01*
X125975879Y-96944900D01*
X126001842Y-96931598D01*
X126009208Y-96907772D01*
X126009400Y-96899739D01*
X125986982Y-96799778D01*
X125927558Y-96721258D01*
X125842876Y-96671344D01*
X125744683Y-96657199D01*
X125652383Y-96682001D01*
X125584712Y-96709593D01*
X125555066Y-96706424D01*
X125564751Y-96672653D01*
X125565458Y-96671499D01*
X125609485Y-96634991D01*
X125684688Y-96601331D01*
X125771627Y-96577717D01*
X125837135Y-96570895D01*
X125916256Y-96584680D01*
X125997588Y-96618151D01*
X126004579Y-96622252D01*
X126089940Y-96701574D01*
X126142166Y-96806967D01*
X126161289Y-96926023D01*
X126147341Y-97046335D01*
X126135428Y-97074011D01*
X126009400Y-97074011D01*
X126009400Y-97002600D01*
X125655071Y-97002600D01*
X125670622Y-97085150D01*
X125706685Y-97184643D01*
X125768373Y-97242204D01*
X125834548Y-97256600D01*
X125914099Y-97233696D01*
X125976634Y-97174796D01*
X126008055Y-97094621D01*
X126009400Y-97074011D01*
X126135428Y-97074011D01*
X126100353Y-97155495D01*
X126020357Y-97241095D01*
X126002967Y-97252728D01*
X125907727Y-97291562D01*
X125798184Y-97307158D01*
X125696624Y-97297703D01*
X125696624Y-97297703D01*
G37*
X125696624Y-97297703D02*
X125652394Y-97281248D01*
X125597076Y-97229550D01*
X125551574Y-97149706D01*
X125527900Y-97064320D01*
X125526800Y-97044924D01*
X125534615Y-97004802D01*
X125563248Y-96977883D01*
X125620484Y-96961749D01*
X125714111Y-96953979D01*
X125825250Y-96952147D01*
X125920592Y-96950732D01*
X125975879Y-96944900D01*
X126001842Y-96931598D01*
X126009208Y-96907772D01*
X126009400Y-96899739D01*
X125986982Y-96799778D01*
X125927558Y-96721258D01*
X125842876Y-96671344D01*
X125744683Y-96657199D01*
X125652383Y-96682001D01*
X125584712Y-96709593D01*
X125555066Y-96706424D01*
X125564751Y-96672653D01*
X125565458Y-96671499D01*
X125609485Y-96634991D01*
X125684688Y-96601331D01*
X125771627Y-96577717D01*
X125837135Y-96570895D01*
X125916256Y-96584680D01*
X125997588Y-96618151D01*
X126004579Y-96622252D01*
X126089940Y-96701574D01*
X126142166Y-96806967D01*
X126161289Y-96926023D01*
X126147341Y-97046335D01*
X126135428Y-97074011D01*
X126009400Y-97074011D01*
X126009400Y-97002600D01*
X125655071Y-97002600D01*
X125670622Y-97085150D01*
X125706685Y-97184643D01*
X125768373Y-97242204D01*
X125834548Y-97256600D01*
X125914099Y-97233696D01*
X125976634Y-97174796D01*
X126008055Y-97094621D01*
X126009400Y-97074011D01*
X126135428Y-97074011D01*
X126100353Y-97155495D01*
X126020357Y-97241095D01*
X126002967Y-97252728D01*
X125907727Y-97291562D01*
X125798184Y-97307158D01*
X125696624Y-97297703D01*
G36*
X121262150Y-97287911D02*
X121156423Y-97230558D01*
X121085823Y-97137010D01*
X121051964Y-97008939D01*
X121049113Y-96942683D01*
X121073568Y-96810160D01*
X121139605Y-96701934D01*
X121241442Y-96623944D01*
X121373294Y-96582127D01*
X121403758Y-96578540D01*
X121502963Y-96578981D01*
X121581659Y-96604297D01*
X121610379Y-96620743D01*
X121699457Y-96704730D01*
X121751106Y-96816296D01*
X121763152Y-96946448D01*
X121754906Y-96985214D01*
X121615200Y-96985214D01*
X121600910Y-96858863D01*
X121562155Y-96754268D01*
X121505111Y-96676754D01*
X121435956Y-96631649D01*
X121360864Y-96624279D01*
X121286011Y-96659970D01*
X121263022Y-96681458D01*
X121208766Y-96768829D01*
X121185577Y-96872819D01*
X121190351Y-96982415D01*
X121219985Y-97086604D01*
X121271374Y-97174372D01*
X121341414Y-97234705D01*
X121425115Y-97256600D01*
X121514562Y-97235213D01*
X121576359Y-97172015D01*
X121609494Y-97068452D01*
X121615200Y-96985214D01*
X121754906Y-96985214D01*
X121733424Y-97086192D01*
X121726938Y-97103199D01*
X121659593Y-97208977D01*
X121559106Y-97277634D01*
X121429577Y-97306597D01*
X121401391Y-97307400D01*
X121262150Y-97287911D01*
X121262150Y-97287911D01*
G37*
X121262150Y-97287911D02*
X121156423Y-97230558D01*
X121085823Y-97137010D01*
X121051964Y-97008939D01*
X121049113Y-96942683D01*
X121073568Y-96810160D01*
X121139605Y-96701934D01*
X121241442Y-96623944D01*
X121373294Y-96582127D01*
X121403758Y-96578540D01*
X121502963Y-96578981D01*
X121581659Y-96604297D01*
X121610379Y-96620743D01*
X121699457Y-96704730D01*
X121751106Y-96816296D01*
X121763152Y-96946448D01*
X121754906Y-96985214D01*
X121615200Y-96985214D01*
X121600910Y-96858863D01*
X121562155Y-96754268D01*
X121505111Y-96676754D01*
X121435956Y-96631649D01*
X121360864Y-96624279D01*
X121286011Y-96659970D01*
X121263022Y-96681458D01*
X121208766Y-96768829D01*
X121185577Y-96872819D01*
X121190351Y-96982415D01*
X121219985Y-97086604D01*
X121271374Y-97174372D01*
X121341414Y-97234705D01*
X121425115Y-97256600D01*
X121514562Y-97235213D01*
X121576359Y-97172015D01*
X121609494Y-97068452D01*
X121615200Y-96985214D01*
X121754906Y-96985214D01*
X121733424Y-97086192D01*
X121726938Y-97103199D01*
X121659593Y-97208977D01*
X121559106Y-97277634D01*
X121429577Y-97306597D01*
X121401391Y-97307400D01*
X121262150Y-97287911D01*
G36*
X128187276Y-97296130D02*
X128176907Y-97271941D01*
X128170525Y-97221506D01*
X128166541Y-97137058D01*
X128163367Y-97010828D01*
X128162830Y-96986309D01*
X128159529Y-96852425D01*
X128155448Y-96760957D01*
X128148977Y-96703525D01*
X128138507Y-96671752D01*
X128122430Y-96657259D01*
X128099136Y-96651667D01*
X128098550Y-96651584D01*
X128053888Y-96636310D01*
X128041400Y-96619834D01*
X128064723Y-96608538D01*
X128126415Y-96600181D01*
X128214068Y-96596304D01*
X128231900Y-96596200D01*
X128322954Y-96599094D01*
X128390313Y-96606747D01*
X128421567Y-96617622D01*
X128422400Y-96619834D01*
X128400804Y-96641371D01*
X128365250Y-96651584D01*
X128339951Y-96657853D01*
X128323128Y-96674203D01*
X128312677Y-96709834D01*
X128306491Y-96773944D01*
X128302466Y-96875732D01*
X128300891Y-96932750D01*
X128293682Y-97205800D01*
X128358041Y-97205800D01*
X128410656Y-97214705D01*
X128417848Y-97235165D01*
X128380480Y-97257799D01*
X128352550Y-97265514D01*
X128277513Y-97283301D01*
X128226330Y-97296848D01*
X128203221Y-97301843D01*
X128187276Y-97296130D01*
X128187276Y-97296130D01*
G37*
X128187276Y-97296130D02*
X128176907Y-97271941D01*
X128170525Y-97221506D01*
X128166541Y-97137058D01*
X128163367Y-97010828D01*
X128162830Y-96986309D01*
X128159529Y-96852425D01*
X128155448Y-96760957D01*
X128148977Y-96703525D01*
X128138507Y-96671752D01*
X128122430Y-96657259D01*
X128099136Y-96651667D01*
X128098550Y-96651584D01*
X128053888Y-96636310D01*
X128041400Y-96619834D01*
X128064723Y-96608538D01*
X128126415Y-96600181D01*
X128214068Y-96596304D01*
X128231900Y-96596200D01*
X128322954Y-96599094D01*
X128390313Y-96606747D01*
X128421567Y-96617622D01*
X128422400Y-96619834D01*
X128400804Y-96641371D01*
X128365250Y-96651584D01*
X128339951Y-96657853D01*
X128323128Y-96674203D01*
X128312677Y-96709834D01*
X128306491Y-96773944D01*
X128302466Y-96875732D01*
X128300891Y-96932750D01*
X128293682Y-97205800D01*
X128358041Y-97205800D01*
X128410656Y-97214705D01*
X128417848Y-97235165D01*
X128380480Y-97257799D01*
X128352550Y-97265514D01*
X128277513Y-97283301D01*
X128226330Y-97296848D01*
X128203221Y-97301843D01*
X128187276Y-97296130D01*
G36*
X127729585Y-97526177D02*
X127720582Y-97481633D01*
X127727176Y-97396300D01*
X127743595Y-97256600D01*
X127638498Y-97256600D01*
X127566543Y-97250721D01*
X127535930Y-97231074D01*
X127533400Y-97218500D01*
X127550177Y-97192008D01*
X127605791Y-97181092D01*
X127635000Y-97180400D01*
X127736600Y-97180400D01*
X127736600Y-96966315D01*
X127732358Y-96837380D01*
X127717370Y-96752283D01*
X127688249Y-96704598D01*
X127641607Y-96687898D01*
X127591984Y-96692044D01*
X127543074Y-96699238D01*
X127538414Y-96687414D01*
X127569087Y-96650696D01*
X127634903Y-96607254D01*
X127715766Y-96596200D01*
X127784278Y-96602163D01*
X127821249Y-96626585D01*
X127838829Y-96661354D01*
X127850104Y-96716038D01*
X127858693Y-96805349D01*
X127863225Y-96913130D01*
X127863600Y-96953454D01*
X127864461Y-97061597D01*
X127868490Y-97128652D01*
X127877860Y-97164320D01*
X127894742Y-97178304D01*
X127914400Y-97180400D01*
X127955693Y-97189808D01*
X127965200Y-97202838D01*
X127944062Y-97226553D01*
X127914400Y-97238560D01*
X127882053Y-97256755D01*
X127866989Y-97298377D01*
X127863600Y-97367629D01*
X127857521Y-97448252D01*
X127835918Y-97493756D01*
X127814470Y-97509707D01*
X127759286Y-97533463D01*
X127729585Y-97526177D01*
X127729585Y-97526177D01*
G37*
X127729585Y-97526177D02*
X127720582Y-97481633D01*
X127727176Y-97396300D01*
X127743595Y-97256600D01*
X127638498Y-97256600D01*
X127566543Y-97250721D01*
X127535930Y-97231074D01*
X127533400Y-97218500D01*
X127550177Y-97192008D01*
X127605791Y-97181092D01*
X127635000Y-97180400D01*
X127736600Y-97180400D01*
X127736600Y-96966315D01*
X127732358Y-96837380D01*
X127717370Y-96752283D01*
X127688249Y-96704598D01*
X127641607Y-96687898D01*
X127591984Y-96692044D01*
X127543074Y-96699238D01*
X127538414Y-96687414D01*
X127569087Y-96650696D01*
X127634903Y-96607254D01*
X127715766Y-96596200D01*
X127784278Y-96602163D01*
X127821249Y-96626585D01*
X127838829Y-96661354D01*
X127850104Y-96716038D01*
X127858693Y-96805349D01*
X127863225Y-96913130D01*
X127863600Y-96953454D01*
X127864461Y-97061597D01*
X127868490Y-97128652D01*
X127877860Y-97164320D01*
X127894742Y-97178304D01*
X127914400Y-97180400D01*
X127955693Y-97189808D01*
X127965200Y-97202838D01*
X127944062Y-97226553D01*
X127914400Y-97238560D01*
X127882053Y-97256755D01*
X127866989Y-97298377D01*
X127863600Y-97367629D01*
X127857521Y-97448252D01*
X127835918Y-97493756D01*
X127814470Y-97509707D01*
X127759286Y-97533463D01*
X127729585Y-97526177D01*
G36*
X127247476Y-97296130D02*
X127237107Y-97271941D01*
X127230725Y-97221506D01*
X127226741Y-97137058D01*
X127223567Y-97010828D01*
X127223030Y-96986309D01*
X127219729Y-96852425D01*
X127215648Y-96760957D01*
X127209177Y-96703525D01*
X127198707Y-96671752D01*
X127182630Y-96657259D01*
X127159336Y-96651667D01*
X127158750Y-96651584D01*
X127114088Y-96636310D01*
X127101600Y-96619834D01*
X127124923Y-96608538D01*
X127186615Y-96600181D01*
X127274268Y-96596304D01*
X127292100Y-96596200D01*
X127388089Y-96599352D01*
X127454993Y-96607884D01*
X127482422Y-96620409D01*
X127482600Y-96621600D01*
X127460864Y-96640694D01*
X127419100Y-96647000D01*
X127355600Y-96647000D01*
X127355600Y-97205800D01*
X127419100Y-97205800D01*
X127471164Y-97214726D01*
X127477971Y-97235216D01*
X127440526Y-97257840D01*
X127412750Y-97265514D01*
X127337713Y-97283301D01*
X127286530Y-97296848D01*
X127263421Y-97301843D01*
X127247476Y-97296130D01*
X127247476Y-97296130D01*
G37*
X127247476Y-97296130D02*
X127237107Y-97271941D01*
X127230725Y-97221506D01*
X127226741Y-97137058D01*
X127223567Y-97010828D01*
X127223030Y-96986309D01*
X127219729Y-96852425D01*
X127215648Y-96760957D01*
X127209177Y-96703525D01*
X127198707Y-96671752D01*
X127182630Y-96657259D01*
X127159336Y-96651667D01*
X127158750Y-96651584D01*
X127114088Y-96636310D01*
X127101600Y-96619834D01*
X127124923Y-96608538D01*
X127186615Y-96600181D01*
X127274268Y-96596304D01*
X127292100Y-96596200D01*
X127388089Y-96599352D01*
X127454993Y-96607884D01*
X127482422Y-96620409D01*
X127482600Y-96621600D01*
X127460864Y-96640694D01*
X127419100Y-96647000D01*
X127355600Y-96647000D01*
X127355600Y-97205800D01*
X127419100Y-97205800D01*
X127471164Y-97214726D01*
X127477971Y-97235216D01*
X127440526Y-97257840D01*
X127412750Y-97265514D01*
X127337713Y-97283301D01*
X127286530Y-97296848D01*
X127263421Y-97301843D01*
X127247476Y-97296130D01*
G36*
X126312423Y-97303284D02*
X126270180Y-97290085D01*
X126274609Y-97266526D01*
X126309812Y-97239836D01*
X126335165Y-97207915D01*
X126374843Y-97139845D01*
X126423611Y-97046361D01*
X126476228Y-96938194D01*
X126527459Y-96826080D01*
X126572065Y-96720750D01*
X126602209Y-96640650D01*
X126632581Y-96601160D01*
X126674230Y-96604305D01*
X126716399Y-96646952D01*
X126732915Y-96678750D01*
X126757885Y-96737696D01*
X126796317Y-96828714D01*
X126841984Y-96937050D01*
X126869582Y-97002600D01*
X126918642Y-97111022D01*
X126963036Y-97194070D01*
X126997790Y-97242965D01*
X127010964Y-97252113D01*
X127045938Y-97271626D01*
X127050800Y-97283863D01*
X127027552Y-97295464D01*
X126966371Y-97303870D01*
X126880100Y-97307382D01*
X126873000Y-97307400D01*
X126781793Y-97304044D01*
X126718770Y-97295049D01*
X126695201Y-97282025D01*
X126695200Y-97282000D01*
X126716407Y-97261159D01*
X126744501Y-97256600D01*
X126790942Y-97247981D01*
X126805383Y-97237550D01*
X126801390Y-97207383D01*
X126781387Y-97141209D01*
X126748905Y-97049914D01*
X126721407Y-96978821D01*
X126677636Y-96870212D01*
X126645517Y-96803451D01*
X126619315Y-96779551D01*
X126593297Y-96799526D01*
X126561727Y-96864388D01*
X126518873Y-96975152D01*
X126502982Y-97017421D01*
X126464079Y-97126959D01*
X126446019Y-97197936D01*
X126448453Y-97237957D01*
X126471033Y-97254628D01*
X126492000Y-97256600D01*
X126533275Y-97267237D01*
X126542800Y-97282000D01*
X126519835Y-97295910D01*
X126460593Y-97305136D01*
X126403100Y-97307400D01*
X126312423Y-97303284D01*
X126312423Y-97303284D01*
G37*
X126312423Y-97303284D02*
X126270180Y-97290085D01*
X126274609Y-97266526D01*
X126309812Y-97239836D01*
X126335165Y-97207915D01*
X126374843Y-97139845D01*
X126423611Y-97046361D01*
X126476228Y-96938194D01*
X126527459Y-96826080D01*
X126572065Y-96720750D01*
X126602209Y-96640650D01*
X126632581Y-96601160D01*
X126674230Y-96604305D01*
X126716399Y-96646952D01*
X126732915Y-96678750D01*
X126757885Y-96737696D01*
X126796317Y-96828714D01*
X126841984Y-96937050D01*
X126869582Y-97002600D01*
X126918642Y-97111022D01*
X126963036Y-97194070D01*
X126997790Y-97242965D01*
X127010964Y-97252113D01*
X127045938Y-97271626D01*
X127050800Y-97283863D01*
X127027552Y-97295464D01*
X126966371Y-97303870D01*
X126880100Y-97307382D01*
X126873000Y-97307400D01*
X126781793Y-97304044D01*
X126718770Y-97295049D01*
X126695201Y-97282025D01*
X126695200Y-97282000D01*
X126716407Y-97261159D01*
X126744501Y-97256600D01*
X126790942Y-97247981D01*
X126805383Y-97237550D01*
X126801390Y-97207383D01*
X126781387Y-97141209D01*
X126748905Y-97049914D01*
X126721407Y-96978821D01*
X126677636Y-96870212D01*
X126645517Y-96803451D01*
X126619315Y-96779551D01*
X126593297Y-96799526D01*
X126561727Y-96864388D01*
X126518873Y-96975152D01*
X126502982Y-97017421D01*
X126464079Y-97126959D01*
X126446019Y-97197936D01*
X126448453Y-97237957D01*
X126471033Y-97254628D01*
X126492000Y-97256600D01*
X126533275Y-97267237D01*
X126542800Y-97282000D01*
X126519835Y-97295910D01*
X126460593Y-97305136D01*
X126403100Y-97307400D01*
X126312423Y-97303284D01*
G36*
X124572079Y-97659143D02*
X124433622Y-97655279D01*
X124336562Y-97650770D01*
X124271513Y-97643766D01*
X124229087Y-97632415D01*
X124199895Y-97614868D01*
X124174552Y-97589274D01*
X124165679Y-97579034D01*
X124115016Y-97486277D01*
X124109162Y-97387240D01*
X124144846Y-97292031D01*
X124218794Y-97210759D01*
X124300095Y-97163893D01*
X124354523Y-97137215D01*
X124368657Y-97113540D01*
X124352980Y-97083695D01*
X124231739Y-96921724D01*
X124132534Y-96795408D01*
X124056923Y-96706607D01*
X124006462Y-96657179D01*
X123987023Y-96647000D01*
X123955246Y-96632248D01*
X123952000Y-96621600D01*
X123974652Y-96606222D01*
X124031747Y-96597195D01*
X124062243Y-96596200D01*
X124172485Y-96596200D01*
X124379743Y-96876243D01*
X124455163Y-96978980D01*
X124518312Y-97066585D01*
X124563677Y-97131289D01*
X124585746Y-97165321D01*
X124587000Y-97168343D01*
X124564426Y-97175862D01*
X124507966Y-97180074D01*
X124484246Y-97180400D01*
X124378600Y-97201192D01*
X124301939Y-97259088D01*
X124261379Y-97347369D01*
X124256800Y-97395146D01*
X124272819Y-97488370D01*
X124323356Y-97549237D01*
X124412132Y-97580697D01*
X124498673Y-97586800D01*
X124638946Y-97586800D01*
X124625100Y-96659700D01*
X124555250Y-96651663D01*
X124504512Y-96638368D01*
X124485400Y-96619913D01*
X124508905Y-96609471D01*
X124571866Y-96601375D01*
X124662951Y-96596801D01*
X124714000Y-96596200D01*
X124814666Y-96598639D01*
X124892715Y-96605170D01*
X124936816Y-96614618D01*
X124942600Y-96619913D01*
X124920634Y-96639666D01*
X124872750Y-96651663D01*
X124802900Y-96659700D01*
X124802900Y-97129600D01*
X124803052Y-97294591D01*
X124804058Y-97415718D01*
X124806748Y-97499921D01*
X124811953Y-97554135D01*
X124820500Y-97585298D01*
X124833221Y-97600348D01*
X124850943Y-97606222D01*
X124860050Y-97607617D01*
X124904720Y-97623838D01*
X124917200Y-97641859D01*
X124892177Y-97653082D01*
X124818185Y-97659560D01*
X124696839Y-97661212D01*
X124572079Y-97659143D01*
X124572079Y-97659143D01*
G37*
X124572079Y-97659143D02*
X124433622Y-97655279D01*
X124336562Y-97650770D01*
X124271513Y-97643766D01*
X124229087Y-97632415D01*
X124199895Y-97614868D01*
X124174552Y-97589274D01*
X124165679Y-97579034D01*
X124115016Y-97486277D01*
X124109162Y-97387240D01*
X124144846Y-97292031D01*
X124218794Y-97210759D01*
X124300095Y-97163893D01*
X124354523Y-97137215D01*
X124368657Y-97113540D01*
X124352980Y-97083695D01*
X124231739Y-96921724D01*
X124132534Y-96795408D01*
X124056923Y-96706607D01*
X124006462Y-96657179D01*
X123987023Y-96647000D01*
X123955246Y-96632248D01*
X123952000Y-96621600D01*
X123974652Y-96606222D01*
X124031747Y-96597195D01*
X124062243Y-96596200D01*
X124172485Y-96596200D01*
X124379743Y-96876243D01*
X124455163Y-96978980D01*
X124518312Y-97066585D01*
X124563677Y-97131289D01*
X124585746Y-97165321D01*
X124587000Y-97168343D01*
X124564426Y-97175862D01*
X124507966Y-97180074D01*
X124484246Y-97180400D01*
X124378600Y-97201192D01*
X124301939Y-97259088D01*
X124261379Y-97347369D01*
X124256800Y-97395146D01*
X124272819Y-97488370D01*
X124323356Y-97549237D01*
X124412132Y-97580697D01*
X124498673Y-97586800D01*
X124638946Y-97586800D01*
X124625100Y-96659700D01*
X124555250Y-96651663D01*
X124504512Y-96638368D01*
X124485400Y-96619913D01*
X124508905Y-96609471D01*
X124571866Y-96601375D01*
X124662951Y-96596801D01*
X124714000Y-96596200D01*
X124814666Y-96598639D01*
X124892715Y-96605170D01*
X124936816Y-96614618D01*
X124942600Y-96619913D01*
X124920634Y-96639666D01*
X124872750Y-96651663D01*
X124802900Y-96659700D01*
X124802900Y-97129600D01*
X124803052Y-97294591D01*
X124804058Y-97415718D01*
X124806748Y-97499921D01*
X124811953Y-97554135D01*
X124820500Y-97585298D01*
X124833221Y-97600348D01*
X124850943Y-97606222D01*
X124860050Y-97607617D01*
X124904720Y-97623838D01*
X124917200Y-97641859D01*
X124892177Y-97653082D01*
X124818185Y-97659560D01*
X124696839Y-97661212D01*
X124572079Y-97659143D01*
G36*
X123682343Y-97283680D02*
X123677168Y-97219225D01*
X123673736Y-97124099D01*
X123672600Y-97017378D01*
X123671445Y-96871872D01*
X123666927Y-96769747D01*
X123657474Y-96703613D01*
X123641510Y-96666081D01*
X123617463Y-96649763D01*
X123593683Y-96647000D01*
X123553908Y-96635828D01*
X123545600Y-96621600D01*
X123569238Y-96608802D01*
X123633224Y-96599882D01*
X123727167Y-96596224D01*
X123736100Y-96596200D01*
X123832089Y-96599352D01*
X123898993Y-96607884D01*
X123926422Y-96620409D01*
X123926600Y-96621600D01*
X123904864Y-96640694D01*
X123863100Y-96647000D01*
X123799600Y-96647000D01*
X123799600Y-96926400D01*
X123800185Y-97048677D01*
X123803003Y-97128939D01*
X123809652Y-97175968D01*
X123821727Y-97198547D01*
X123840826Y-97205457D01*
X123850400Y-97205800D01*
X123894734Y-97213608D01*
X123895188Y-97233177D01*
X123855561Y-97258726D01*
X123803004Y-97277980D01*
X123737176Y-97296605D01*
X123694142Y-97306767D01*
X123688704Y-97307400D01*
X123682343Y-97283680D01*
X123682343Y-97283680D01*
G37*
X123682343Y-97283680D02*
X123677168Y-97219225D01*
X123673736Y-97124099D01*
X123672600Y-97017378D01*
X123671445Y-96871872D01*
X123666927Y-96769747D01*
X123657474Y-96703613D01*
X123641510Y-96666081D01*
X123617463Y-96649763D01*
X123593683Y-96647000D01*
X123553908Y-96635828D01*
X123545600Y-96621600D01*
X123569238Y-96608802D01*
X123633224Y-96599882D01*
X123727167Y-96596224D01*
X123736100Y-96596200D01*
X123832089Y-96599352D01*
X123898993Y-96607884D01*
X123926422Y-96620409D01*
X123926600Y-96621600D01*
X123904864Y-96640694D01*
X123863100Y-96647000D01*
X123799600Y-96647000D01*
X123799600Y-96926400D01*
X123800185Y-97048677D01*
X123803003Y-97128939D01*
X123809652Y-97175968D01*
X123821727Y-97198547D01*
X123840826Y-97205457D01*
X123850400Y-97205800D01*
X123894734Y-97213608D01*
X123895188Y-97233177D01*
X123855561Y-97258726D01*
X123803004Y-97277980D01*
X123737176Y-97296605D01*
X123694142Y-97306767D01*
X123688704Y-97307400D01*
X123682343Y-97283680D01*
G36*
X123278126Y-97692481D02*
X123270669Y-97654763D01*
X123267176Y-97584054D01*
X123266215Y-97472173D01*
X123266200Y-97447560D01*
X123266200Y-97175885D01*
X123188052Y-97241643D01*
X123089947Y-97298292D01*
X122992312Y-97310684D01*
X122901997Y-97284958D01*
X122825854Y-97227254D01*
X122770734Y-97143712D01*
X122743489Y-97040471D01*
X122750969Y-96923671D01*
X122768497Y-96865659D01*
X122830704Y-96760387D01*
X122922331Y-96676219D01*
X123031471Y-96618710D01*
X123146214Y-96593411D01*
X123254653Y-96605876D01*
X123291729Y-96621669D01*
X123340033Y-96633321D01*
X123355058Y-96621669D01*
X123371743Y-96601863D01*
X123384466Y-96606456D01*
X123393717Y-96640058D01*
X123399990Y-96707278D01*
X123403776Y-96812725D01*
X123405148Y-96926222D01*
X123266200Y-96926222D01*
X123264177Y-96820707D01*
X123256649Y-96754744D01*
X123241430Y-96717194D01*
X123221750Y-96699835D01*
X123138916Y-96675727D01*
X123043689Y-96680869D01*
X122967781Y-96711430D01*
X122910326Y-96779858D01*
X122878682Y-96875918D01*
X122873909Y-96982881D01*
X122897066Y-97084016D01*
X122939813Y-97153241D01*
X123010025Y-97194963D01*
X123099474Y-97204074D01*
X123187639Y-97179586D01*
X123209749Y-97166260D01*
X123238451Y-97140701D01*
X123255431Y-97105391D01*
X123263666Y-97047665D01*
X123266135Y-96954858D01*
X123266200Y-96926222D01*
X123405148Y-96926222D01*
X123405569Y-96961011D01*
X123405900Y-97097827D01*
X123406030Y-97269066D01*
X123406920Y-97396211D01*
X123409323Y-97485970D01*
X123413990Y-97545048D01*
X123421673Y-97580151D01*
X123433124Y-97597987D01*
X123449095Y-97605262D01*
X123463050Y-97607617D01*
X123511673Y-97622732D01*
X123513301Y-97643287D01*
X123470414Y-97663176D01*
X123437650Y-97670216D01*
X123365401Y-97685391D01*
X123310650Y-97701657D01*
X123290976Y-97705386D01*
X123278126Y-97692481D01*
X123278126Y-97692481D01*
G37*
X123278126Y-97692481D02*
X123270669Y-97654763D01*
X123267176Y-97584054D01*
X123266215Y-97472173D01*
X123266200Y-97447560D01*
X123266200Y-97175885D01*
X123188052Y-97241643D01*
X123089947Y-97298292D01*
X122992312Y-97310684D01*
X122901997Y-97284958D01*
X122825854Y-97227254D01*
X122770734Y-97143712D01*
X122743489Y-97040471D01*
X122750969Y-96923671D01*
X122768497Y-96865659D01*
X122830704Y-96760387D01*
X122922331Y-96676219D01*
X123031471Y-96618710D01*
X123146214Y-96593411D01*
X123254653Y-96605876D01*
X123291729Y-96621669D01*
X123340033Y-96633321D01*
X123355058Y-96621669D01*
X123371743Y-96601863D01*
X123384466Y-96606456D01*
X123393717Y-96640058D01*
X123399990Y-96707278D01*
X123403776Y-96812725D01*
X123405148Y-96926222D01*
X123266200Y-96926222D01*
X123264177Y-96820707D01*
X123256649Y-96754744D01*
X123241430Y-96717194D01*
X123221750Y-96699835D01*
X123138916Y-96675727D01*
X123043689Y-96680869D01*
X122967781Y-96711430D01*
X122910326Y-96779858D01*
X122878682Y-96875918D01*
X122873909Y-96982881D01*
X122897066Y-97084016D01*
X122939813Y-97153241D01*
X123010025Y-97194963D01*
X123099474Y-97204074D01*
X123187639Y-97179586D01*
X123209749Y-97166260D01*
X123238451Y-97140701D01*
X123255431Y-97105391D01*
X123263666Y-97047665D01*
X123266135Y-96954858D01*
X123266200Y-96926222D01*
X123405148Y-96926222D01*
X123405569Y-96961011D01*
X123405900Y-97097827D01*
X123406030Y-97269066D01*
X123406920Y-97396211D01*
X123409323Y-97485970D01*
X123413990Y-97545048D01*
X123421673Y-97580151D01*
X123433124Y-97597987D01*
X123449095Y-97605262D01*
X123463050Y-97607617D01*
X123511673Y-97622732D01*
X123513301Y-97643287D01*
X123470414Y-97663176D01*
X123437650Y-97670216D01*
X123365401Y-97685391D01*
X123310650Y-97701657D01*
X123290976Y-97705386D01*
X123278126Y-97692481D01*
G36*
X122439926Y-97692481D02*
X122432469Y-97654763D01*
X122428976Y-97584054D01*
X122428015Y-97472173D01*
X122428000Y-97447560D01*
X122428000Y-97175885D01*
X122349852Y-97241643D01*
X122257191Y-97292981D01*
X122153624Y-97309353D01*
X122056127Y-97290152D01*
X121999434Y-97254161D01*
X121925693Y-97154427D01*
X121895595Y-97040128D01*
X121907779Y-96920267D01*
X121960884Y-96803843D01*
X122053548Y-96699858D01*
X122087215Y-96673609D01*
X122148633Y-96632813D01*
X122202183Y-96610065D01*
X122266206Y-96600863D01*
X122359044Y-96600705D01*
X122381633Y-96601332D01*
X122567700Y-96606866D01*
X122567700Y-96914963D01*
X122428000Y-96914963D01*
X122424110Y-96802633D01*
X122407784Y-96731550D01*
X122372041Y-96692452D01*
X122309897Y-96676081D01*
X122245694Y-96673173D01*
X122166210Y-96684681D01*
X122108890Y-96728044D01*
X122100312Y-96738477D01*
X122053157Y-96827442D01*
X122032315Y-96930576D01*
X122037015Y-97033238D01*
X122066487Y-97120787D01*
X122119960Y-97178581D01*
X122123565Y-97180595D01*
X122209629Y-97204339D01*
X122300836Y-97196095D01*
X122373853Y-97158219D01*
X122377200Y-97155000D01*
X122404622Y-97118149D01*
X122420255Y-97067015D01*
X122427003Y-96987880D01*
X122428000Y-96914963D01*
X122567700Y-96914963D01*
X122567700Y-97103183D01*
X122567833Y-97273382D01*
X122568742Y-97399526D01*
X122571190Y-97488357D01*
X122575941Y-97546619D01*
X122583759Y-97581056D01*
X122595409Y-97598412D01*
X122611655Y-97605431D01*
X122624850Y-97607617D01*
X122673473Y-97622732D01*
X122675101Y-97643287D01*
X122632214Y-97663176D01*
X122599450Y-97670216D01*
X122527201Y-97685391D01*
X122472450Y-97701657D01*
X122452776Y-97705386D01*
X122439926Y-97692481D01*
X122439926Y-97692481D01*
G37*
X122439926Y-97692481D02*
X122432469Y-97654763D01*
X122428976Y-97584054D01*
X122428015Y-97472173D01*
X122428000Y-97447560D01*
X122428000Y-97175885D01*
X122349852Y-97241643D01*
X122257191Y-97292981D01*
X122153624Y-97309353D01*
X122056127Y-97290152D01*
X121999434Y-97254161D01*
X121925693Y-97154427D01*
X121895595Y-97040128D01*
X121907779Y-96920267D01*
X121960884Y-96803843D01*
X122053548Y-96699858D01*
X122087215Y-96673609D01*
X122148633Y-96632813D01*
X122202183Y-96610065D01*
X122266206Y-96600863D01*
X122359044Y-96600705D01*
X122381633Y-96601332D01*
X122567700Y-96606866D01*
X122567700Y-96914963D01*
X122428000Y-96914963D01*
X122424110Y-96802633D01*
X122407784Y-96731550D01*
X122372041Y-96692452D01*
X122309897Y-96676081D01*
X122245694Y-96673173D01*
X122166210Y-96684681D01*
X122108890Y-96728044D01*
X122100312Y-96738477D01*
X122053157Y-96827442D01*
X122032315Y-96930576D01*
X122037015Y-97033238D01*
X122066487Y-97120787D01*
X122119960Y-97178581D01*
X122123565Y-97180595D01*
X122209629Y-97204339D01*
X122300836Y-97196095D01*
X122373853Y-97158219D01*
X122377200Y-97155000D01*
X122404622Y-97118149D01*
X122420255Y-97067015D01*
X122427003Y-96987880D01*
X122428000Y-96914963D01*
X122567700Y-96914963D01*
X122567700Y-97103183D01*
X122567833Y-97273382D01*
X122568742Y-97399526D01*
X122571190Y-97488357D01*
X122575941Y-97546619D01*
X122583759Y-97581056D01*
X122595409Y-97598412D01*
X122611655Y-97605431D01*
X122624850Y-97607617D01*
X122673473Y-97622732D01*
X122675101Y-97643287D01*
X122632214Y-97663176D01*
X122599450Y-97670216D01*
X122527201Y-97685391D01*
X122472450Y-97701657D01*
X122452776Y-97705386D01*
X122439926Y-97692481D01*
G36*
X120363567Y-97287565D02*
X120316264Y-97258937D01*
X120289379Y-97233063D01*
X120271130Y-97200094D01*
X120259139Y-97149430D01*
X120251028Y-97070471D01*
X120244418Y-96952616D01*
X120243600Y-96935087D01*
X120237416Y-96813819D01*
X120230745Y-96734176D01*
X120221336Y-96687014D01*
X120206936Y-96663190D01*
X120185291Y-96653560D01*
X120173750Y-96651584D01*
X120123582Y-96637867D01*
X120117639Y-96620995D01*
X120149969Y-96605747D01*
X120214620Y-96596901D01*
X120242741Y-96596200D01*
X120368882Y-96596200D01*
X120376091Y-96866580D01*
X120379913Y-96987082D01*
X120385411Y-97067594D01*
X120395161Y-97118922D01*
X120411740Y-97151867D01*
X120437723Y-97177233D01*
X120452942Y-97188884D01*
X120501867Y-97221161D01*
X120540959Y-97226435D01*
X120594942Y-97206229D01*
X120611025Y-97198633D01*
X120664389Y-97166927D01*
X120698767Y-97125871D01*
X120717440Y-97065068D01*
X120723688Y-96974125D01*
X120721085Y-96849901D01*
X120715954Y-96752381D01*
X120707799Y-96694554D01*
X120692996Y-96665320D01*
X120667922Y-96653575D01*
X120656350Y-96651584D01*
X120611688Y-96636310D01*
X120599200Y-96619834D01*
X120622523Y-96608538D01*
X120684215Y-96600181D01*
X120771868Y-96596304D01*
X120789700Y-96596200D01*
X120885689Y-96599352D01*
X120952593Y-96607884D01*
X120980022Y-96620409D01*
X120980200Y-96621600D01*
X120958464Y-96640694D01*
X120916700Y-96647000D01*
X120853200Y-96647000D01*
X120853200Y-97205800D01*
X120916700Y-97205800D01*
X120969026Y-97212816D01*
X120976369Y-97230563D01*
X120942069Y-97254091D01*
X120869461Y-97278451D01*
X120867353Y-97278985D01*
X120787647Y-97298524D01*
X120745505Y-97303291D01*
X120728991Y-97289917D01*
X120726164Y-97255033D01*
X120726200Y-97239148D01*
X120726200Y-97170896D01*
X120654961Y-97239148D01*
X120566785Y-97292478D01*
X120463531Y-97308974D01*
X120363567Y-97287565D01*
X120363567Y-97287565D01*
G37*
X120363567Y-97287565D02*
X120316264Y-97258937D01*
X120289379Y-97233063D01*
X120271130Y-97200094D01*
X120259139Y-97149430D01*
X120251028Y-97070471D01*
X120244418Y-96952616D01*
X120243600Y-96935087D01*
X120237416Y-96813819D01*
X120230745Y-96734176D01*
X120221336Y-96687014D01*
X120206936Y-96663190D01*
X120185291Y-96653560D01*
X120173750Y-96651584D01*
X120123582Y-96637867D01*
X120117639Y-96620995D01*
X120149969Y-96605747D01*
X120214620Y-96596901D01*
X120242741Y-96596200D01*
X120368882Y-96596200D01*
X120376091Y-96866580D01*
X120379913Y-96987082D01*
X120385411Y-97067594D01*
X120395161Y-97118922D01*
X120411740Y-97151867D01*
X120437723Y-97177233D01*
X120452942Y-97188884D01*
X120501867Y-97221161D01*
X120540959Y-97226435D01*
X120594942Y-97206229D01*
X120611025Y-97198633D01*
X120664389Y-97166927D01*
X120698767Y-97125871D01*
X120717440Y-97065068D01*
X120723688Y-96974125D01*
X120721085Y-96849901D01*
X120715954Y-96752381D01*
X120707799Y-96694554D01*
X120692996Y-96665320D01*
X120667922Y-96653575D01*
X120656350Y-96651584D01*
X120611688Y-96636310D01*
X120599200Y-96619834D01*
X120622523Y-96608538D01*
X120684215Y-96600181D01*
X120771868Y-96596304D01*
X120789700Y-96596200D01*
X120885689Y-96599352D01*
X120952593Y-96607884D01*
X120980022Y-96620409D01*
X120980200Y-96621600D01*
X120958464Y-96640694D01*
X120916700Y-96647000D01*
X120853200Y-96647000D01*
X120853200Y-97205800D01*
X120916700Y-97205800D01*
X120969026Y-97212816D01*
X120976369Y-97230563D01*
X120942069Y-97254091D01*
X120869461Y-97278451D01*
X120867353Y-97278985D01*
X120787647Y-97298524D01*
X120745505Y-97303291D01*
X120728991Y-97289917D01*
X120726164Y-97255033D01*
X120726200Y-97239148D01*
X120726200Y-97170896D01*
X120654961Y-97239148D01*
X120566785Y-97292478D01*
X120463531Y-97308974D01*
X120363567Y-97287565D01*
G36*
X125125428Y-97026760D02*
X125055216Y-97023468D01*
X125020513Y-97018765D01*
X125018800Y-97017378D01*
X125026951Y-96973306D01*
X125057276Y-96945808D01*
X125118588Y-96931384D01*
X125219698Y-96926531D01*
X125247740Y-96926400D01*
X125346789Y-96927311D01*
X125404699Y-96931811D01*
X125431121Y-96942552D01*
X125435706Y-96962189D01*
X125432560Y-96977200D01*
X125420664Y-97002835D01*
X125394226Y-97018088D01*
X125342250Y-97025575D01*
X125253743Y-97027913D01*
X125219038Y-97028000D01*
X125125428Y-97026760D01*
X125125428Y-97026760D01*
G37*
X125125428Y-97026760D02*
X125055216Y-97023468D01*
X125020513Y-97018765D01*
X125018800Y-97017378D01*
X125026951Y-96973306D01*
X125057276Y-96945808D01*
X125118588Y-96931384D01*
X125219698Y-96926531D01*
X125247740Y-96926400D01*
X125346789Y-96927311D01*
X125404699Y-96931811D01*
X125431121Y-96942552D01*
X125435706Y-96962189D01*
X125432560Y-96977200D01*
X125420664Y-97002835D01*
X125394226Y-97018088D01*
X125342250Y-97025575D01*
X125253743Y-97027913D01*
X125219038Y-97028000D01*
X125125428Y-97026760D01*
G36*
X128182864Y-97623036D02*
X128147499Y-97576633D01*
X128153758Y-97538681D01*
X128173480Y-97515681D01*
X128224717Y-97489085D01*
X128281079Y-97489354D01*
X128303867Y-97502134D01*
X128321238Y-97550060D01*
X128304906Y-97604807D01*
X128271764Y-97636656D01*
X128220606Y-97647739D01*
X128182864Y-97623036D01*
X128182864Y-97623036D01*
G37*
X128182864Y-97623036D02*
X128147499Y-97576633D01*
X128153758Y-97538681D01*
X128173480Y-97515681D01*
X128224717Y-97489085D01*
X128281079Y-97489354D01*
X128303867Y-97502134D01*
X128321238Y-97550060D01*
X128304906Y-97604807D01*
X128271764Y-97636656D01*
X128220606Y-97647739D01*
X128182864Y-97623036D01*
G36*
X127240260Y-97628604D02*
X127217426Y-97594317D01*
X127218929Y-97542562D01*
X127231272Y-97520081D01*
X127282609Y-97488008D01*
X127335392Y-97496148D01*
X127369702Y-97540415D01*
X127368728Y-97597639D01*
X127335686Y-97635356D01*
X127287292Y-97647650D01*
X127240260Y-97628604D01*
X127240260Y-97628604D01*
G37*
X127240260Y-97628604D02*
X127217426Y-97594317D01*
X127218929Y-97542562D01*
X127231272Y-97520081D01*
X127282609Y-97488008D01*
X127335392Y-97496148D01*
X127369702Y-97540415D01*
X127368728Y-97597639D01*
X127335686Y-97635356D01*
X127287292Y-97647650D01*
X127240260Y-97628604D01*
G36*
X123679718Y-97625990D02*
X123654930Y-97581521D01*
X123658499Y-97540415D01*
X123693720Y-97495628D01*
X123746660Y-97488237D01*
X123796929Y-97520081D01*
X123814429Y-97570211D01*
X123810775Y-97594317D01*
X123774355Y-97638305D01*
X123725098Y-97646890D01*
X123679718Y-97625990D01*
X123679718Y-97625990D01*
G37*
X123679718Y-97625990D02*
X123654930Y-97581521D01*
X123658499Y-97540415D01*
X123693720Y-97495628D01*
X123746660Y-97488237D01*
X123796929Y-97520081D01*
X123814429Y-97570211D01*
X123810775Y-97594317D01*
X123774355Y-97638305D01*
X123725098Y-97646890D01*
X123679718Y-97625990D01*
D12*
X125452143Y-101766666D02*
X125499762Y-101814285D01*
X125547381Y-101957142D01*
X125547381Y-102052380D01*
X125499762Y-102195238D01*
X125404524Y-102290476D01*
X125309286Y-102338095D01*
X125118810Y-102385714D01*
X124975952Y-102385714D01*
X124785476Y-102338095D01*
X124690238Y-102290476D01*
X124595000Y-102195238D01*
X124547381Y-102052380D01*
X124547381Y-101957142D01*
X124595000Y-101814285D01*
X124642619Y-101766666D01*
X124642619Y-101385714D02*
X124595000Y-101338095D01*
X124547381Y-101242857D01*
X124547381Y-101004761D01*
X124595000Y-100909523D01*
X124642619Y-100861904D01*
X124737857Y-100814285D01*
X124833095Y-100814285D01*
X124975952Y-100861904D01*
X125547381Y-101433333D01*
X125547381Y-100814285D01*
X146558095Y-96607381D02*
X146558095Y-97416905D01*
X146605714Y-97512143D01*
X146653333Y-97559762D01*
X146748571Y-97607381D01*
X146939048Y-97607381D01*
X147034286Y-97559762D01*
X147081905Y-97512143D01*
X147129524Y-97416905D01*
X147129524Y-96607381D01*
X148129524Y-97607381D02*
X147558095Y-97607381D01*
X147843809Y-97607381D02*
X147843809Y-96607381D01*
X147748571Y-96750238D01*
X147653333Y-96845476D01*
X147558095Y-96893095D01*
X145137143Y-104306666D02*
X145184762Y-104354285D01*
X145232381Y-104497142D01*
X145232381Y-104592380D01*
X145184762Y-104735238D01*
X145089524Y-104830476D01*
X144994286Y-104878095D01*
X144803810Y-104925714D01*
X144660952Y-104925714D01*
X144470476Y-104878095D01*
X144375238Y-104830476D01*
X144280000Y-104735238D01*
X144232381Y-104592380D01*
X144232381Y-104497142D01*
X144280000Y-104354285D01*
X144327619Y-104306666D01*
X145232381Y-103354285D02*
X145232381Y-103925714D01*
X145232381Y-103640000D02*
X144232381Y-103640000D01*
X144375238Y-103735238D01*
X144470476Y-103830476D01*
X144518095Y-103925714D01*
X117832143Y-101766666D02*
X117879762Y-101814285D01*
X117927381Y-101957142D01*
X117927381Y-102052380D01*
X117879762Y-102195238D01*
X117784524Y-102290476D01*
X117689286Y-102338095D01*
X117498810Y-102385714D01*
X117355952Y-102385714D01*
X117165476Y-102338095D01*
X117070238Y-102290476D01*
X116975000Y-102195238D01*
X116927381Y-102052380D01*
X116927381Y-101957142D01*
X116975000Y-101814285D01*
X117022619Y-101766666D01*
X116927381Y-101433333D02*
X116927381Y-100814285D01*
X117308333Y-101147619D01*
X117308333Y-101004761D01*
X117355952Y-100909523D01*
X117403571Y-100861904D01*
X117498810Y-100814285D01*
X117736905Y-100814285D01*
X117832143Y-100861904D01*
X117879762Y-100909523D01*
X117927381Y-101004761D01*
X117927381Y-101290476D01*
X117879762Y-101385714D01*
X117832143Y-101433333D01*
X133167381Y-102608095D02*
X132167381Y-102608095D01*
X132167381Y-102370000D01*
X132215000Y-102227142D01*
X132310238Y-102131904D01*
X132405476Y-102084285D01*
X132595952Y-102036666D01*
X132738810Y-102036666D01*
X132929286Y-102084285D01*
X133024524Y-102131904D01*
X133119762Y-102227142D01*
X133167381Y-102370000D01*
X133167381Y-102608095D01*
X133167381Y-101084285D02*
X133167381Y-101655714D01*
X133167381Y-101370000D02*
X132167381Y-101370000D01*
X132310238Y-101465238D01*
X132405476Y-101560476D01*
X132453095Y-101655714D01*
X152296905Y-102687381D02*
X152296905Y-101687381D01*
X152535000Y-101687381D01*
X152677858Y-101735000D01*
X152773096Y-101830238D01*
X152820715Y-101925476D01*
X152868334Y-102115952D01*
X152868334Y-102258810D01*
X152820715Y-102449286D01*
X152773096Y-102544524D01*
X152677858Y-102639762D01*
X152535000Y-102687381D01*
X152296905Y-102687381D01*
X153249286Y-101782619D02*
X153296905Y-101735000D01*
X153392143Y-101687381D01*
X153630239Y-101687381D01*
X153725477Y-101735000D01*
X153773096Y-101782619D01*
X153820715Y-101877857D01*
X153820715Y-101973095D01*
X153773096Y-102115952D01*
X153201667Y-102687381D01*
X153820715Y-102687381D01*
X133802381Y-97321666D02*
X133326190Y-97655000D01*
X133802381Y-97893095D02*
X132802381Y-97893095D01*
X132802381Y-97512142D01*
X132850000Y-97416904D01*
X132897619Y-97369285D01*
X132992857Y-97321666D01*
X133135714Y-97321666D01*
X133230952Y-97369285D01*
X133278571Y-97416904D01*
X133326190Y-97512142D01*
X133326190Y-97893095D01*
X133802381Y-96369285D02*
X133802381Y-96940714D01*
X133802381Y-96655000D02*
X132802381Y-96655000D01*
X132945238Y-96750238D01*
X133040476Y-96845476D01*
X133088095Y-96940714D01*
X120467381Y-106846666D02*
X119991190Y-107180000D01*
X120467381Y-107418095D02*
X119467381Y-107418095D01*
X119467381Y-107037142D01*
X119515000Y-106941904D01*
X119562619Y-106894285D01*
X119657857Y-106846666D01*
X119800714Y-106846666D01*
X119895952Y-106894285D01*
X119943571Y-106941904D01*
X119991190Y-107037142D01*
X119991190Y-107418095D01*
X119562619Y-106465714D02*
X119515000Y-106418095D01*
X119467381Y-106322857D01*
X119467381Y-106084761D01*
X119515000Y-105989523D01*
X119562619Y-105941904D01*
X119657857Y-105894285D01*
X119753095Y-105894285D01*
X119895952Y-105941904D01*
X120467381Y-106513333D01*
X120467381Y-105894285D01*
X152217381Y-100496666D02*
X151741190Y-100830000D01*
X152217381Y-101068095D02*
X151217381Y-101068095D01*
X151217381Y-100687142D01*
X151265000Y-100591904D01*
X151312619Y-100544285D01*
X151407857Y-100496666D01*
X151550714Y-100496666D01*
X151645952Y-100544285D01*
X151693571Y-100591904D01*
X151741190Y-100687142D01*
X151741190Y-101068095D01*
X151217381Y-100163333D02*
X151217381Y-99544285D01*
X151598333Y-99877619D01*
X151598333Y-99734761D01*
X151645952Y-99639523D01*
X151693571Y-99591904D01*
X151788810Y-99544285D01*
X152026905Y-99544285D01*
X152122143Y-99591904D01*
X152169762Y-99639523D01*
X152217381Y-99734761D01*
X152217381Y-100020476D01*
X152169762Y-100115714D01*
X152122143Y-100163333D01*
X152217381Y-98591666D02*
X151741190Y-98925000D01*
X152217381Y-99163095D02*
X151217381Y-99163095D01*
X151217381Y-98782142D01*
X151265000Y-98686904D01*
X151312619Y-98639285D01*
X151407857Y-98591666D01*
X151550714Y-98591666D01*
X151645952Y-98639285D01*
X151693571Y-98686904D01*
X151741190Y-98782142D01*
X151741190Y-99163095D01*
X151550714Y-97734523D02*
X152217381Y-97734523D01*
X151169762Y-97972619D02*
X151884048Y-98210714D01*
X151884048Y-97591666D01*
M02*
