G04 #@! TF.FileFunction,Legend,Top*
%FSLAX46Y46*%
G04 Gerber Fmt 4.6, Leading zero omitted, Abs format (unit mm)*
G04 Created by KiCad (PCBNEW 4.0.5+dfsg1-4) date Sat Jul 14 15:59:12 2018*
%MOMM*%
%LPD*%
G01*
G04 APERTURE LIST*
%ADD10C,0.100000*%
%ADD11C,0.127000*%
%ADD12C,0.150000*%
%ADD13C,0.010000*%
G04 APERTURE END LIST*
D10*
D11*
X73660000Y-28575000D02*
X67310000Y-28575000D01*
X76200000Y-28575000D02*
X74930000Y-28575000D01*
X54610000Y-34925000D02*
X52070000Y-34925000D01*
X73660000Y-34925000D02*
X66675000Y-34925000D01*
X66675000Y-27940000D02*
X66040000Y-27940000D01*
X26035000Y-28575000D02*
X29210000Y-28575000D01*
X36830000Y-28575000D02*
X35560000Y-28575000D01*
X49530000Y-28575000D02*
X43180000Y-28575000D01*
X54610000Y-28575000D02*
X52070000Y-28575000D01*
X74930000Y-34925000D02*
X76200000Y-34925000D01*
X29210000Y-34925000D02*
X25400000Y-34925000D01*
X36830000Y-34925000D02*
X35560000Y-34925000D01*
X49530000Y-34925000D02*
X43180000Y-34925000D01*
D12*
X42730000Y-34050000D02*
X42730000Y-29450000D01*
X37280000Y-29450000D02*
X37280000Y-34050000D01*
X58920000Y-33440000D02*
X57920000Y-33440000D01*
X57920000Y-35140000D02*
X58920000Y-35140000D01*
X29660000Y-29450000D02*
X29660000Y-34050000D01*
X35110000Y-34050000D02*
X35110000Y-29450000D01*
X46620000Y-34020000D02*
X46620000Y-31020000D01*
X44820000Y-34020000D02*
X44820000Y-31020000D01*
X66135000Y-33390000D02*
X63135000Y-33390000D01*
X66135000Y-35190000D02*
X63135000Y-35190000D01*
X40675000Y-35955000D02*
X41875000Y-35955000D01*
X41875000Y-37705000D02*
X40675000Y-37705000D01*
X33055000Y-35955000D02*
X34255000Y-35955000D01*
X34255000Y-37705000D02*
X33055000Y-37705000D01*
X66005000Y-31355000D02*
X64805000Y-31355000D01*
X64805000Y-29605000D02*
X66005000Y-29605000D01*
X64805000Y-27700000D02*
X66005000Y-27700000D01*
X66005000Y-29450000D02*
X64805000Y-29450000D01*
D13*
G36*
X59696805Y-36062514D02*
X59786292Y-36115808D01*
X59854292Y-36195554D01*
X59890184Y-36296800D01*
X59893200Y-36338119D01*
X59869548Y-36459072D01*
X59805590Y-36570487D01*
X59711817Y-36662675D01*
X59598722Y-36725949D01*
X59476798Y-36750619D01*
X59447424Y-36749723D01*
X59332482Y-36740581D01*
X59339791Y-36931340D01*
X59344763Y-37029022D01*
X59352785Y-37086994D01*
X59367451Y-37116344D01*
X59392354Y-37128158D01*
X59404250Y-37130216D01*
X59448912Y-37145490D01*
X59461400Y-37161966D01*
X59438077Y-37173262D01*
X59376385Y-37181619D01*
X59288732Y-37185496D01*
X59270900Y-37185600D01*
X59179841Y-37183227D01*
X59112481Y-37176951D01*
X59081232Y-37168035D01*
X59080400Y-37166223D01*
X59100829Y-37142441D01*
X59137550Y-37121773D01*
X59157622Y-37111441D01*
X59172341Y-37095857D01*
X59182537Y-37067832D01*
X59189040Y-37020177D01*
X59192679Y-36945702D01*
X59194286Y-36837219D01*
X59194689Y-36687538D01*
X59194700Y-36626800D01*
X59194548Y-36461809D01*
X59194167Y-36415890D01*
X59334400Y-36415890D01*
X59336892Y-36521444D01*
X59345898Y-36588055D01*
X59363712Y-36627407D01*
X59378850Y-36642242D01*
X59449020Y-36669911D01*
X59539361Y-36674493D01*
X59624924Y-36656241D01*
X59657004Y-36639421D01*
X59719809Y-36566980D01*
X59752695Y-36468829D01*
X59754626Y-36361050D01*
X59724563Y-36259725D01*
X59685181Y-36202571D01*
X59611135Y-36157252D01*
X59517377Y-36144264D01*
X59424424Y-36164921D01*
X59390851Y-36183740D01*
X59361631Y-36209967D01*
X59344595Y-36246381D01*
X59336578Y-36305999D01*
X59334416Y-36401837D01*
X59334400Y-36415890D01*
X59194167Y-36415890D01*
X59193542Y-36340682D01*
X59190852Y-36256479D01*
X59185647Y-36202265D01*
X59177100Y-36171102D01*
X59164379Y-36156052D01*
X59146657Y-36150178D01*
X59137550Y-36148783D01*
X59088858Y-36134265D01*
X59088104Y-36113434D01*
X59133254Y-36089126D01*
X59193247Y-36071015D01*
X59272953Y-36051476D01*
X59315095Y-36046709D01*
X59331609Y-36060083D01*
X59334436Y-36094967D01*
X59334400Y-36110852D01*
X59334400Y-36179104D01*
X59405639Y-36110852D01*
X59495857Y-36055085D01*
X59596452Y-36040623D01*
X59696805Y-36062514D01*
X59696805Y-36062514D01*
G37*
X59696805Y-36062514D02*
X59786292Y-36115808D01*
X59854292Y-36195554D01*
X59890184Y-36296800D01*
X59893200Y-36338119D01*
X59869548Y-36459072D01*
X59805590Y-36570487D01*
X59711817Y-36662675D01*
X59598722Y-36725949D01*
X59476798Y-36750619D01*
X59447424Y-36749723D01*
X59332482Y-36740581D01*
X59339791Y-36931340D01*
X59344763Y-37029022D01*
X59352785Y-37086994D01*
X59367451Y-37116344D01*
X59392354Y-37128158D01*
X59404250Y-37130216D01*
X59448912Y-37145490D01*
X59461400Y-37161966D01*
X59438077Y-37173262D01*
X59376385Y-37181619D01*
X59288732Y-37185496D01*
X59270900Y-37185600D01*
X59179841Y-37183227D01*
X59112481Y-37176951D01*
X59081232Y-37168035D01*
X59080400Y-37166223D01*
X59100829Y-37142441D01*
X59137550Y-37121773D01*
X59157622Y-37111441D01*
X59172341Y-37095857D01*
X59182537Y-37067832D01*
X59189040Y-37020177D01*
X59192679Y-36945702D01*
X59194286Y-36837219D01*
X59194689Y-36687538D01*
X59194700Y-36626800D01*
X59194548Y-36461809D01*
X59194167Y-36415890D01*
X59334400Y-36415890D01*
X59336892Y-36521444D01*
X59345898Y-36588055D01*
X59363712Y-36627407D01*
X59378850Y-36642242D01*
X59449020Y-36669911D01*
X59539361Y-36674493D01*
X59624924Y-36656241D01*
X59657004Y-36639421D01*
X59719809Y-36566980D01*
X59752695Y-36468829D01*
X59754626Y-36361050D01*
X59724563Y-36259725D01*
X59685181Y-36202571D01*
X59611135Y-36157252D01*
X59517377Y-36144264D01*
X59424424Y-36164921D01*
X59390851Y-36183740D01*
X59361631Y-36209967D01*
X59344595Y-36246381D01*
X59336578Y-36305999D01*
X59334416Y-36401837D01*
X59334400Y-36415890D01*
X59194167Y-36415890D01*
X59193542Y-36340682D01*
X59190852Y-36256479D01*
X59185647Y-36202265D01*
X59177100Y-36171102D01*
X59164379Y-36156052D01*
X59146657Y-36150178D01*
X59137550Y-36148783D01*
X59088858Y-36134265D01*
X59088104Y-36113434D01*
X59133254Y-36089126D01*
X59193247Y-36071015D01*
X59272953Y-36051476D01*
X59315095Y-36046709D01*
X59331609Y-36060083D01*
X59334436Y-36094967D01*
X59334400Y-36110852D01*
X59334400Y-36179104D01*
X59405639Y-36110852D01*
X59495857Y-36055085D01*
X59596452Y-36040623D01*
X59696805Y-36062514D01*
G36*
X57975682Y-35671845D02*
X58065990Y-35689893D01*
X58142279Y-35713814D01*
X58191043Y-35739633D01*
X58201559Y-35756850D01*
X58198789Y-35802689D01*
X58195474Y-35871395D01*
X58195209Y-35877500D01*
X58184384Y-35940610D01*
X58165297Y-35964837D01*
X58147533Y-35947442D01*
X58140600Y-35893094D01*
X58129835Y-35836696D01*
X58088717Y-35797058D01*
X58054211Y-35778794D01*
X57919400Y-35739838D01*
X57781358Y-35743336D01*
X57651923Y-35785841D01*
X57542937Y-35863902D01*
X57480512Y-35945873D01*
X57449736Y-36010388D01*
X57434222Y-36076132D01*
X57430852Y-36161978D01*
X57433360Y-36230989D01*
X57441960Y-36337565D01*
X57458267Y-36411711D01*
X57487573Y-36471736D01*
X57513555Y-36508536D01*
X57577062Y-36577376D01*
X57647685Y-36634067D01*
X57665663Y-36644812D01*
X57762174Y-36676071D01*
X57883619Y-36687996D01*
X58007971Y-36680618D01*
X58113198Y-36653969D01*
X58134250Y-36644133D01*
X58193225Y-36620778D01*
X58215977Y-36628949D01*
X58198567Y-36664724D01*
X58177842Y-36687528D01*
X58107561Y-36730084D01*
X58003732Y-36760109D01*
X57882531Y-36775489D01*
X57760131Y-36774111D01*
X57657835Y-36755467D01*
X57500165Y-36684081D01*
X57378959Y-36580020D01*
X57297203Y-36448818D01*
X57257882Y-36296008D01*
X57263983Y-36127122D01*
X57280065Y-36055383D01*
X57338002Y-35935545D01*
X57435603Y-35829547D01*
X57562209Y-35744296D01*
X57707160Y-35686695D01*
X57859795Y-35663649D01*
X57884860Y-35663644D01*
X57975682Y-35671845D01*
X57975682Y-35671845D01*
G37*
X57975682Y-35671845D02*
X58065990Y-35689893D01*
X58142279Y-35713814D01*
X58191043Y-35739633D01*
X58201559Y-35756850D01*
X58198789Y-35802689D01*
X58195474Y-35871395D01*
X58195209Y-35877500D01*
X58184384Y-35940610D01*
X58165297Y-35964837D01*
X58147533Y-35947442D01*
X58140600Y-35893094D01*
X58129835Y-35836696D01*
X58088717Y-35797058D01*
X58054211Y-35778794D01*
X57919400Y-35739838D01*
X57781358Y-35743336D01*
X57651923Y-35785841D01*
X57542937Y-35863902D01*
X57480512Y-35945873D01*
X57449736Y-36010388D01*
X57434222Y-36076132D01*
X57430852Y-36161978D01*
X57433360Y-36230989D01*
X57441960Y-36337565D01*
X57458267Y-36411711D01*
X57487573Y-36471736D01*
X57513555Y-36508536D01*
X57577062Y-36577376D01*
X57647685Y-36634067D01*
X57665663Y-36644812D01*
X57762174Y-36676071D01*
X57883619Y-36687996D01*
X58007971Y-36680618D01*
X58113198Y-36653969D01*
X58134250Y-36644133D01*
X58193225Y-36620778D01*
X58215977Y-36628949D01*
X58198567Y-36664724D01*
X58177842Y-36687528D01*
X58107561Y-36730084D01*
X58003732Y-36760109D01*
X57882531Y-36775489D01*
X57760131Y-36774111D01*
X57657835Y-36755467D01*
X57500165Y-36684081D01*
X57378959Y-36580020D01*
X57297203Y-36448818D01*
X57257882Y-36296008D01*
X57263983Y-36127122D01*
X57280065Y-36055383D01*
X57338002Y-35935545D01*
X57435603Y-35829547D01*
X57562209Y-35744296D01*
X57707160Y-35686695D01*
X57859795Y-35663649D01*
X57884860Y-35663644D01*
X57975682Y-35671845D01*
G36*
X58764215Y-36049078D02*
X58816844Y-36074361D01*
X58849956Y-36109525D01*
X58874778Y-36147892D01*
X58890446Y-36194605D01*
X58898947Y-36261724D01*
X58902264Y-36361308D01*
X58902600Y-36429403D01*
X58903429Y-36545415D01*
X58907155Y-36620352D01*
X58915630Y-36663928D01*
X58930707Y-36685859D01*
X58953400Y-36695640D01*
X58998882Y-36715260D01*
X58998682Y-36734504D01*
X58957747Y-36748839D01*
X58889900Y-36753800D01*
X58818471Y-36750476D01*
X58784695Y-36736674D01*
X58775643Y-36706649D01*
X58775600Y-36703000D01*
X58772272Y-36666235D01*
X58755855Y-36656434D01*
X58716697Y-36674607D01*
X58654056Y-36715700D01*
X58585780Y-36758623D01*
X58537486Y-36774394D01*
X58488899Y-36766846D01*
X58453410Y-36753622D01*
X58385660Y-36701246D01*
X58352833Y-36618510D01*
X58355184Y-36536073D01*
X58479992Y-36536073D01*
X58483607Y-36574909D01*
X58506564Y-36614100D01*
X58561181Y-36666510D01*
X58626711Y-36670729D01*
X58706163Y-36626917D01*
X58708674Y-36624956D01*
X58756872Y-36572162D01*
X58774631Y-36503123D01*
X58775600Y-36472556D01*
X58771011Y-36406567D01*
X58752947Y-36377807D01*
X58726453Y-36372800D01*
X58622489Y-36394404D01*
X58535081Y-36452070D01*
X58507307Y-36485966D01*
X58479992Y-36536073D01*
X58355184Y-36536073D01*
X58355188Y-36535955D01*
X58382988Y-36461536D01*
X58439408Y-36406878D01*
X58532489Y-36366292D01*
X58629199Y-36342074D01*
X58712978Y-36321918D01*
X58757571Y-36301362D01*
X58774225Y-36273899D01*
X58775600Y-36257354D01*
X58754677Y-36187067D01*
X58701252Y-36140384D01*
X58629342Y-36120497D01*
X58552961Y-36130594D01*
X58486125Y-36173865D01*
X58473723Y-36188650D01*
X58421609Y-36258500D01*
X58420804Y-36189302D01*
X58443302Y-36123345D01*
X58508091Y-36074806D01*
X58608548Y-36047381D01*
X58683595Y-36042600D01*
X58764215Y-36049078D01*
X58764215Y-36049078D01*
G37*
X58764215Y-36049078D02*
X58816844Y-36074361D01*
X58849956Y-36109525D01*
X58874778Y-36147892D01*
X58890446Y-36194605D01*
X58898947Y-36261724D01*
X58902264Y-36361308D01*
X58902600Y-36429403D01*
X58903429Y-36545415D01*
X58907155Y-36620352D01*
X58915630Y-36663928D01*
X58930707Y-36685859D01*
X58953400Y-36695640D01*
X58998882Y-36715260D01*
X58998682Y-36734504D01*
X58957747Y-36748839D01*
X58889900Y-36753800D01*
X58818471Y-36750476D01*
X58784695Y-36736674D01*
X58775643Y-36706649D01*
X58775600Y-36703000D01*
X58772272Y-36666235D01*
X58755855Y-36656434D01*
X58716697Y-36674607D01*
X58654056Y-36715700D01*
X58585780Y-36758623D01*
X58537486Y-36774394D01*
X58488899Y-36766846D01*
X58453410Y-36753622D01*
X58385660Y-36701246D01*
X58352833Y-36618510D01*
X58355184Y-36536073D01*
X58479992Y-36536073D01*
X58483607Y-36574909D01*
X58506564Y-36614100D01*
X58561181Y-36666510D01*
X58626711Y-36670729D01*
X58706163Y-36626917D01*
X58708674Y-36624956D01*
X58756872Y-36572162D01*
X58774631Y-36503123D01*
X58775600Y-36472556D01*
X58771011Y-36406567D01*
X58752947Y-36377807D01*
X58726453Y-36372800D01*
X58622489Y-36394404D01*
X58535081Y-36452070D01*
X58507307Y-36485966D01*
X58479992Y-36536073D01*
X58355184Y-36536073D01*
X58355188Y-36535955D01*
X58382988Y-36461536D01*
X58439408Y-36406878D01*
X58532489Y-36366292D01*
X58629199Y-36342074D01*
X58712978Y-36321918D01*
X58757571Y-36301362D01*
X58774225Y-36273899D01*
X58775600Y-36257354D01*
X58754677Y-36187067D01*
X58701252Y-36140384D01*
X58629342Y-36120497D01*
X58552961Y-36130594D01*
X58486125Y-36173865D01*
X58473723Y-36188650D01*
X58421609Y-36258500D01*
X58420804Y-36189302D01*
X58443302Y-36123345D01*
X58508091Y-36074806D01*
X58608548Y-36047381D01*
X58683595Y-36042600D01*
X58764215Y-36049078D01*
G36*
X60441408Y-36049821D02*
X60502591Y-36074243D01*
X60542979Y-36123201D01*
X60566513Y-36203644D01*
X60577134Y-36322521D01*
X60579000Y-36437008D01*
X60579880Y-36550994D01*
X60583815Y-36624066D01*
X60592744Y-36666097D01*
X60608605Y-36686960D01*
X60629800Y-36695640D01*
X60675282Y-36715260D01*
X60675082Y-36734504D01*
X60634147Y-36748839D01*
X60566300Y-36753800D01*
X60494871Y-36750476D01*
X60461095Y-36736674D01*
X60452043Y-36706649D01*
X60452000Y-36703000D01*
X60449571Y-36666869D01*
X60435529Y-36656571D01*
X60399738Y-36673208D01*
X60335283Y-36715700D01*
X60265432Y-36759077D01*
X60214717Y-36774546D01*
X60162499Y-36765806D01*
X60127780Y-36752871D01*
X60071204Y-36706000D01*
X60035173Y-36630675D01*
X60029006Y-36549456D01*
X60172600Y-36549456D01*
X60189711Y-36628661D01*
X60236315Y-36669660D01*
X60305320Y-36669491D01*
X60376498Y-36634622D01*
X60439412Y-36584494D01*
X60468798Y-36533392D01*
X60476885Y-36458281D01*
X60477011Y-36445349D01*
X60477400Y-36352799D01*
X60369825Y-36376970D01*
X60258475Y-36416103D01*
X60193291Y-36473812D01*
X60172600Y-36549456D01*
X60029006Y-36549456D01*
X60028892Y-36547963D01*
X60031798Y-36533244D01*
X60078823Y-36448411D01*
X60171631Y-36384225D01*
X60304380Y-36342326D01*
X60388565Y-36322131D01*
X60433538Y-36301663D01*
X60450508Y-36274470D01*
X60452000Y-36257354D01*
X60431077Y-36187067D01*
X60377652Y-36140384D01*
X60305742Y-36120497D01*
X60229361Y-36130594D01*
X60162525Y-36173865D01*
X60150123Y-36188650D01*
X60098009Y-36258500D01*
X60097204Y-36189302D01*
X60119695Y-36123507D01*
X60184046Y-36074876D01*
X60283024Y-36047505D01*
X60355488Y-36042988D01*
X60441408Y-36049821D01*
X60441408Y-36049821D01*
G37*
X60441408Y-36049821D02*
X60502591Y-36074243D01*
X60542979Y-36123201D01*
X60566513Y-36203644D01*
X60577134Y-36322521D01*
X60579000Y-36437008D01*
X60579880Y-36550994D01*
X60583815Y-36624066D01*
X60592744Y-36666097D01*
X60608605Y-36686960D01*
X60629800Y-36695640D01*
X60675282Y-36715260D01*
X60675082Y-36734504D01*
X60634147Y-36748839D01*
X60566300Y-36753800D01*
X60494871Y-36750476D01*
X60461095Y-36736674D01*
X60452043Y-36706649D01*
X60452000Y-36703000D01*
X60449571Y-36666869D01*
X60435529Y-36656571D01*
X60399738Y-36673208D01*
X60335283Y-36715700D01*
X60265432Y-36759077D01*
X60214717Y-36774546D01*
X60162499Y-36765806D01*
X60127780Y-36752871D01*
X60071204Y-36706000D01*
X60035173Y-36630675D01*
X60029006Y-36549456D01*
X60172600Y-36549456D01*
X60189711Y-36628661D01*
X60236315Y-36669660D01*
X60305320Y-36669491D01*
X60376498Y-36634622D01*
X60439412Y-36584494D01*
X60468798Y-36533392D01*
X60476885Y-36458281D01*
X60477011Y-36445349D01*
X60477400Y-36352799D01*
X60369825Y-36376970D01*
X60258475Y-36416103D01*
X60193291Y-36473812D01*
X60172600Y-36549456D01*
X60029006Y-36549456D01*
X60028892Y-36547963D01*
X60031798Y-36533244D01*
X60078823Y-36448411D01*
X60171631Y-36384225D01*
X60304380Y-36342326D01*
X60388565Y-36322131D01*
X60433538Y-36301663D01*
X60450508Y-36274470D01*
X60452000Y-36257354D01*
X60431077Y-36187067D01*
X60377652Y-36140384D01*
X60305742Y-36120497D01*
X60229361Y-36130594D01*
X60162525Y-36173865D01*
X60150123Y-36188650D01*
X60098009Y-36258500D01*
X60097204Y-36189302D01*
X60119695Y-36123507D01*
X60184046Y-36074876D01*
X60283024Y-36047505D01*
X60355488Y-36042988D01*
X60441408Y-36049821D01*
G36*
X61287515Y-36055349D02*
X61312371Y-36066272D01*
X61342782Y-36099538D01*
X61347880Y-36161512D01*
X61346022Y-36180572D01*
X61332096Y-36240462D01*
X61312796Y-36269731D01*
X61296187Y-36262493D01*
X61290200Y-36221293D01*
X61267218Y-36167496D01*
X61205861Y-36131008D01*
X61125100Y-36118800D01*
X61029853Y-36136527D01*
X60965260Y-36192938D01*
X60934490Y-36258831D01*
X60915184Y-36377724D01*
X60932292Y-36488809D01*
X60979443Y-36584003D01*
X61050265Y-36655219D01*
X61138387Y-36694372D01*
X61237436Y-36693377D01*
X61269279Y-36683684D01*
X61320443Y-36668984D01*
X61339510Y-36679934D01*
X61341000Y-36693135D01*
X61318373Y-36733752D01*
X61259070Y-36761461D01*
X61175952Y-36774596D01*
X61081882Y-36771495D01*
X60989723Y-36750492D01*
X60966850Y-36741542D01*
X60874697Y-36675708D01*
X60813052Y-36578017D01*
X60785356Y-36459599D01*
X60795051Y-36331586D01*
X60817991Y-36260107D01*
X60876480Y-36176567D01*
X60967430Y-36108536D01*
X61076089Y-36061800D01*
X61187702Y-36042143D01*
X61287515Y-36055349D01*
X61287515Y-36055349D01*
G37*
X61287515Y-36055349D02*
X61312371Y-36066272D01*
X61342782Y-36099538D01*
X61347880Y-36161512D01*
X61346022Y-36180572D01*
X61332096Y-36240462D01*
X61312796Y-36269731D01*
X61296187Y-36262493D01*
X61290200Y-36221293D01*
X61267218Y-36167496D01*
X61205861Y-36131008D01*
X61125100Y-36118800D01*
X61029853Y-36136527D01*
X60965260Y-36192938D01*
X60934490Y-36258831D01*
X60915184Y-36377724D01*
X60932292Y-36488809D01*
X60979443Y-36584003D01*
X61050265Y-36655219D01*
X61138387Y-36694372D01*
X61237436Y-36693377D01*
X61269279Y-36683684D01*
X61320443Y-36668984D01*
X61339510Y-36679934D01*
X61341000Y-36693135D01*
X61318373Y-36733752D01*
X61259070Y-36761461D01*
X61175952Y-36774596D01*
X61081882Y-36771495D01*
X60989723Y-36750492D01*
X60966850Y-36741542D01*
X60874697Y-36675708D01*
X60813052Y-36578017D01*
X60785356Y-36459599D01*
X60795051Y-36331586D01*
X60817991Y-36260107D01*
X60876480Y-36176567D01*
X60967430Y-36108536D01*
X61076089Y-36061800D01*
X61187702Y-36042143D01*
X61287515Y-36055349D01*
G36*
X64168376Y-36052297D02*
X64212606Y-36068752D01*
X64267924Y-36120450D01*
X64313426Y-36200294D01*
X64337100Y-36285680D01*
X64338200Y-36305076D01*
X64330385Y-36345198D01*
X64301752Y-36372117D01*
X64244516Y-36388251D01*
X64150889Y-36396021D01*
X64039750Y-36397853D01*
X63944408Y-36399268D01*
X63889121Y-36405100D01*
X63863158Y-36418402D01*
X63855792Y-36442228D01*
X63855600Y-36450261D01*
X63878018Y-36550222D01*
X63937442Y-36628742D01*
X64022124Y-36678656D01*
X64120317Y-36692801D01*
X64212617Y-36667999D01*
X64280288Y-36640407D01*
X64309934Y-36643576D01*
X64300249Y-36677347D01*
X64299542Y-36678501D01*
X64255515Y-36715009D01*
X64180312Y-36748669D01*
X64093373Y-36772283D01*
X64027865Y-36779105D01*
X63948744Y-36765320D01*
X63867412Y-36731849D01*
X63860421Y-36727748D01*
X63775060Y-36648426D01*
X63722834Y-36543033D01*
X63703711Y-36423977D01*
X63717659Y-36303665D01*
X63729572Y-36275989D01*
X63855600Y-36275989D01*
X63855600Y-36347400D01*
X64209929Y-36347400D01*
X64194378Y-36264850D01*
X64158315Y-36165357D01*
X64096627Y-36107796D01*
X64030452Y-36093400D01*
X63950901Y-36116304D01*
X63888366Y-36175204D01*
X63856945Y-36255379D01*
X63855600Y-36275989D01*
X63729572Y-36275989D01*
X63764647Y-36194505D01*
X63844643Y-36108905D01*
X63862033Y-36097272D01*
X63957273Y-36058438D01*
X64066816Y-36042842D01*
X64168376Y-36052297D01*
X64168376Y-36052297D01*
G37*
X64168376Y-36052297D02*
X64212606Y-36068752D01*
X64267924Y-36120450D01*
X64313426Y-36200294D01*
X64337100Y-36285680D01*
X64338200Y-36305076D01*
X64330385Y-36345198D01*
X64301752Y-36372117D01*
X64244516Y-36388251D01*
X64150889Y-36396021D01*
X64039750Y-36397853D01*
X63944408Y-36399268D01*
X63889121Y-36405100D01*
X63863158Y-36418402D01*
X63855792Y-36442228D01*
X63855600Y-36450261D01*
X63878018Y-36550222D01*
X63937442Y-36628742D01*
X64022124Y-36678656D01*
X64120317Y-36692801D01*
X64212617Y-36667999D01*
X64280288Y-36640407D01*
X64309934Y-36643576D01*
X64300249Y-36677347D01*
X64299542Y-36678501D01*
X64255515Y-36715009D01*
X64180312Y-36748669D01*
X64093373Y-36772283D01*
X64027865Y-36779105D01*
X63948744Y-36765320D01*
X63867412Y-36731849D01*
X63860421Y-36727748D01*
X63775060Y-36648426D01*
X63722834Y-36543033D01*
X63703711Y-36423977D01*
X63717659Y-36303665D01*
X63729572Y-36275989D01*
X63855600Y-36275989D01*
X63855600Y-36347400D01*
X64209929Y-36347400D01*
X64194378Y-36264850D01*
X64158315Y-36165357D01*
X64096627Y-36107796D01*
X64030452Y-36093400D01*
X63950901Y-36116304D01*
X63888366Y-36175204D01*
X63856945Y-36255379D01*
X63855600Y-36275989D01*
X63729572Y-36275989D01*
X63764647Y-36194505D01*
X63844643Y-36108905D01*
X63862033Y-36097272D01*
X63957273Y-36058438D01*
X64066816Y-36042842D01*
X64168376Y-36052297D01*
G36*
X68602850Y-36062089D02*
X68708577Y-36119442D01*
X68779177Y-36212990D01*
X68813036Y-36341061D01*
X68815887Y-36407317D01*
X68791432Y-36539840D01*
X68725395Y-36648066D01*
X68623558Y-36726056D01*
X68491706Y-36767873D01*
X68461242Y-36771460D01*
X68362037Y-36771019D01*
X68283341Y-36745703D01*
X68254621Y-36729257D01*
X68165543Y-36645270D01*
X68113894Y-36533704D01*
X68101848Y-36403552D01*
X68110094Y-36364786D01*
X68249800Y-36364786D01*
X68264090Y-36491137D01*
X68302845Y-36595732D01*
X68359889Y-36673246D01*
X68429044Y-36718351D01*
X68504136Y-36725721D01*
X68578989Y-36690030D01*
X68601978Y-36668542D01*
X68656234Y-36581171D01*
X68679423Y-36477181D01*
X68674649Y-36367585D01*
X68645015Y-36263396D01*
X68593626Y-36175628D01*
X68523586Y-36115295D01*
X68439885Y-36093400D01*
X68350438Y-36114787D01*
X68288641Y-36177985D01*
X68255506Y-36281548D01*
X68249800Y-36364786D01*
X68110094Y-36364786D01*
X68131576Y-36263808D01*
X68138062Y-36246801D01*
X68205407Y-36141023D01*
X68305894Y-36072366D01*
X68435423Y-36043403D01*
X68463609Y-36042600D01*
X68602850Y-36062089D01*
X68602850Y-36062089D01*
G37*
X68602850Y-36062089D02*
X68708577Y-36119442D01*
X68779177Y-36212990D01*
X68813036Y-36341061D01*
X68815887Y-36407317D01*
X68791432Y-36539840D01*
X68725395Y-36648066D01*
X68623558Y-36726056D01*
X68491706Y-36767873D01*
X68461242Y-36771460D01*
X68362037Y-36771019D01*
X68283341Y-36745703D01*
X68254621Y-36729257D01*
X68165543Y-36645270D01*
X68113894Y-36533704D01*
X68101848Y-36403552D01*
X68110094Y-36364786D01*
X68249800Y-36364786D01*
X68264090Y-36491137D01*
X68302845Y-36595732D01*
X68359889Y-36673246D01*
X68429044Y-36718351D01*
X68504136Y-36725721D01*
X68578989Y-36690030D01*
X68601978Y-36668542D01*
X68656234Y-36581171D01*
X68679423Y-36477181D01*
X68674649Y-36367585D01*
X68645015Y-36263396D01*
X68593626Y-36175628D01*
X68523586Y-36115295D01*
X68439885Y-36093400D01*
X68350438Y-36114787D01*
X68288641Y-36177985D01*
X68255506Y-36281548D01*
X68249800Y-36364786D01*
X68110094Y-36364786D01*
X68131576Y-36263808D01*
X68138062Y-36246801D01*
X68205407Y-36141023D01*
X68305894Y-36072366D01*
X68435423Y-36043403D01*
X68463609Y-36042600D01*
X68602850Y-36062089D01*
G36*
X61677724Y-36053870D02*
X61688093Y-36078059D01*
X61694475Y-36128494D01*
X61698459Y-36212942D01*
X61701633Y-36339172D01*
X61702170Y-36363691D01*
X61705471Y-36497575D01*
X61709552Y-36589043D01*
X61716023Y-36646475D01*
X61726493Y-36678248D01*
X61742570Y-36692741D01*
X61765864Y-36698333D01*
X61766450Y-36698416D01*
X61811112Y-36713690D01*
X61823600Y-36730166D01*
X61800277Y-36741462D01*
X61738585Y-36749819D01*
X61650932Y-36753696D01*
X61633100Y-36753800D01*
X61542046Y-36750906D01*
X61474687Y-36743253D01*
X61443433Y-36732378D01*
X61442600Y-36730166D01*
X61464196Y-36708629D01*
X61499750Y-36698416D01*
X61525049Y-36692147D01*
X61541872Y-36675797D01*
X61552323Y-36640166D01*
X61558509Y-36576056D01*
X61562534Y-36474268D01*
X61564109Y-36417250D01*
X61571318Y-36144200D01*
X61506959Y-36144200D01*
X61454344Y-36135295D01*
X61447152Y-36114835D01*
X61484520Y-36092201D01*
X61512450Y-36084486D01*
X61587487Y-36066699D01*
X61638670Y-36053152D01*
X61661779Y-36048157D01*
X61677724Y-36053870D01*
X61677724Y-36053870D01*
G37*
X61677724Y-36053870D02*
X61688093Y-36078059D01*
X61694475Y-36128494D01*
X61698459Y-36212942D01*
X61701633Y-36339172D01*
X61702170Y-36363691D01*
X61705471Y-36497575D01*
X61709552Y-36589043D01*
X61716023Y-36646475D01*
X61726493Y-36678248D01*
X61742570Y-36692741D01*
X61765864Y-36698333D01*
X61766450Y-36698416D01*
X61811112Y-36713690D01*
X61823600Y-36730166D01*
X61800277Y-36741462D01*
X61738585Y-36749819D01*
X61650932Y-36753696D01*
X61633100Y-36753800D01*
X61542046Y-36750906D01*
X61474687Y-36743253D01*
X61443433Y-36732378D01*
X61442600Y-36730166D01*
X61464196Y-36708629D01*
X61499750Y-36698416D01*
X61525049Y-36692147D01*
X61541872Y-36675797D01*
X61552323Y-36640166D01*
X61558509Y-36576056D01*
X61562534Y-36474268D01*
X61564109Y-36417250D01*
X61571318Y-36144200D01*
X61506959Y-36144200D01*
X61454344Y-36135295D01*
X61447152Y-36114835D01*
X61484520Y-36092201D01*
X61512450Y-36084486D01*
X61587487Y-36066699D01*
X61638670Y-36053152D01*
X61661779Y-36048157D01*
X61677724Y-36053870D01*
G36*
X62135415Y-35823823D02*
X62144418Y-35868367D01*
X62137824Y-35953700D01*
X62121405Y-36093400D01*
X62226502Y-36093400D01*
X62298457Y-36099279D01*
X62329070Y-36118926D01*
X62331600Y-36131500D01*
X62314823Y-36157992D01*
X62259209Y-36168908D01*
X62230000Y-36169600D01*
X62128400Y-36169600D01*
X62128400Y-36383685D01*
X62132642Y-36512620D01*
X62147630Y-36597717D01*
X62176751Y-36645402D01*
X62223393Y-36662102D01*
X62273016Y-36657956D01*
X62321926Y-36650762D01*
X62326586Y-36662586D01*
X62295913Y-36699304D01*
X62230097Y-36742746D01*
X62149234Y-36753800D01*
X62080722Y-36747837D01*
X62043751Y-36723415D01*
X62026171Y-36688646D01*
X62014896Y-36633962D01*
X62006307Y-36544651D01*
X62001775Y-36436870D01*
X62001400Y-36396546D01*
X62000539Y-36288403D01*
X61996510Y-36221348D01*
X61987140Y-36185680D01*
X61970258Y-36171696D01*
X61950600Y-36169600D01*
X61909307Y-36160192D01*
X61899800Y-36147162D01*
X61920938Y-36123447D01*
X61950600Y-36111440D01*
X61982947Y-36093245D01*
X61998011Y-36051623D01*
X62001400Y-35982371D01*
X62007479Y-35901748D01*
X62029082Y-35856244D01*
X62050530Y-35840293D01*
X62105714Y-35816537D01*
X62135415Y-35823823D01*
X62135415Y-35823823D01*
G37*
X62135415Y-35823823D02*
X62144418Y-35868367D01*
X62137824Y-35953700D01*
X62121405Y-36093400D01*
X62226502Y-36093400D01*
X62298457Y-36099279D01*
X62329070Y-36118926D01*
X62331600Y-36131500D01*
X62314823Y-36157992D01*
X62259209Y-36168908D01*
X62230000Y-36169600D01*
X62128400Y-36169600D01*
X62128400Y-36383685D01*
X62132642Y-36512620D01*
X62147630Y-36597717D01*
X62176751Y-36645402D01*
X62223393Y-36662102D01*
X62273016Y-36657956D01*
X62321926Y-36650762D01*
X62326586Y-36662586D01*
X62295913Y-36699304D01*
X62230097Y-36742746D01*
X62149234Y-36753800D01*
X62080722Y-36747837D01*
X62043751Y-36723415D01*
X62026171Y-36688646D01*
X62014896Y-36633962D01*
X62006307Y-36544651D01*
X62001775Y-36436870D01*
X62001400Y-36396546D01*
X62000539Y-36288403D01*
X61996510Y-36221348D01*
X61987140Y-36185680D01*
X61970258Y-36171696D01*
X61950600Y-36169600D01*
X61909307Y-36160192D01*
X61899800Y-36147162D01*
X61920938Y-36123447D01*
X61950600Y-36111440D01*
X61982947Y-36093245D01*
X61998011Y-36051623D01*
X62001400Y-35982371D01*
X62007479Y-35901748D01*
X62029082Y-35856244D01*
X62050530Y-35840293D01*
X62105714Y-35816537D01*
X62135415Y-35823823D01*
G36*
X62617524Y-36053870D02*
X62627893Y-36078059D01*
X62634275Y-36128494D01*
X62638259Y-36212942D01*
X62641433Y-36339172D01*
X62641970Y-36363691D01*
X62645271Y-36497575D01*
X62649352Y-36589043D01*
X62655823Y-36646475D01*
X62666293Y-36678248D01*
X62682370Y-36692741D01*
X62705664Y-36698333D01*
X62706250Y-36698416D01*
X62750912Y-36713690D01*
X62763400Y-36730166D01*
X62740077Y-36741462D01*
X62678385Y-36749819D01*
X62590732Y-36753696D01*
X62572900Y-36753800D01*
X62476911Y-36750648D01*
X62410007Y-36742116D01*
X62382578Y-36729591D01*
X62382400Y-36728400D01*
X62404136Y-36709306D01*
X62445900Y-36703000D01*
X62509400Y-36703000D01*
X62509400Y-36144200D01*
X62445900Y-36144200D01*
X62393836Y-36135274D01*
X62387029Y-36114784D01*
X62424474Y-36092160D01*
X62452250Y-36084486D01*
X62527287Y-36066699D01*
X62578470Y-36053152D01*
X62601579Y-36048157D01*
X62617524Y-36053870D01*
X62617524Y-36053870D01*
G37*
X62617524Y-36053870D02*
X62627893Y-36078059D01*
X62634275Y-36128494D01*
X62638259Y-36212942D01*
X62641433Y-36339172D01*
X62641970Y-36363691D01*
X62645271Y-36497575D01*
X62649352Y-36589043D01*
X62655823Y-36646475D01*
X62666293Y-36678248D01*
X62682370Y-36692741D01*
X62705664Y-36698333D01*
X62706250Y-36698416D01*
X62750912Y-36713690D01*
X62763400Y-36730166D01*
X62740077Y-36741462D01*
X62678385Y-36749819D01*
X62590732Y-36753696D01*
X62572900Y-36753800D01*
X62476911Y-36750648D01*
X62410007Y-36742116D01*
X62382578Y-36729591D01*
X62382400Y-36728400D01*
X62404136Y-36709306D01*
X62445900Y-36703000D01*
X62509400Y-36703000D01*
X62509400Y-36144200D01*
X62445900Y-36144200D01*
X62393836Y-36135274D01*
X62387029Y-36114784D01*
X62424474Y-36092160D01*
X62452250Y-36084486D01*
X62527287Y-36066699D01*
X62578470Y-36053152D01*
X62601579Y-36048157D01*
X62617524Y-36053870D01*
G36*
X63552577Y-36046716D02*
X63594820Y-36059915D01*
X63590391Y-36083474D01*
X63555188Y-36110164D01*
X63529835Y-36142085D01*
X63490157Y-36210155D01*
X63441389Y-36303639D01*
X63388772Y-36411806D01*
X63337541Y-36523920D01*
X63292935Y-36629250D01*
X63262791Y-36709350D01*
X63232419Y-36748840D01*
X63190770Y-36745695D01*
X63148601Y-36703048D01*
X63132085Y-36671250D01*
X63107115Y-36612304D01*
X63068683Y-36521286D01*
X63023016Y-36412950D01*
X62995418Y-36347400D01*
X62946358Y-36238978D01*
X62901964Y-36155930D01*
X62867210Y-36107035D01*
X62854036Y-36097887D01*
X62819062Y-36078374D01*
X62814200Y-36066137D01*
X62837448Y-36054536D01*
X62898629Y-36046130D01*
X62984900Y-36042618D01*
X62992000Y-36042600D01*
X63083207Y-36045956D01*
X63146230Y-36054951D01*
X63169799Y-36067975D01*
X63169800Y-36068000D01*
X63148593Y-36088841D01*
X63120499Y-36093400D01*
X63074058Y-36102019D01*
X63059617Y-36112450D01*
X63063610Y-36142617D01*
X63083613Y-36208791D01*
X63116095Y-36300086D01*
X63143593Y-36371179D01*
X63187364Y-36479788D01*
X63219483Y-36546549D01*
X63245685Y-36570449D01*
X63271703Y-36550474D01*
X63303273Y-36485612D01*
X63346127Y-36374848D01*
X63362018Y-36332579D01*
X63400921Y-36223041D01*
X63418981Y-36152064D01*
X63416547Y-36112043D01*
X63393967Y-36095372D01*
X63373000Y-36093400D01*
X63331725Y-36082763D01*
X63322200Y-36068000D01*
X63345165Y-36054090D01*
X63404407Y-36044864D01*
X63461900Y-36042600D01*
X63552577Y-36046716D01*
X63552577Y-36046716D01*
G37*
X63552577Y-36046716D02*
X63594820Y-36059915D01*
X63590391Y-36083474D01*
X63555188Y-36110164D01*
X63529835Y-36142085D01*
X63490157Y-36210155D01*
X63441389Y-36303639D01*
X63388772Y-36411806D01*
X63337541Y-36523920D01*
X63292935Y-36629250D01*
X63262791Y-36709350D01*
X63232419Y-36748840D01*
X63190770Y-36745695D01*
X63148601Y-36703048D01*
X63132085Y-36671250D01*
X63107115Y-36612304D01*
X63068683Y-36521286D01*
X63023016Y-36412950D01*
X62995418Y-36347400D01*
X62946358Y-36238978D01*
X62901964Y-36155930D01*
X62867210Y-36107035D01*
X62854036Y-36097887D01*
X62819062Y-36078374D01*
X62814200Y-36066137D01*
X62837448Y-36054536D01*
X62898629Y-36046130D01*
X62984900Y-36042618D01*
X62992000Y-36042600D01*
X63083207Y-36045956D01*
X63146230Y-36054951D01*
X63169799Y-36067975D01*
X63169800Y-36068000D01*
X63148593Y-36088841D01*
X63120499Y-36093400D01*
X63074058Y-36102019D01*
X63059617Y-36112450D01*
X63063610Y-36142617D01*
X63083613Y-36208791D01*
X63116095Y-36300086D01*
X63143593Y-36371179D01*
X63187364Y-36479788D01*
X63219483Y-36546549D01*
X63245685Y-36570449D01*
X63271703Y-36550474D01*
X63303273Y-36485612D01*
X63346127Y-36374848D01*
X63362018Y-36332579D01*
X63400921Y-36223041D01*
X63418981Y-36152064D01*
X63416547Y-36112043D01*
X63393967Y-36095372D01*
X63373000Y-36093400D01*
X63331725Y-36082763D01*
X63322200Y-36068000D01*
X63345165Y-36054090D01*
X63404407Y-36044864D01*
X63461900Y-36042600D01*
X63552577Y-36046716D01*
G36*
X65292921Y-35690857D02*
X65431378Y-35694721D01*
X65528438Y-35699230D01*
X65593487Y-35706234D01*
X65635913Y-35717585D01*
X65665105Y-35735132D01*
X65690448Y-35760726D01*
X65699321Y-35770966D01*
X65749984Y-35863723D01*
X65755838Y-35962760D01*
X65720154Y-36057969D01*
X65646206Y-36139241D01*
X65564905Y-36186107D01*
X65510477Y-36212785D01*
X65496343Y-36236460D01*
X65512020Y-36266305D01*
X65633261Y-36428276D01*
X65732466Y-36554592D01*
X65808077Y-36643393D01*
X65858538Y-36692821D01*
X65877977Y-36703000D01*
X65909754Y-36717752D01*
X65913000Y-36728400D01*
X65890348Y-36743778D01*
X65833253Y-36752805D01*
X65802757Y-36753800D01*
X65692515Y-36753800D01*
X65485257Y-36473757D01*
X65409837Y-36371020D01*
X65346688Y-36283415D01*
X65301323Y-36218711D01*
X65279254Y-36184679D01*
X65278000Y-36181657D01*
X65300574Y-36174138D01*
X65357034Y-36169926D01*
X65380754Y-36169600D01*
X65486400Y-36148808D01*
X65563061Y-36090912D01*
X65603621Y-36002631D01*
X65608200Y-35954854D01*
X65592181Y-35861630D01*
X65541644Y-35800763D01*
X65452868Y-35769303D01*
X65366327Y-35763200D01*
X65226054Y-35763200D01*
X65239900Y-36690300D01*
X65309750Y-36698337D01*
X65360488Y-36711632D01*
X65379600Y-36730087D01*
X65356095Y-36740529D01*
X65293134Y-36748625D01*
X65202049Y-36753199D01*
X65151000Y-36753800D01*
X65050334Y-36751361D01*
X64972285Y-36744830D01*
X64928184Y-36735382D01*
X64922400Y-36730087D01*
X64944366Y-36710334D01*
X64992250Y-36698337D01*
X65062100Y-36690300D01*
X65062100Y-36220400D01*
X65061948Y-36055409D01*
X65060942Y-35934282D01*
X65058252Y-35850079D01*
X65053047Y-35795865D01*
X65044500Y-35764702D01*
X65031779Y-35749652D01*
X65014057Y-35743778D01*
X65004950Y-35742383D01*
X64960280Y-35726162D01*
X64947800Y-35708141D01*
X64972823Y-35696918D01*
X65046815Y-35690440D01*
X65168161Y-35688788D01*
X65292921Y-35690857D01*
X65292921Y-35690857D01*
G37*
X65292921Y-35690857D02*
X65431378Y-35694721D01*
X65528438Y-35699230D01*
X65593487Y-35706234D01*
X65635913Y-35717585D01*
X65665105Y-35735132D01*
X65690448Y-35760726D01*
X65699321Y-35770966D01*
X65749984Y-35863723D01*
X65755838Y-35962760D01*
X65720154Y-36057969D01*
X65646206Y-36139241D01*
X65564905Y-36186107D01*
X65510477Y-36212785D01*
X65496343Y-36236460D01*
X65512020Y-36266305D01*
X65633261Y-36428276D01*
X65732466Y-36554592D01*
X65808077Y-36643393D01*
X65858538Y-36692821D01*
X65877977Y-36703000D01*
X65909754Y-36717752D01*
X65913000Y-36728400D01*
X65890348Y-36743778D01*
X65833253Y-36752805D01*
X65802757Y-36753800D01*
X65692515Y-36753800D01*
X65485257Y-36473757D01*
X65409837Y-36371020D01*
X65346688Y-36283415D01*
X65301323Y-36218711D01*
X65279254Y-36184679D01*
X65278000Y-36181657D01*
X65300574Y-36174138D01*
X65357034Y-36169926D01*
X65380754Y-36169600D01*
X65486400Y-36148808D01*
X65563061Y-36090912D01*
X65603621Y-36002631D01*
X65608200Y-35954854D01*
X65592181Y-35861630D01*
X65541644Y-35800763D01*
X65452868Y-35769303D01*
X65366327Y-35763200D01*
X65226054Y-35763200D01*
X65239900Y-36690300D01*
X65309750Y-36698337D01*
X65360488Y-36711632D01*
X65379600Y-36730087D01*
X65356095Y-36740529D01*
X65293134Y-36748625D01*
X65202049Y-36753199D01*
X65151000Y-36753800D01*
X65050334Y-36751361D01*
X64972285Y-36744830D01*
X64928184Y-36735382D01*
X64922400Y-36730087D01*
X64944366Y-36710334D01*
X64992250Y-36698337D01*
X65062100Y-36690300D01*
X65062100Y-36220400D01*
X65061948Y-36055409D01*
X65060942Y-35934282D01*
X65058252Y-35850079D01*
X65053047Y-35795865D01*
X65044500Y-35764702D01*
X65031779Y-35749652D01*
X65014057Y-35743778D01*
X65004950Y-35742383D01*
X64960280Y-35726162D01*
X64947800Y-35708141D01*
X64972823Y-35696918D01*
X65046815Y-35690440D01*
X65168161Y-35688788D01*
X65292921Y-35690857D01*
G36*
X66182657Y-36066320D02*
X66187832Y-36130775D01*
X66191264Y-36225901D01*
X66192400Y-36332622D01*
X66193555Y-36478128D01*
X66198073Y-36580253D01*
X66207526Y-36646387D01*
X66223490Y-36683919D01*
X66247537Y-36700237D01*
X66271317Y-36703000D01*
X66311092Y-36714172D01*
X66319400Y-36728400D01*
X66295762Y-36741198D01*
X66231776Y-36750118D01*
X66137833Y-36753776D01*
X66128900Y-36753800D01*
X66032911Y-36750648D01*
X65966007Y-36742116D01*
X65938578Y-36729591D01*
X65938400Y-36728400D01*
X65960136Y-36709306D01*
X66001900Y-36703000D01*
X66065400Y-36703000D01*
X66065400Y-36423600D01*
X66064815Y-36301323D01*
X66061997Y-36221061D01*
X66055348Y-36174032D01*
X66043273Y-36151453D01*
X66024174Y-36144543D01*
X66014600Y-36144200D01*
X65970266Y-36136392D01*
X65969812Y-36116823D01*
X66009439Y-36091274D01*
X66061996Y-36072020D01*
X66127824Y-36053395D01*
X66170858Y-36043233D01*
X66176296Y-36042600D01*
X66182657Y-36066320D01*
X66182657Y-36066320D01*
G37*
X66182657Y-36066320D02*
X66187832Y-36130775D01*
X66191264Y-36225901D01*
X66192400Y-36332622D01*
X66193555Y-36478128D01*
X66198073Y-36580253D01*
X66207526Y-36646387D01*
X66223490Y-36683919D01*
X66247537Y-36700237D01*
X66271317Y-36703000D01*
X66311092Y-36714172D01*
X66319400Y-36728400D01*
X66295762Y-36741198D01*
X66231776Y-36750118D01*
X66137833Y-36753776D01*
X66128900Y-36753800D01*
X66032911Y-36750648D01*
X65966007Y-36742116D01*
X65938578Y-36729591D01*
X65938400Y-36728400D01*
X65960136Y-36709306D01*
X66001900Y-36703000D01*
X66065400Y-36703000D01*
X66065400Y-36423600D01*
X66064815Y-36301323D01*
X66061997Y-36221061D01*
X66055348Y-36174032D01*
X66043273Y-36151453D01*
X66024174Y-36144543D01*
X66014600Y-36144200D01*
X65970266Y-36136392D01*
X65969812Y-36116823D01*
X66009439Y-36091274D01*
X66061996Y-36072020D01*
X66127824Y-36053395D01*
X66170858Y-36043233D01*
X66176296Y-36042600D01*
X66182657Y-36066320D01*
G36*
X66586874Y-35657519D02*
X66594331Y-35695237D01*
X66597824Y-35765946D01*
X66598785Y-35877827D01*
X66598800Y-35902440D01*
X66598800Y-36174115D01*
X66676948Y-36108357D01*
X66775053Y-36051708D01*
X66872688Y-36039316D01*
X66963003Y-36065042D01*
X67039146Y-36122746D01*
X67094266Y-36206288D01*
X67121511Y-36309529D01*
X67114031Y-36426329D01*
X67096503Y-36484341D01*
X67034296Y-36589613D01*
X66942669Y-36673781D01*
X66833529Y-36731290D01*
X66718786Y-36756589D01*
X66610347Y-36744124D01*
X66573271Y-36728331D01*
X66524967Y-36716679D01*
X66509942Y-36728331D01*
X66493257Y-36748137D01*
X66480534Y-36743544D01*
X66471283Y-36709942D01*
X66465010Y-36642722D01*
X66461224Y-36537275D01*
X66459852Y-36423778D01*
X66598800Y-36423778D01*
X66600823Y-36529293D01*
X66608351Y-36595256D01*
X66623570Y-36632806D01*
X66643250Y-36650165D01*
X66726084Y-36674273D01*
X66821311Y-36669131D01*
X66897219Y-36638570D01*
X66954674Y-36570142D01*
X66986318Y-36474082D01*
X66991091Y-36367119D01*
X66967934Y-36265984D01*
X66925187Y-36196759D01*
X66854975Y-36155037D01*
X66765526Y-36145926D01*
X66677361Y-36170414D01*
X66655251Y-36183740D01*
X66626549Y-36209299D01*
X66609569Y-36244609D01*
X66601334Y-36302335D01*
X66598865Y-36395142D01*
X66598800Y-36423778D01*
X66459852Y-36423778D01*
X66459431Y-36388989D01*
X66459100Y-36252173D01*
X66458970Y-36080934D01*
X66458080Y-35953789D01*
X66455677Y-35864030D01*
X66451010Y-35804952D01*
X66443327Y-35769849D01*
X66431876Y-35752013D01*
X66415905Y-35744738D01*
X66401950Y-35742383D01*
X66353327Y-35727268D01*
X66351699Y-35706713D01*
X66394586Y-35686824D01*
X66427350Y-35679784D01*
X66499599Y-35664609D01*
X66554350Y-35648343D01*
X66574024Y-35644614D01*
X66586874Y-35657519D01*
X66586874Y-35657519D01*
G37*
X66586874Y-35657519D02*
X66594331Y-35695237D01*
X66597824Y-35765946D01*
X66598785Y-35877827D01*
X66598800Y-35902440D01*
X66598800Y-36174115D01*
X66676948Y-36108357D01*
X66775053Y-36051708D01*
X66872688Y-36039316D01*
X66963003Y-36065042D01*
X67039146Y-36122746D01*
X67094266Y-36206288D01*
X67121511Y-36309529D01*
X67114031Y-36426329D01*
X67096503Y-36484341D01*
X67034296Y-36589613D01*
X66942669Y-36673781D01*
X66833529Y-36731290D01*
X66718786Y-36756589D01*
X66610347Y-36744124D01*
X66573271Y-36728331D01*
X66524967Y-36716679D01*
X66509942Y-36728331D01*
X66493257Y-36748137D01*
X66480534Y-36743544D01*
X66471283Y-36709942D01*
X66465010Y-36642722D01*
X66461224Y-36537275D01*
X66459852Y-36423778D01*
X66598800Y-36423778D01*
X66600823Y-36529293D01*
X66608351Y-36595256D01*
X66623570Y-36632806D01*
X66643250Y-36650165D01*
X66726084Y-36674273D01*
X66821311Y-36669131D01*
X66897219Y-36638570D01*
X66954674Y-36570142D01*
X66986318Y-36474082D01*
X66991091Y-36367119D01*
X66967934Y-36265984D01*
X66925187Y-36196759D01*
X66854975Y-36155037D01*
X66765526Y-36145926D01*
X66677361Y-36170414D01*
X66655251Y-36183740D01*
X66626549Y-36209299D01*
X66609569Y-36244609D01*
X66601334Y-36302335D01*
X66598865Y-36395142D01*
X66598800Y-36423778D01*
X66459852Y-36423778D01*
X66459431Y-36388989D01*
X66459100Y-36252173D01*
X66458970Y-36080934D01*
X66458080Y-35953789D01*
X66455677Y-35864030D01*
X66451010Y-35804952D01*
X66443327Y-35769849D01*
X66431876Y-35752013D01*
X66415905Y-35744738D01*
X66401950Y-35742383D01*
X66353327Y-35727268D01*
X66351699Y-35706713D01*
X66394586Y-35686824D01*
X66427350Y-35679784D01*
X66499599Y-35664609D01*
X66554350Y-35648343D01*
X66574024Y-35644614D01*
X66586874Y-35657519D01*
G36*
X67425074Y-35657519D02*
X67432531Y-35695237D01*
X67436024Y-35765946D01*
X67436985Y-35877827D01*
X67437000Y-35902440D01*
X67437000Y-36174115D01*
X67515148Y-36108357D01*
X67607809Y-36057019D01*
X67711376Y-36040647D01*
X67808873Y-36059848D01*
X67865566Y-36095839D01*
X67939307Y-36195573D01*
X67969405Y-36309872D01*
X67957221Y-36429733D01*
X67904116Y-36546157D01*
X67811452Y-36650142D01*
X67777785Y-36676391D01*
X67716367Y-36717187D01*
X67662817Y-36739935D01*
X67598794Y-36749137D01*
X67505956Y-36749295D01*
X67483367Y-36748668D01*
X67297300Y-36743134D01*
X67297300Y-36435037D01*
X67437000Y-36435037D01*
X67440890Y-36547367D01*
X67457216Y-36618450D01*
X67492959Y-36657548D01*
X67555103Y-36673919D01*
X67619306Y-36676827D01*
X67698790Y-36665319D01*
X67756110Y-36621956D01*
X67764688Y-36611523D01*
X67811843Y-36522558D01*
X67832685Y-36419424D01*
X67827985Y-36316762D01*
X67798513Y-36229213D01*
X67745040Y-36171419D01*
X67741435Y-36169405D01*
X67655371Y-36145661D01*
X67564164Y-36153905D01*
X67491147Y-36191781D01*
X67487800Y-36195000D01*
X67460378Y-36231851D01*
X67444745Y-36282985D01*
X67437997Y-36362120D01*
X67437000Y-36435037D01*
X67297300Y-36435037D01*
X67297300Y-36246817D01*
X67297167Y-36076618D01*
X67296258Y-35950474D01*
X67293810Y-35861643D01*
X67289059Y-35803381D01*
X67281241Y-35768944D01*
X67269591Y-35751588D01*
X67253345Y-35744569D01*
X67240150Y-35742383D01*
X67191527Y-35727268D01*
X67189899Y-35706713D01*
X67232786Y-35686824D01*
X67265550Y-35679784D01*
X67337799Y-35664609D01*
X67392550Y-35648343D01*
X67412224Y-35644614D01*
X67425074Y-35657519D01*
X67425074Y-35657519D01*
G37*
X67425074Y-35657519D02*
X67432531Y-35695237D01*
X67436024Y-35765946D01*
X67436985Y-35877827D01*
X67437000Y-35902440D01*
X67437000Y-36174115D01*
X67515148Y-36108357D01*
X67607809Y-36057019D01*
X67711376Y-36040647D01*
X67808873Y-36059848D01*
X67865566Y-36095839D01*
X67939307Y-36195573D01*
X67969405Y-36309872D01*
X67957221Y-36429733D01*
X67904116Y-36546157D01*
X67811452Y-36650142D01*
X67777785Y-36676391D01*
X67716367Y-36717187D01*
X67662817Y-36739935D01*
X67598794Y-36749137D01*
X67505956Y-36749295D01*
X67483367Y-36748668D01*
X67297300Y-36743134D01*
X67297300Y-36435037D01*
X67437000Y-36435037D01*
X67440890Y-36547367D01*
X67457216Y-36618450D01*
X67492959Y-36657548D01*
X67555103Y-36673919D01*
X67619306Y-36676827D01*
X67698790Y-36665319D01*
X67756110Y-36621956D01*
X67764688Y-36611523D01*
X67811843Y-36522558D01*
X67832685Y-36419424D01*
X67827985Y-36316762D01*
X67798513Y-36229213D01*
X67745040Y-36171419D01*
X67741435Y-36169405D01*
X67655371Y-36145661D01*
X67564164Y-36153905D01*
X67491147Y-36191781D01*
X67487800Y-36195000D01*
X67460378Y-36231851D01*
X67444745Y-36282985D01*
X67437997Y-36362120D01*
X67437000Y-36435037D01*
X67297300Y-36435037D01*
X67297300Y-36246817D01*
X67297167Y-36076618D01*
X67296258Y-35950474D01*
X67293810Y-35861643D01*
X67289059Y-35803381D01*
X67281241Y-35768944D01*
X67269591Y-35751588D01*
X67253345Y-35744569D01*
X67240150Y-35742383D01*
X67191527Y-35727268D01*
X67189899Y-35706713D01*
X67232786Y-35686824D01*
X67265550Y-35679784D01*
X67337799Y-35664609D01*
X67392550Y-35648343D01*
X67412224Y-35644614D01*
X67425074Y-35657519D01*
G36*
X69501433Y-36062435D02*
X69548736Y-36091063D01*
X69575621Y-36116937D01*
X69593870Y-36149906D01*
X69605861Y-36200570D01*
X69613972Y-36279529D01*
X69620582Y-36397384D01*
X69621400Y-36414913D01*
X69627584Y-36536181D01*
X69634255Y-36615824D01*
X69643664Y-36662986D01*
X69658064Y-36686810D01*
X69679709Y-36696440D01*
X69691250Y-36698416D01*
X69741418Y-36712133D01*
X69747361Y-36729005D01*
X69715031Y-36744253D01*
X69650380Y-36753099D01*
X69622259Y-36753800D01*
X69496118Y-36753800D01*
X69488909Y-36483420D01*
X69485087Y-36362918D01*
X69479589Y-36282406D01*
X69469839Y-36231078D01*
X69453260Y-36198133D01*
X69427277Y-36172767D01*
X69412058Y-36161116D01*
X69363133Y-36128839D01*
X69324041Y-36123565D01*
X69270058Y-36143771D01*
X69253975Y-36151367D01*
X69200611Y-36183073D01*
X69166233Y-36224129D01*
X69147560Y-36284932D01*
X69141312Y-36375875D01*
X69143915Y-36500099D01*
X69149046Y-36597619D01*
X69157201Y-36655446D01*
X69172004Y-36684680D01*
X69197078Y-36696425D01*
X69208650Y-36698416D01*
X69253312Y-36713690D01*
X69265800Y-36730166D01*
X69242477Y-36741462D01*
X69180785Y-36749819D01*
X69093132Y-36753696D01*
X69075300Y-36753800D01*
X68979311Y-36750648D01*
X68912407Y-36742116D01*
X68884978Y-36729591D01*
X68884800Y-36728400D01*
X68906536Y-36709306D01*
X68948300Y-36703000D01*
X69011800Y-36703000D01*
X69011800Y-36144200D01*
X68948300Y-36144200D01*
X68895974Y-36137184D01*
X68888631Y-36119437D01*
X68922931Y-36095909D01*
X68995539Y-36071549D01*
X68997647Y-36071015D01*
X69077353Y-36051476D01*
X69119495Y-36046709D01*
X69136009Y-36060083D01*
X69138836Y-36094967D01*
X69138800Y-36110852D01*
X69138800Y-36179104D01*
X69210039Y-36110852D01*
X69298215Y-36057522D01*
X69401469Y-36041026D01*
X69501433Y-36062435D01*
X69501433Y-36062435D01*
G37*
X69501433Y-36062435D02*
X69548736Y-36091063D01*
X69575621Y-36116937D01*
X69593870Y-36149906D01*
X69605861Y-36200570D01*
X69613972Y-36279529D01*
X69620582Y-36397384D01*
X69621400Y-36414913D01*
X69627584Y-36536181D01*
X69634255Y-36615824D01*
X69643664Y-36662986D01*
X69658064Y-36686810D01*
X69679709Y-36696440D01*
X69691250Y-36698416D01*
X69741418Y-36712133D01*
X69747361Y-36729005D01*
X69715031Y-36744253D01*
X69650380Y-36753099D01*
X69622259Y-36753800D01*
X69496118Y-36753800D01*
X69488909Y-36483420D01*
X69485087Y-36362918D01*
X69479589Y-36282406D01*
X69469839Y-36231078D01*
X69453260Y-36198133D01*
X69427277Y-36172767D01*
X69412058Y-36161116D01*
X69363133Y-36128839D01*
X69324041Y-36123565D01*
X69270058Y-36143771D01*
X69253975Y-36151367D01*
X69200611Y-36183073D01*
X69166233Y-36224129D01*
X69147560Y-36284932D01*
X69141312Y-36375875D01*
X69143915Y-36500099D01*
X69149046Y-36597619D01*
X69157201Y-36655446D01*
X69172004Y-36684680D01*
X69197078Y-36696425D01*
X69208650Y-36698416D01*
X69253312Y-36713690D01*
X69265800Y-36730166D01*
X69242477Y-36741462D01*
X69180785Y-36749819D01*
X69093132Y-36753696D01*
X69075300Y-36753800D01*
X68979311Y-36750648D01*
X68912407Y-36742116D01*
X68884978Y-36729591D01*
X68884800Y-36728400D01*
X68906536Y-36709306D01*
X68948300Y-36703000D01*
X69011800Y-36703000D01*
X69011800Y-36144200D01*
X68948300Y-36144200D01*
X68895974Y-36137184D01*
X68888631Y-36119437D01*
X68922931Y-36095909D01*
X68995539Y-36071549D01*
X68997647Y-36071015D01*
X69077353Y-36051476D01*
X69119495Y-36046709D01*
X69136009Y-36060083D01*
X69138836Y-36094967D01*
X69138800Y-36110852D01*
X69138800Y-36179104D01*
X69210039Y-36110852D01*
X69298215Y-36057522D01*
X69401469Y-36041026D01*
X69501433Y-36062435D01*
G36*
X64739572Y-36323240D02*
X64809784Y-36326532D01*
X64844487Y-36331235D01*
X64846200Y-36332622D01*
X64838049Y-36376694D01*
X64807724Y-36404192D01*
X64746412Y-36418616D01*
X64645302Y-36423469D01*
X64617260Y-36423600D01*
X64518211Y-36422689D01*
X64460301Y-36418189D01*
X64433879Y-36407448D01*
X64429294Y-36387811D01*
X64432440Y-36372800D01*
X64444336Y-36347165D01*
X64470774Y-36331912D01*
X64522750Y-36324425D01*
X64611257Y-36322087D01*
X64645962Y-36322000D01*
X64739572Y-36323240D01*
X64739572Y-36323240D01*
G37*
X64739572Y-36323240D02*
X64809784Y-36326532D01*
X64844487Y-36331235D01*
X64846200Y-36332622D01*
X64838049Y-36376694D01*
X64807724Y-36404192D01*
X64746412Y-36418616D01*
X64645302Y-36423469D01*
X64617260Y-36423600D01*
X64518211Y-36422689D01*
X64460301Y-36418189D01*
X64433879Y-36407448D01*
X64429294Y-36387811D01*
X64432440Y-36372800D01*
X64444336Y-36347165D01*
X64470774Y-36331912D01*
X64522750Y-36324425D01*
X64611257Y-36322087D01*
X64645962Y-36322000D01*
X64739572Y-36323240D01*
G36*
X61682136Y-35726964D02*
X61717501Y-35773367D01*
X61711242Y-35811319D01*
X61691520Y-35834319D01*
X61640283Y-35860915D01*
X61583921Y-35860646D01*
X61561133Y-35847866D01*
X61543762Y-35799940D01*
X61560094Y-35745193D01*
X61593236Y-35713344D01*
X61644394Y-35702261D01*
X61682136Y-35726964D01*
X61682136Y-35726964D01*
G37*
X61682136Y-35726964D02*
X61717501Y-35773367D01*
X61711242Y-35811319D01*
X61691520Y-35834319D01*
X61640283Y-35860915D01*
X61583921Y-35860646D01*
X61561133Y-35847866D01*
X61543762Y-35799940D01*
X61560094Y-35745193D01*
X61593236Y-35713344D01*
X61644394Y-35702261D01*
X61682136Y-35726964D01*
G36*
X62624740Y-35721396D02*
X62647574Y-35755683D01*
X62646071Y-35807438D01*
X62633728Y-35829919D01*
X62582391Y-35861992D01*
X62529608Y-35853852D01*
X62495298Y-35809585D01*
X62496272Y-35752361D01*
X62529314Y-35714644D01*
X62577708Y-35702350D01*
X62624740Y-35721396D01*
X62624740Y-35721396D01*
G37*
X62624740Y-35721396D02*
X62647574Y-35755683D01*
X62646071Y-35807438D01*
X62633728Y-35829919D01*
X62582391Y-35861992D01*
X62529608Y-35853852D01*
X62495298Y-35809585D01*
X62496272Y-35752361D01*
X62529314Y-35714644D01*
X62577708Y-35702350D01*
X62624740Y-35721396D01*
G36*
X66185282Y-35724010D02*
X66210070Y-35768479D01*
X66206501Y-35809585D01*
X66171280Y-35854372D01*
X66118340Y-35861763D01*
X66068071Y-35829919D01*
X66050571Y-35779789D01*
X66054225Y-35755683D01*
X66090645Y-35711695D01*
X66139902Y-35703110D01*
X66185282Y-35724010D01*
X66185282Y-35724010D01*
G37*
X66185282Y-35724010D02*
X66210070Y-35768479D01*
X66206501Y-35809585D01*
X66171280Y-35854372D01*
X66118340Y-35861763D01*
X66068071Y-35829919D01*
X66050571Y-35779789D01*
X66054225Y-35755683D01*
X66090645Y-35711695D01*
X66139902Y-35703110D01*
X66185282Y-35724010D01*
D12*
X60495000Y-33055000D02*
X60495000Y-33005000D01*
X56345000Y-33055000D02*
X56345000Y-32910000D01*
X56345000Y-27905000D02*
X56345000Y-28050000D01*
X60495000Y-27905000D02*
X60495000Y-28050000D01*
X60495000Y-33055000D02*
X56345000Y-33055000D01*
X60495000Y-27905000D02*
X56345000Y-27905000D01*
X60495000Y-33005000D02*
X61895000Y-33005000D01*
D13*
G36*
X41268195Y-27437486D02*
X41178708Y-27384192D01*
X41110708Y-27304446D01*
X41074816Y-27203200D01*
X41071800Y-27161881D01*
X41095452Y-27040928D01*
X41159410Y-26929513D01*
X41253183Y-26837325D01*
X41366278Y-26774051D01*
X41488202Y-26749381D01*
X41517576Y-26750277D01*
X41632518Y-26759419D01*
X41625209Y-26568660D01*
X41620237Y-26470978D01*
X41612215Y-26413006D01*
X41597549Y-26383656D01*
X41572646Y-26371842D01*
X41560750Y-26369784D01*
X41516088Y-26354510D01*
X41503600Y-26338034D01*
X41526923Y-26326738D01*
X41588615Y-26318381D01*
X41676268Y-26314504D01*
X41694100Y-26314400D01*
X41785159Y-26316773D01*
X41852519Y-26323049D01*
X41883768Y-26331965D01*
X41884600Y-26333777D01*
X41864171Y-26357559D01*
X41827450Y-26378227D01*
X41807378Y-26388559D01*
X41792659Y-26404143D01*
X41782463Y-26432168D01*
X41775960Y-26479823D01*
X41772321Y-26554298D01*
X41770714Y-26662781D01*
X41770311Y-26812462D01*
X41770300Y-26873200D01*
X41770452Y-27038191D01*
X41770833Y-27084110D01*
X41630600Y-27084110D01*
X41628108Y-26978556D01*
X41619102Y-26911945D01*
X41601288Y-26872593D01*
X41586150Y-26857758D01*
X41515980Y-26830089D01*
X41425639Y-26825507D01*
X41340076Y-26843759D01*
X41307996Y-26860579D01*
X41245191Y-26933020D01*
X41212305Y-27031171D01*
X41210374Y-27138950D01*
X41240437Y-27240275D01*
X41279819Y-27297429D01*
X41353865Y-27342748D01*
X41447623Y-27355736D01*
X41540576Y-27335079D01*
X41574149Y-27316260D01*
X41603369Y-27290033D01*
X41620405Y-27253619D01*
X41628422Y-27194001D01*
X41630584Y-27098163D01*
X41630600Y-27084110D01*
X41770833Y-27084110D01*
X41771458Y-27159318D01*
X41774148Y-27243521D01*
X41779353Y-27297735D01*
X41787900Y-27328898D01*
X41800621Y-27343948D01*
X41818343Y-27349822D01*
X41827450Y-27351217D01*
X41876142Y-27365735D01*
X41876896Y-27386566D01*
X41831746Y-27410874D01*
X41771753Y-27428985D01*
X41692047Y-27448524D01*
X41649905Y-27453291D01*
X41633391Y-27439917D01*
X41630564Y-27405033D01*
X41630600Y-27389148D01*
X41630600Y-27320896D01*
X41559361Y-27389148D01*
X41469143Y-27444915D01*
X41368548Y-27459377D01*
X41268195Y-27437486D01*
X41268195Y-27437486D01*
G37*
X41268195Y-27437486D02*
X41178708Y-27384192D01*
X41110708Y-27304446D01*
X41074816Y-27203200D01*
X41071800Y-27161881D01*
X41095452Y-27040928D01*
X41159410Y-26929513D01*
X41253183Y-26837325D01*
X41366278Y-26774051D01*
X41488202Y-26749381D01*
X41517576Y-26750277D01*
X41632518Y-26759419D01*
X41625209Y-26568660D01*
X41620237Y-26470978D01*
X41612215Y-26413006D01*
X41597549Y-26383656D01*
X41572646Y-26371842D01*
X41560750Y-26369784D01*
X41516088Y-26354510D01*
X41503600Y-26338034D01*
X41526923Y-26326738D01*
X41588615Y-26318381D01*
X41676268Y-26314504D01*
X41694100Y-26314400D01*
X41785159Y-26316773D01*
X41852519Y-26323049D01*
X41883768Y-26331965D01*
X41884600Y-26333777D01*
X41864171Y-26357559D01*
X41827450Y-26378227D01*
X41807378Y-26388559D01*
X41792659Y-26404143D01*
X41782463Y-26432168D01*
X41775960Y-26479823D01*
X41772321Y-26554298D01*
X41770714Y-26662781D01*
X41770311Y-26812462D01*
X41770300Y-26873200D01*
X41770452Y-27038191D01*
X41770833Y-27084110D01*
X41630600Y-27084110D01*
X41628108Y-26978556D01*
X41619102Y-26911945D01*
X41601288Y-26872593D01*
X41586150Y-26857758D01*
X41515980Y-26830089D01*
X41425639Y-26825507D01*
X41340076Y-26843759D01*
X41307996Y-26860579D01*
X41245191Y-26933020D01*
X41212305Y-27031171D01*
X41210374Y-27138950D01*
X41240437Y-27240275D01*
X41279819Y-27297429D01*
X41353865Y-27342748D01*
X41447623Y-27355736D01*
X41540576Y-27335079D01*
X41574149Y-27316260D01*
X41603369Y-27290033D01*
X41620405Y-27253619D01*
X41628422Y-27194001D01*
X41630584Y-27098163D01*
X41630600Y-27084110D01*
X41770833Y-27084110D01*
X41771458Y-27159318D01*
X41774148Y-27243521D01*
X41779353Y-27297735D01*
X41787900Y-27328898D01*
X41800621Y-27343948D01*
X41818343Y-27349822D01*
X41827450Y-27351217D01*
X41876142Y-27365735D01*
X41876896Y-27386566D01*
X41831746Y-27410874D01*
X41771753Y-27428985D01*
X41692047Y-27448524D01*
X41649905Y-27453291D01*
X41633391Y-27439917D01*
X41630564Y-27405033D01*
X41630600Y-27389148D01*
X41630600Y-27320896D01*
X41559361Y-27389148D01*
X41469143Y-27444915D01*
X41368548Y-27459377D01*
X41268195Y-27437486D01*
G36*
X42989318Y-27828155D02*
X42899010Y-27810107D01*
X42822721Y-27786186D01*
X42773957Y-27760367D01*
X42763441Y-27743150D01*
X42766211Y-27697311D01*
X42769526Y-27628605D01*
X42769791Y-27622500D01*
X42780616Y-27559390D01*
X42799703Y-27535163D01*
X42817467Y-27552558D01*
X42824400Y-27606906D01*
X42835165Y-27663304D01*
X42876283Y-27702942D01*
X42910789Y-27721206D01*
X43045600Y-27760162D01*
X43183642Y-27756664D01*
X43313077Y-27714159D01*
X43422063Y-27636098D01*
X43484488Y-27554127D01*
X43515264Y-27489612D01*
X43530778Y-27423868D01*
X43534148Y-27338022D01*
X43531640Y-27269011D01*
X43523040Y-27162435D01*
X43506733Y-27088289D01*
X43477427Y-27028264D01*
X43451445Y-26991464D01*
X43387938Y-26922624D01*
X43317315Y-26865933D01*
X43299337Y-26855188D01*
X43202826Y-26823929D01*
X43081381Y-26812004D01*
X42957029Y-26819382D01*
X42851802Y-26846031D01*
X42830750Y-26855867D01*
X42771775Y-26879222D01*
X42749023Y-26871051D01*
X42766433Y-26835276D01*
X42787158Y-26812472D01*
X42857439Y-26769916D01*
X42961268Y-26739891D01*
X43082469Y-26724511D01*
X43204869Y-26725889D01*
X43307165Y-26744533D01*
X43464835Y-26815919D01*
X43586041Y-26919980D01*
X43667797Y-27051182D01*
X43707118Y-27203992D01*
X43701017Y-27372878D01*
X43684935Y-27444617D01*
X43626998Y-27564455D01*
X43529397Y-27670453D01*
X43402791Y-27755704D01*
X43257840Y-27813305D01*
X43105205Y-27836351D01*
X43080140Y-27836356D01*
X42989318Y-27828155D01*
X42989318Y-27828155D01*
G37*
X42989318Y-27828155D02*
X42899010Y-27810107D01*
X42822721Y-27786186D01*
X42773957Y-27760367D01*
X42763441Y-27743150D01*
X42766211Y-27697311D01*
X42769526Y-27628605D01*
X42769791Y-27622500D01*
X42780616Y-27559390D01*
X42799703Y-27535163D01*
X42817467Y-27552558D01*
X42824400Y-27606906D01*
X42835165Y-27663304D01*
X42876283Y-27702942D01*
X42910789Y-27721206D01*
X43045600Y-27760162D01*
X43183642Y-27756664D01*
X43313077Y-27714159D01*
X43422063Y-27636098D01*
X43484488Y-27554127D01*
X43515264Y-27489612D01*
X43530778Y-27423868D01*
X43534148Y-27338022D01*
X43531640Y-27269011D01*
X43523040Y-27162435D01*
X43506733Y-27088289D01*
X43477427Y-27028264D01*
X43451445Y-26991464D01*
X43387938Y-26922624D01*
X43317315Y-26865933D01*
X43299337Y-26855188D01*
X43202826Y-26823929D01*
X43081381Y-26812004D01*
X42957029Y-26819382D01*
X42851802Y-26846031D01*
X42830750Y-26855867D01*
X42771775Y-26879222D01*
X42749023Y-26871051D01*
X42766433Y-26835276D01*
X42787158Y-26812472D01*
X42857439Y-26769916D01*
X42961268Y-26739891D01*
X43082469Y-26724511D01*
X43204869Y-26725889D01*
X43307165Y-26744533D01*
X43464835Y-26815919D01*
X43586041Y-26919980D01*
X43667797Y-27051182D01*
X43707118Y-27203992D01*
X43701017Y-27372878D01*
X43684935Y-27444617D01*
X43626998Y-27564455D01*
X43529397Y-27670453D01*
X43402791Y-27755704D01*
X43257840Y-27813305D01*
X43105205Y-27836351D01*
X43080140Y-27836356D01*
X42989318Y-27828155D01*
G36*
X42200785Y-27450922D02*
X42148156Y-27425639D01*
X42115044Y-27390475D01*
X42090222Y-27352108D01*
X42074554Y-27305395D01*
X42066053Y-27238276D01*
X42062736Y-27138692D01*
X42062400Y-27070597D01*
X42061571Y-26954585D01*
X42057845Y-26879648D01*
X42049370Y-26836072D01*
X42034293Y-26814141D01*
X42011600Y-26804360D01*
X41966118Y-26784740D01*
X41966318Y-26765496D01*
X42007253Y-26751161D01*
X42075100Y-26746200D01*
X42146529Y-26749524D01*
X42180305Y-26763326D01*
X42189357Y-26793351D01*
X42189400Y-26797000D01*
X42192728Y-26833765D01*
X42209145Y-26843566D01*
X42248303Y-26825393D01*
X42310944Y-26784300D01*
X42379220Y-26741377D01*
X42427514Y-26725606D01*
X42476101Y-26733154D01*
X42511590Y-26746378D01*
X42579340Y-26798754D01*
X42612167Y-26881490D01*
X42609816Y-26963927D01*
X42485008Y-26963927D01*
X42481393Y-26925091D01*
X42458436Y-26885900D01*
X42403819Y-26833490D01*
X42338289Y-26829271D01*
X42258837Y-26873083D01*
X42256326Y-26875044D01*
X42208128Y-26927838D01*
X42190369Y-26996877D01*
X42189400Y-27027444D01*
X42193989Y-27093433D01*
X42212053Y-27122193D01*
X42238547Y-27127200D01*
X42342511Y-27105596D01*
X42429919Y-27047930D01*
X42457693Y-27014034D01*
X42485008Y-26963927D01*
X42609816Y-26963927D01*
X42609812Y-26964045D01*
X42582012Y-27038464D01*
X42525592Y-27093122D01*
X42432511Y-27133708D01*
X42335801Y-27157926D01*
X42252022Y-27178082D01*
X42207429Y-27198638D01*
X42190775Y-27226101D01*
X42189400Y-27242646D01*
X42210323Y-27312933D01*
X42263748Y-27359616D01*
X42335658Y-27379503D01*
X42412039Y-27369406D01*
X42478875Y-27326135D01*
X42491277Y-27311350D01*
X42543391Y-27241500D01*
X42544196Y-27310698D01*
X42521698Y-27376655D01*
X42456909Y-27425194D01*
X42356452Y-27452619D01*
X42281405Y-27457400D01*
X42200785Y-27450922D01*
X42200785Y-27450922D01*
G37*
X42200785Y-27450922D02*
X42148156Y-27425639D01*
X42115044Y-27390475D01*
X42090222Y-27352108D01*
X42074554Y-27305395D01*
X42066053Y-27238276D01*
X42062736Y-27138692D01*
X42062400Y-27070597D01*
X42061571Y-26954585D01*
X42057845Y-26879648D01*
X42049370Y-26836072D01*
X42034293Y-26814141D01*
X42011600Y-26804360D01*
X41966118Y-26784740D01*
X41966318Y-26765496D01*
X42007253Y-26751161D01*
X42075100Y-26746200D01*
X42146529Y-26749524D01*
X42180305Y-26763326D01*
X42189357Y-26793351D01*
X42189400Y-26797000D01*
X42192728Y-26833765D01*
X42209145Y-26843566D01*
X42248303Y-26825393D01*
X42310944Y-26784300D01*
X42379220Y-26741377D01*
X42427514Y-26725606D01*
X42476101Y-26733154D01*
X42511590Y-26746378D01*
X42579340Y-26798754D01*
X42612167Y-26881490D01*
X42609816Y-26963927D01*
X42485008Y-26963927D01*
X42481393Y-26925091D01*
X42458436Y-26885900D01*
X42403819Y-26833490D01*
X42338289Y-26829271D01*
X42258837Y-26873083D01*
X42256326Y-26875044D01*
X42208128Y-26927838D01*
X42190369Y-26996877D01*
X42189400Y-27027444D01*
X42193989Y-27093433D01*
X42212053Y-27122193D01*
X42238547Y-27127200D01*
X42342511Y-27105596D01*
X42429919Y-27047930D01*
X42457693Y-27014034D01*
X42485008Y-26963927D01*
X42609816Y-26963927D01*
X42609812Y-26964045D01*
X42582012Y-27038464D01*
X42525592Y-27093122D01*
X42432511Y-27133708D01*
X42335801Y-27157926D01*
X42252022Y-27178082D01*
X42207429Y-27198638D01*
X42190775Y-27226101D01*
X42189400Y-27242646D01*
X42210323Y-27312933D01*
X42263748Y-27359616D01*
X42335658Y-27379503D01*
X42412039Y-27369406D01*
X42478875Y-27326135D01*
X42491277Y-27311350D01*
X42543391Y-27241500D01*
X42544196Y-27310698D01*
X42521698Y-27376655D01*
X42456909Y-27425194D01*
X42356452Y-27452619D01*
X42281405Y-27457400D01*
X42200785Y-27450922D01*
G36*
X40523592Y-27450179D02*
X40462409Y-27425757D01*
X40422021Y-27376799D01*
X40398487Y-27296356D01*
X40387866Y-27177479D01*
X40386000Y-27062992D01*
X40385120Y-26949006D01*
X40381185Y-26875934D01*
X40372256Y-26833903D01*
X40356395Y-26813040D01*
X40335200Y-26804360D01*
X40289718Y-26784740D01*
X40289918Y-26765496D01*
X40330853Y-26751161D01*
X40398700Y-26746200D01*
X40470129Y-26749524D01*
X40503905Y-26763326D01*
X40512957Y-26793351D01*
X40513000Y-26797000D01*
X40515429Y-26833131D01*
X40529471Y-26843429D01*
X40565262Y-26826792D01*
X40629717Y-26784300D01*
X40699568Y-26740923D01*
X40750283Y-26725454D01*
X40802501Y-26734194D01*
X40837220Y-26747129D01*
X40893796Y-26794000D01*
X40929827Y-26869325D01*
X40935994Y-26950544D01*
X40792400Y-26950544D01*
X40775289Y-26871339D01*
X40728685Y-26830340D01*
X40659680Y-26830509D01*
X40588502Y-26865378D01*
X40525588Y-26915506D01*
X40496202Y-26966608D01*
X40488115Y-27041719D01*
X40487989Y-27054651D01*
X40487600Y-27147201D01*
X40595175Y-27123030D01*
X40706525Y-27083897D01*
X40771709Y-27026188D01*
X40792400Y-26950544D01*
X40935994Y-26950544D01*
X40936108Y-26952037D01*
X40933202Y-26966756D01*
X40886177Y-27051589D01*
X40793369Y-27115775D01*
X40660620Y-27157674D01*
X40576435Y-27177869D01*
X40531462Y-27198337D01*
X40514492Y-27225530D01*
X40513000Y-27242646D01*
X40533923Y-27312933D01*
X40587348Y-27359616D01*
X40659258Y-27379503D01*
X40735639Y-27369406D01*
X40802475Y-27326135D01*
X40814877Y-27311350D01*
X40866991Y-27241500D01*
X40867796Y-27310698D01*
X40845305Y-27376493D01*
X40780954Y-27425124D01*
X40681976Y-27452495D01*
X40609512Y-27457012D01*
X40523592Y-27450179D01*
X40523592Y-27450179D01*
G37*
X40523592Y-27450179D02*
X40462409Y-27425757D01*
X40422021Y-27376799D01*
X40398487Y-27296356D01*
X40387866Y-27177479D01*
X40386000Y-27062992D01*
X40385120Y-26949006D01*
X40381185Y-26875934D01*
X40372256Y-26833903D01*
X40356395Y-26813040D01*
X40335200Y-26804360D01*
X40289718Y-26784740D01*
X40289918Y-26765496D01*
X40330853Y-26751161D01*
X40398700Y-26746200D01*
X40470129Y-26749524D01*
X40503905Y-26763326D01*
X40512957Y-26793351D01*
X40513000Y-26797000D01*
X40515429Y-26833131D01*
X40529471Y-26843429D01*
X40565262Y-26826792D01*
X40629717Y-26784300D01*
X40699568Y-26740923D01*
X40750283Y-26725454D01*
X40802501Y-26734194D01*
X40837220Y-26747129D01*
X40893796Y-26794000D01*
X40929827Y-26869325D01*
X40935994Y-26950544D01*
X40792400Y-26950544D01*
X40775289Y-26871339D01*
X40728685Y-26830340D01*
X40659680Y-26830509D01*
X40588502Y-26865378D01*
X40525588Y-26915506D01*
X40496202Y-26966608D01*
X40488115Y-27041719D01*
X40487989Y-27054651D01*
X40487600Y-27147201D01*
X40595175Y-27123030D01*
X40706525Y-27083897D01*
X40771709Y-27026188D01*
X40792400Y-26950544D01*
X40935994Y-26950544D01*
X40936108Y-26952037D01*
X40933202Y-26966756D01*
X40886177Y-27051589D01*
X40793369Y-27115775D01*
X40660620Y-27157674D01*
X40576435Y-27177869D01*
X40531462Y-27198337D01*
X40514492Y-27225530D01*
X40513000Y-27242646D01*
X40533923Y-27312933D01*
X40587348Y-27359616D01*
X40659258Y-27379503D01*
X40735639Y-27369406D01*
X40802475Y-27326135D01*
X40814877Y-27311350D01*
X40866991Y-27241500D01*
X40867796Y-27310698D01*
X40845305Y-27376493D01*
X40780954Y-27425124D01*
X40681976Y-27452495D01*
X40609512Y-27457012D01*
X40523592Y-27450179D01*
G36*
X39677485Y-27444651D02*
X39652629Y-27433728D01*
X39622218Y-27400462D01*
X39617120Y-27338488D01*
X39618978Y-27319428D01*
X39632904Y-27259538D01*
X39652204Y-27230269D01*
X39668813Y-27237507D01*
X39674800Y-27278707D01*
X39697782Y-27332504D01*
X39759139Y-27368992D01*
X39839900Y-27381200D01*
X39935147Y-27363473D01*
X39999740Y-27307062D01*
X40030510Y-27241169D01*
X40049816Y-27122276D01*
X40032708Y-27011191D01*
X39985557Y-26915997D01*
X39914735Y-26844781D01*
X39826613Y-26805628D01*
X39727564Y-26806623D01*
X39695721Y-26816316D01*
X39644557Y-26831016D01*
X39625490Y-26820066D01*
X39624000Y-26806865D01*
X39646627Y-26766248D01*
X39705930Y-26738539D01*
X39789048Y-26725404D01*
X39883118Y-26728505D01*
X39975277Y-26749508D01*
X39998150Y-26758458D01*
X40090303Y-26824292D01*
X40151948Y-26921983D01*
X40179644Y-27040401D01*
X40169949Y-27168414D01*
X40147009Y-27239893D01*
X40088520Y-27323433D01*
X39997570Y-27391464D01*
X39888911Y-27438200D01*
X39777298Y-27457857D01*
X39677485Y-27444651D01*
X39677485Y-27444651D01*
G37*
X39677485Y-27444651D02*
X39652629Y-27433728D01*
X39622218Y-27400462D01*
X39617120Y-27338488D01*
X39618978Y-27319428D01*
X39632904Y-27259538D01*
X39652204Y-27230269D01*
X39668813Y-27237507D01*
X39674800Y-27278707D01*
X39697782Y-27332504D01*
X39759139Y-27368992D01*
X39839900Y-27381200D01*
X39935147Y-27363473D01*
X39999740Y-27307062D01*
X40030510Y-27241169D01*
X40049816Y-27122276D01*
X40032708Y-27011191D01*
X39985557Y-26915997D01*
X39914735Y-26844781D01*
X39826613Y-26805628D01*
X39727564Y-26806623D01*
X39695721Y-26816316D01*
X39644557Y-26831016D01*
X39625490Y-26820066D01*
X39624000Y-26806865D01*
X39646627Y-26766248D01*
X39705930Y-26738539D01*
X39789048Y-26725404D01*
X39883118Y-26728505D01*
X39975277Y-26749508D01*
X39998150Y-26758458D01*
X40090303Y-26824292D01*
X40151948Y-26921983D01*
X40179644Y-27040401D01*
X40169949Y-27168414D01*
X40147009Y-27239893D01*
X40088520Y-27323433D01*
X39997570Y-27391464D01*
X39888911Y-27438200D01*
X39777298Y-27457857D01*
X39677485Y-27444651D01*
G36*
X36796624Y-27447703D02*
X36752394Y-27431248D01*
X36697076Y-27379550D01*
X36651574Y-27299706D01*
X36627900Y-27214320D01*
X36626800Y-27194924D01*
X36634615Y-27154802D01*
X36663248Y-27127883D01*
X36720484Y-27111749D01*
X36814111Y-27103979D01*
X36925250Y-27102147D01*
X37020592Y-27100732D01*
X37075879Y-27094900D01*
X37101842Y-27081598D01*
X37109208Y-27057772D01*
X37109400Y-27049739D01*
X37086982Y-26949778D01*
X37027558Y-26871258D01*
X36942876Y-26821344D01*
X36844683Y-26807199D01*
X36752383Y-26832001D01*
X36684712Y-26859593D01*
X36655066Y-26856424D01*
X36664751Y-26822653D01*
X36665458Y-26821499D01*
X36709485Y-26784991D01*
X36784688Y-26751331D01*
X36871627Y-26727717D01*
X36937135Y-26720895D01*
X37016256Y-26734680D01*
X37097588Y-26768151D01*
X37104579Y-26772252D01*
X37189940Y-26851574D01*
X37242166Y-26956967D01*
X37261289Y-27076023D01*
X37247341Y-27196335D01*
X37235428Y-27224011D01*
X37109400Y-27224011D01*
X37109400Y-27152600D01*
X36755071Y-27152600D01*
X36770622Y-27235150D01*
X36806685Y-27334643D01*
X36868373Y-27392204D01*
X36934548Y-27406600D01*
X37014099Y-27383696D01*
X37076634Y-27324796D01*
X37108055Y-27244621D01*
X37109400Y-27224011D01*
X37235428Y-27224011D01*
X37200353Y-27305495D01*
X37120357Y-27391095D01*
X37102967Y-27402728D01*
X37007727Y-27441562D01*
X36898184Y-27457158D01*
X36796624Y-27447703D01*
X36796624Y-27447703D01*
G37*
X36796624Y-27447703D02*
X36752394Y-27431248D01*
X36697076Y-27379550D01*
X36651574Y-27299706D01*
X36627900Y-27214320D01*
X36626800Y-27194924D01*
X36634615Y-27154802D01*
X36663248Y-27127883D01*
X36720484Y-27111749D01*
X36814111Y-27103979D01*
X36925250Y-27102147D01*
X37020592Y-27100732D01*
X37075879Y-27094900D01*
X37101842Y-27081598D01*
X37109208Y-27057772D01*
X37109400Y-27049739D01*
X37086982Y-26949778D01*
X37027558Y-26871258D01*
X36942876Y-26821344D01*
X36844683Y-26807199D01*
X36752383Y-26832001D01*
X36684712Y-26859593D01*
X36655066Y-26856424D01*
X36664751Y-26822653D01*
X36665458Y-26821499D01*
X36709485Y-26784991D01*
X36784688Y-26751331D01*
X36871627Y-26727717D01*
X36937135Y-26720895D01*
X37016256Y-26734680D01*
X37097588Y-26768151D01*
X37104579Y-26772252D01*
X37189940Y-26851574D01*
X37242166Y-26956967D01*
X37261289Y-27076023D01*
X37247341Y-27196335D01*
X37235428Y-27224011D01*
X37109400Y-27224011D01*
X37109400Y-27152600D01*
X36755071Y-27152600D01*
X36770622Y-27235150D01*
X36806685Y-27334643D01*
X36868373Y-27392204D01*
X36934548Y-27406600D01*
X37014099Y-27383696D01*
X37076634Y-27324796D01*
X37108055Y-27244621D01*
X37109400Y-27224011D01*
X37235428Y-27224011D01*
X37200353Y-27305495D01*
X37120357Y-27391095D01*
X37102967Y-27402728D01*
X37007727Y-27441562D01*
X36898184Y-27457158D01*
X36796624Y-27447703D01*
G36*
X32362150Y-27437911D02*
X32256423Y-27380558D01*
X32185823Y-27287010D01*
X32151964Y-27158939D01*
X32149113Y-27092683D01*
X32173568Y-26960160D01*
X32239605Y-26851934D01*
X32341442Y-26773944D01*
X32473294Y-26732127D01*
X32503758Y-26728540D01*
X32602963Y-26728981D01*
X32681659Y-26754297D01*
X32710379Y-26770743D01*
X32799457Y-26854730D01*
X32851106Y-26966296D01*
X32863152Y-27096448D01*
X32854906Y-27135214D01*
X32715200Y-27135214D01*
X32700910Y-27008863D01*
X32662155Y-26904268D01*
X32605111Y-26826754D01*
X32535956Y-26781649D01*
X32460864Y-26774279D01*
X32386011Y-26809970D01*
X32363022Y-26831458D01*
X32308766Y-26918829D01*
X32285577Y-27022819D01*
X32290351Y-27132415D01*
X32319985Y-27236604D01*
X32371374Y-27324372D01*
X32441414Y-27384705D01*
X32525115Y-27406600D01*
X32614562Y-27385213D01*
X32676359Y-27322015D01*
X32709494Y-27218452D01*
X32715200Y-27135214D01*
X32854906Y-27135214D01*
X32833424Y-27236192D01*
X32826938Y-27253199D01*
X32759593Y-27358977D01*
X32659106Y-27427634D01*
X32529577Y-27456597D01*
X32501391Y-27457400D01*
X32362150Y-27437911D01*
X32362150Y-27437911D01*
G37*
X32362150Y-27437911D02*
X32256423Y-27380558D01*
X32185823Y-27287010D01*
X32151964Y-27158939D01*
X32149113Y-27092683D01*
X32173568Y-26960160D01*
X32239605Y-26851934D01*
X32341442Y-26773944D01*
X32473294Y-26732127D01*
X32503758Y-26728540D01*
X32602963Y-26728981D01*
X32681659Y-26754297D01*
X32710379Y-26770743D01*
X32799457Y-26854730D01*
X32851106Y-26966296D01*
X32863152Y-27096448D01*
X32854906Y-27135214D01*
X32715200Y-27135214D01*
X32700910Y-27008863D01*
X32662155Y-26904268D01*
X32605111Y-26826754D01*
X32535956Y-26781649D01*
X32460864Y-26774279D01*
X32386011Y-26809970D01*
X32363022Y-26831458D01*
X32308766Y-26918829D01*
X32285577Y-27022819D01*
X32290351Y-27132415D01*
X32319985Y-27236604D01*
X32371374Y-27324372D01*
X32441414Y-27384705D01*
X32525115Y-27406600D01*
X32614562Y-27385213D01*
X32676359Y-27322015D01*
X32709494Y-27218452D01*
X32715200Y-27135214D01*
X32854906Y-27135214D01*
X32833424Y-27236192D01*
X32826938Y-27253199D01*
X32759593Y-27358977D01*
X32659106Y-27427634D01*
X32529577Y-27456597D01*
X32501391Y-27457400D01*
X32362150Y-27437911D01*
G36*
X39287276Y-27446130D02*
X39276907Y-27421941D01*
X39270525Y-27371506D01*
X39266541Y-27287058D01*
X39263367Y-27160828D01*
X39262830Y-27136309D01*
X39259529Y-27002425D01*
X39255448Y-26910957D01*
X39248977Y-26853525D01*
X39238507Y-26821752D01*
X39222430Y-26807259D01*
X39199136Y-26801667D01*
X39198550Y-26801584D01*
X39153888Y-26786310D01*
X39141400Y-26769834D01*
X39164723Y-26758538D01*
X39226415Y-26750181D01*
X39314068Y-26746304D01*
X39331900Y-26746200D01*
X39422954Y-26749094D01*
X39490313Y-26756747D01*
X39521567Y-26767622D01*
X39522400Y-26769834D01*
X39500804Y-26791371D01*
X39465250Y-26801584D01*
X39439951Y-26807853D01*
X39423128Y-26824203D01*
X39412677Y-26859834D01*
X39406491Y-26923944D01*
X39402466Y-27025732D01*
X39400891Y-27082750D01*
X39393682Y-27355800D01*
X39458041Y-27355800D01*
X39510656Y-27364705D01*
X39517848Y-27385165D01*
X39480480Y-27407799D01*
X39452550Y-27415514D01*
X39377513Y-27433301D01*
X39326330Y-27446848D01*
X39303221Y-27451843D01*
X39287276Y-27446130D01*
X39287276Y-27446130D01*
G37*
X39287276Y-27446130D02*
X39276907Y-27421941D01*
X39270525Y-27371506D01*
X39266541Y-27287058D01*
X39263367Y-27160828D01*
X39262830Y-27136309D01*
X39259529Y-27002425D01*
X39255448Y-26910957D01*
X39248977Y-26853525D01*
X39238507Y-26821752D01*
X39222430Y-26807259D01*
X39199136Y-26801667D01*
X39198550Y-26801584D01*
X39153888Y-26786310D01*
X39141400Y-26769834D01*
X39164723Y-26758538D01*
X39226415Y-26750181D01*
X39314068Y-26746304D01*
X39331900Y-26746200D01*
X39422954Y-26749094D01*
X39490313Y-26756747D01*
X39521567Y-26767622D01*
X39522400Y-26769834D01*
X39500804Y-26791371D01*
X39465250Y-26801584D01*
X39439951Y-26807853D01*
X39423128Y-26824203D01*
X39412677Y-26859834D01*
X39406491Y-26923944D01*
X39402466Y-27025732D01*
X39400891Y-27082750D01*
X39393682Y-27355800D01*
X39458041Y-27355800D01*
X39510656Y-27364705D01*
X39517848Y-27385165D01*
X39480480Y-27407799D01*
X39452550Y-27415514D01*
X39377513Y-27433301D01*
X39326330Y-27446848D01*
X39303221Y-27451843D01*
X39287276Y-27446130D01*
G36*
X38829585Y-27676177D02*
X38820582Y-27631633D01*
X38827176Y-27546300D01*
X38843595Y-27406600D01*
X38738498Y-27406600D01*
X38666543Y-27400721D01*
X38635930Y-27381074D01*
X38633400Y-27368500D01*
X38650177Y-27342008D01*
X38705791Y-27331092D01*
X38735000Y-27330400D01*
X38836600Y-27330400D01*
X38836600Y-27116315D01*
X38832358Y-26987380D01*
X38817370Y-26902283D01*
X38788249Y-26854598D01*
X38741607Y-26837898D01*
X38691984Y-26842044D01*
X38643074Y-26849238D01*
X38638414Y-26837414D01*
X38669087Y-26800696D01*
X38734903Y-26757254D01*
X38815766Y-26746200D01*
X38884278Y-26752163D01*
X38921249Y-26776585D01*
X38938829Y-26811354D01*
X38950104Y-26866038D01*
X38958693Y-26955349D01*
X38963225Y-27063130D01*
X38963600Y-27103454D01*
X38964461Y-27211597D01*
X38968490Y-27278652D01*
X38977860Y-27314320D01*
X38994742Y-27328304D01*
X39014400Y-27330400D01*
X39055693Y-27339808D01*
X39065200Y-27352838D01*
X39044062Y-27376553D01*
X39014400Y-27388560D01*
X38982053Y-27406755D01*
X38966989Y-27448377D01*
X38963600Y-27517629D01*
X38957521Y-27598252D01*
X38935918Y-27643756D01*
X38914470Y-27659707D01*
X38859286Y-27683463D01*
X38829585Y-27676177D01*
X38829585Y-27676177D01*
G37*
X38829585Y-27676177D02*
X38820582Y-27631633D01*
X38827176Y-27546300D01*
X38843595Y-27406600D01*
X38738498Y-27406600D01*
X38666543Y-27400721D01*
X38635930Y-27381074D01*
X38633400Y-27368500D01*
X38650177Y-27342008D01*
X38705791Y-27331092D01*
X38735000Y-27330400D01*
X38836600Y-27330400D01*
X38836600Y-27116315D01*
X38832358Y-26987380D01*
X38817370Y-26902283D01*
X38788249Y-26854598D01*
X38741607Y-26837898D01*
X38691984Y-26842044D01*
X38643074Y-26849238D01*
X38638414Y-26837414D01*
X38669087Y-26800696D01*
X38734903Y-26757254D01*
X38815766Y-26746200D01*
X38884278Y-26752163D01*
X38921249Y-26776585D01*
X38938829Y-26811354D01*
X38950104Y-26866038D01*
X38958693Y-26955349D01*
X38963225Y-27063130D01*
X38963600Y-27103454D01*
X38964461Y-27211597D01*
X38968490Y-27278652D01*
X38977860Y-27314320D01*
X38994742Y-27328304D01*
X39014400Y-27330400D01*
X39055693Y-27339808D01*
X39065200Y-27352838D01*
X39044062Y-27376553D01*
X39014400Y-27388560D01*
X38982053Y-27406755D01*
X38966989Y-27448377D01*
X38963600Y-27517629D01*
X38957521Y-27598252D01*
X38935918Y-27643756D01*
X38914470Y-27659707D01*
X38859286Y-27683463D01*
X38829585Y-27676177D01*
G36*
X38347476Y-27446130D02*
X38337107Y-27421941D01*
X38330725Y-27371506D01*
X38326741Y-27287058D01*
X38323567Y-27160828D01*
X38323030Y-27136309D01*
X38319729Y-27002425D01*
X38315648Y-26910957D01*
X38309177Y-26853525D01*
X38298707Y-26821752D01*
X38282630Y-26807259D01*
X38259336Y-26801667D01*
X38258750Y-26801584D01*
X38214088Y-26786310D01*
X38201600Y-26769834D01*
X38224923Y-26758538D01*
X38286615Y-26750181D01*
X38374268Y-26746304D01*
X38392100Y-26746200D01*
X38488089Y-26749352D01*
X38554993Y-26757884D01*
X38582422Y-26770409D01*
X38582600Y-26771600D01*
X38560864Y-26790694D01*
X38519100Y-26797000D01*
X38455600Y-26797000D01*
X38455600Y-27355800D01*
X38519100Y-27355800D01*
X38571164Y-27364726D01*
X38577971Y-27385216D01*
X38540526Y-27407840D01*
X38512750Y-27415514D01*
X38437713Y-27433301D01*
X38386530Y-27446848D01*
X38363421Y-27451843D01*
X38347476Y-27446130D01*
X38347476Y-27446130D01*
G37*
X38347476Y-27446130D02*
X38337107Y-27421941D01*
X38330725Y-27371506D01*
X38326741Y-27287058D01*
X38323567Y-27160828D01*
X38323030Y-27136309D01*
X38319729Y-27002425D01*
X38315648Y-26910957D01*
X38309177Y-26853525D01*
X38298707Y-26821752D01*
X38282630Y-26807259D01*
X38259336Y-26801667D01*
X38258750Y-26801584D01*
X38214088Y-26786310D01*
X38201600Y-26769834D01*
X38224923Y-26758538D01*
X38286615Y-26750181D01*
X38374268Y-26746304D01*
X38392100Y-26746200D01*
X38488089Y-26749352D01*
X38554993Y-26757884D01*
X38582422Y-26770409D01*
X38582600Y-26771600D01*
X38560864Y-26790694D01*
X38519100Y-26797000D01*
X38455600Y-26797000D01*
X38455600Y-27355800D01*
X38519100Y-27355800D01*
X38571164Y-27364726D01*
X38577971Y-27385216D01*
X38540526Y-27407840D01*
X38512750Y-27415514D01*
X38437713Y-27433301D01*
X38386530Y-27446848D01*
X38363421Y-27451843D01*
X38347476Y-27446130D01*
G36*
X37412423Y-27453284D02*
X37370180Y-27440085D01*
X37374609Y-27416526D01*
X37409812Y-27389836D01*
X37435165Y-27357915D01*
X37474843Y-27289845D01*
X37523611Y-27196361D01*
X37576228Y-27088194D01*
X37627459Y-26976080D01*
X37672065Y-26870750D01*
X37702209Y-26790650D01*
X37732581Y-26751160D01*
X37774230Y-26754305D01*
X37816399Y-26796952D01*
X37832915Y-26828750D01*
X37857885Y-26887696D01*
X37896317Y-26978714D01*
X37941984Y-27087050D01*
X37969582Y-27152600D01*
X38018642Y-27261022D01*
X38063036Y-27344070D01*
X38097790Y-27392965D01*
X38110964Y-27402113D01*
X38145938Y-27421626D01*
X38150800Y-27433863D01*
X38127552Y-27445464D01*
X38066371Y-27453870D01*
X37980100Y-27457382D01*
X37973000Y-27457400D01*
X37881793Y-27454044D01*
X37818770Y-27445049D01*
X37795201Y-27432025D01*
X37795200Y-27432000D01*
X37816407Y-27411159D01*
X37844501Y-27406600D01*
X37890942Y-27397981D01*
X37905383Y-27387550D01*
X37901390Y-27357383D01*
X37881387Y-27291209D01*
X37848905Y-27199914D01*
X37821407Y-27128821D01*
X37777636Y-27020212D01*
X37745517Y-26953451D01*
X37719315Y-26929551D01*
X37693297Y-26949526D01*
X37661727Y-27014388D01*
X37618873Y-27125152D01*
X37602982Y-27167421D01*
X37564079Y-27276959D01*
X37546019Y-27347936D01*
X37548453Y-27387957D01*
X37571033Y-27404628D01*
X37592000Y-27406600D01*
X37633275Y-27417237D01*
X37642800Y-27432000D01*
X37619835Y-27445910D01*
X37560593Y-27455136D01*
X37503100Y-27457400D01*
X37412423Y-27453284D01*
X37412423Y-27453284D01*
G37*
X37412423Y-27453284D02*
X37370180Y-27440085D01*
X37374609Y-27416526D01*
X37409812Y-27389836D01*
X37435165Y-27357915D01*
X37474843Y-27289845D01*
X37523611Y-27196361D01*
X37576228Y-27088194D01*
X37627459Y-26976080D01*
X37672065Y-26870750D01*
X37702209Y-26790650D01*
X37732581Y-26751160D01*
X37774230Y-26754305D01*
X37816399Y-26796952D01*
X37832915Y-26828750D01*
X37857885Y-26887696D01*
X37896317Y-26978714D01*
X37941984Y-27087050D01*
X37969582Y-27152600D01*
X38018642Y-27261022D01*
X38063036Y-27344070D01*
X38097790Y-27392965D01*
X38110964Y-27402113D01*
X38145938Y-27421626D01*
X38150800Y-27433863D01*
X38127552Y-27445464D01*
X38066371Y-27453870D01*
X37980100Y-27457382D01*
X37973000Y-27457400D01*
X37881793Y-27454044D01*
X37818770Y-27445049D01*
X37795201Y-27432025D01*
X37795200Y-27432000D01*
X37816407Y-27411159D01*
X37844501Y-27406600D01*
X37890942Y-27397981D01*
X37905383Y-27387550D01*
X37901390Y-27357383D01*
X37881387Y-27291209D01*
X37848905Y-27199914D01*
X37821407Y-27128821D01*
X37777636Y-27020212D01*
X37745517Y-26953451D01*
X37719315Y-26929551D01*
X37693297Y-26949526D01*
X37661727Y-27014388D01*
X37618873Y-27125152D01*
X37602982Y-27167421D01*
X37564079Y-27276959D01*
X37546019Y-27347936D01*
X37548453Y-27387957D01*
X37571033Y-27404628D01*
X37592000Y-27406600D01*
X37633275Y-27417237D01*
X37642800Y-27432000D01*
X37619835Y-27445910D01*
X37560593Y-27455136D01*
X37503100Y-27457400D01*
X37412423Y-27453284D01*
G36*
X35672079Y-27809143D02*
X35533622Y-27805279D01*
X35436562Y-27800770D01*
X35371513Y-27793766D01*
X35329087Y-27782415D01*
X35299895Y-27764868D01*
X35274552Y-27739274D01*
X35265679Y-27729034D01*
X35215016Y-27636277D01*
X35209162Y-27537240D01*
X35244846Y-27442031D01*
X35318794Y-27360759D01*
X35400095Y-27313893D01*
X35454523Y-27287215D01*
X35468657Y-27263540D01*
X35452980Y-27233695D01*
X35331739Y-27071724D01*
X35232534Y-26945408D01*
X35156923Y-26856607D01*
X35106462Y-26807179D01*
X35087023Y-26797000D01*
X35055246Y-26782248D01*
X35052000Y-26771600D01*
X35074652Y-26756222D01*
X35131747Y-26747195D01*
X35162243Y-26746200D01*
X35272485Y-26746200D01*
X35479743Y-27026243D01*
X35555163Y-27128980D01*
X35618312Y-27216585D01*
X35663677Y-27281289D01*
X35685746Y-27315321D01*
X35687000Y-27318343D01*
X35664426Y-27325862D01*
X35607966Y-27330074D01*
X35584246Y-27330400D01*
X35478600Y-27351192D01*
X35401939Y-27409088D01*
X35361379Y-27497369D01*
X35356800Y-27545146D01*
X35372819Y-27638370D01*
X35423356Y-27699237D01*
X35512132Y-27730697D01*
X35598673Y-27736800D01*
X35738946Y-27736800D01*
X35725100Y-26809700D01*
X35655250Y-26801663D01*
X35604512Y-26788368D01*
X35585400Y-26769913D01*
X35608905Y-26759471D01*
X35671866Y-26751375D01*
X35762951Y-26746801D01*
X35814000Y-26746200D01*
X35914666Y-26748639D01*
X35992715Y-26755170D01*
X36036816Y-26764618D01*
X36042600Y-26769913D01*
X36020634Y-26789666D01*
X35972750Y-26801663D01*
X35902900Y-26809700D01*
X35902900Y-27279600D01*
X35903052Y-27444591D01*
X35904058Y-27565718D01*
X35906748Y-27649921D01*
X35911953Y-27704135D01*
X35920500Y-27735298D01*
X35933221Y-27750348D01*
X35950943Y-27756222D01*
X35960050Y-27757617D01*
X36004720Y-27773838D01*
X36017200Y-27791859D01*
X35992177Y-27803082D01*
X35918185Y-27809560D01*
X35796839Y-27811212D01*
X35672079Y-27809143D01*
X35672079Y-27809143D01*
G37*
X35672079Y-27809143D02*
X35533622Y-27805279D01*
X35436562Y-27800770D01*
X35371513Y-27793766D01*
X35329087Y-27782415D01*
X35299895Y-27764868D01*
X35274552Y-27739274D01*
X35265679Y-27729034D01*
X35215016Y-27636277D01*
X35209162Y-27537240D01*
X35244846Y-27442031D01*
X35318794Y-27360759D01*
X35400095Y-27313893D01*
X35454523Y-27287215D01*
X35468657Y-27263540D01*
X35452980Y-27233695D01*
X35331739Y-27071724D01*
X35232534Y-26945408D01*
X35156923Y-26856607D01*
X35106462Y-26807179D01*
X35087023Y-26797000D01*
X35055246Y-26782248D01*
X35052000Y-26771600D01*
X35074652Y-26756222D01*
X35131747Y-26747195D01*
X35162243Y-26746200D01*
X35272485Y-26746200D01*
X35479743Y-27026243D01*
X35555163Y-27128980D01*
X35618312Y-27216585D01*
X35663677Y-27281289D01*
X35685746Y-27315321D01*
X35687000Y-27318343D01*
X35664426Y-27325862D01*
X35607966Y-27330074D01*
X35584246Y-27330400D01*
X35478600Y-27351192D01*
X35401939Y-27409088D01*
X35361379Y-27497369D01*
X35356800Y-27545146D01*
X35372819Y-27638370D01*
X35423356Y-27699237D01*
X35512132Y-27730697D01*
X35598673Y-27736800D01*
X35738946Y-27736800D01*
X35725100Y-26809700D01*
X35655250Y-26801663D01*
X35604512Y-26788368D01*
X35585400Y-26769913D01*
X35608905Y-26759471D01*
X35671866Y-26751375D01*
X35762951Y-26746801D01*
X35814000Y-26746200D01*
X35914666Y-26748639D01*
X35992715Y-26755170D01*
X36036816Y-26764618D01*
X36042600Y-26769913D01*
X36020634Y-26789666D01*
X35972750Y-26801663D01*
X35902900Y-26809700D01*
X35902900Y-27279600D01*
X35903052Y-27444591D01*
X35904058Y-27565718D01*
X35906748Y-27649921D01*
X35911953Y-27704135D01*
X35920500Y-27735298D01*
X35933221Y-27750348D01*
X35950943Y-27756222D01*
X35960050Y-27757617D01*
X36004720Y-27773838D01*
X36017200Y-27791859D01*
X35992177Y-27803082D01*
X35918185Y-27809560D01*
X35796839Y-27811212D01*
X35672079Y-27809143D01*
G36*
X34782343Y-27433680D02*
X34777168Y-27369225D01*
X34773736Y-27274099D01*
X34772600Y-27167378D01*
X34771445Y-27021872D01*
X34766927Y-26919747D01*
X34757474Y-26853613D01*
X34741510Y-26816081D01*
X34717463Y-26799763D01*
X34693683Y-26797000D01*
X34653908Y-26785828D01*
X34645600Y-26771600D01*
X34669238Y-26758802D01*
X34733224Y-26749882D01*
X34827167Y-26746224D01*
X34836100Y-26746200D01*
X34932089Y-26749352D01*
X34998993Y-26757884D01*
X35026422Y-26770409D01*
X35026600Y-26771600D01*
X35004864Y-26790694D01*
X34963100Y-26797000D01*
X34899600Y-26797000D01*
X34899600Y-27076400D01*
X34900185Y-27198677D01*
X34903003Y-27278939D01*
X34909652Y-27325968D01*
X34921727Y-27348547D01*
X34940826Y-27355457D01*
X34950400Y-27355800D01*
X34994734Y-27363608D01*
X34995188Y-27383177D01*
X34955561Y-27408726D01*
X34903004Y-27427980D01*
X34837176Y-27446605D01*
X34794142Y-27456767D01*
X34788704Y-27457400D01*
X34782343Y-27433680D01*
X34782343Y-27433680D01*
G37*
X34782343Y-27433680D02*
X34777168Y-27369225D01*
X34773736Y-27274099D01*
X34772600Y-27167378D01*
X34771445Y-27021872D01*
X34766927Y-26919747D01*
X34757474Y-26853613D01*
X34741510Y-26816081D01*
X34717463Y-26799763D01*
X34693683Y-26797000D01*
X34653908Y-26785828D01*
X34645600Y-26771600D01*
X34669238Y-26758802D01*
X34733224Y-26749882D01*
X34827167Y-26746224D01*
X34836100Y-26746200D01*
X34932089Y-26749352D01*
X34998993Y-26757884D01*
X35026422Y-26770409D01*
X35026600Y-26771600D01*
X35004864Y-26790694D01*
X34963100Y-26797000D01*
X34899600Y-26797000D01*
X34899600Y-27076400D01*
X34900185Y-27198677D01*
X34903003Y-27278939D01*
X34909652Y-27325968D01*
X34921727Y-27348547D01*
X34940826Y-27355457D01*
X34950400Y-27355800D01*
X34994734Y-27363608D01*
X34995188Y-27383177D01*
X34955561Y-27408726D01*
X34903004Y-27427980D01*
X34837176Y-27446605D01*
X34794142Y-27456767D01*
X34788704Y-27457400D01*
X34782343Y-27433680D01*
G36*
X34378126Y-27842481D02*
X34370669Y-27804763D01*
X34367176Y-27734054D01*
X34366215Y-27622173D01*
X34366200Y-27597560D01*
X34366200Y-27325885D01*
X34288052Y-27391643D01*
X34189947Y-27448292D01*
X34092312Y-27460684D01*
X34001997Y-27434958D01*
X33925854Y-27377254D01*
X33870734Y-27293712D01*
X33843489Y-27190471D01*
X33850969Y-27073671D01*
X33868497Y-27015659D01*
X33930704Y-26910387D01*
X34022331Y-26826219D01*
X34131471Y-26768710D01*
X34246214Y-26743411D01*
X34354653Y-26755876D01*
X34391729Y-26771669D01*
X34440033Y-26783321D01*
X34455058Y-26771669D01*
X34471743Y-26751863D01*
X34484466Y-26756456D01*
X34493717Y-26790058D01*
X34499990Y-26857278D01*
X34503776Y-26962725D01*
X34505148Y-27076222D01*
X34366200Y-27076222D01*
X34364177Y-26970707D01*
X34356649Y-26904744D01*
X34341430Y-26867194D01*
X34321750Y-26849835D01*
X34238916Y-26825727D01*
X34143689Y-26830869D01*
X34067781Y-26861430D01*
X34010326Y-26929858D01*
X33978682Y-27025918D01*
X33973909Y-27132881D01*
X33997066Y-27234016D01*
X34039813Y-27303241D01*
X34110025Y-27344963D01*
X34199474Y-27354074D01*
X34287639Y-27329586D01*
X34309749Y-27316260D01*
X34338451Y-27290701D01*
X34355431Y-27255391D01*
X34363666Y-27197665D01*
X34366135Y-27104858D01*
X34366200Y-27076222D01*
X34505148Y-27076222D01*
X34505569Y-27111011D01*
X34505900Y-27247827D01*
X34506030Y-27419066D01*
X34506920Y-27546211D01*
X34509323Y-27635970D01*
X34513990Y-27695048D01*
X34521673Y-27730151D01*
X34533124Y-27747987D01*
X34549095Y-27755262D01*
X34563050Y-27757617D01*
X34611673Y-27772732D01*
X34613301Y-27793287D01*
X34570414Y-27813176D01*
X34537650Y-27820216D01*
X34465401Y-27835391D01*
X34410650Y-27851657D01*
X34390976Y-27855386D01*
X34378126Y-27842481D01*
X34378126Y-27842481D01*
G37*
X34378126Y-27842481D02*
X34370669Y-27804763D01*
X34367176Y-27734054D01*
X34366215Y-27622173D01*
X34366200Y-27597560D01*
X34366200Y-27325885D01*
X34288052Y-27391643D01*
X34189947Y-27448292D01*
X34092312Y-27460684D01*
X34001997Y-27434958D01*
X33925854Y-27377254D01*
X33870734Y-27293712D01*
X33843489Y-27190471D01*
X33850969Y-27073671D01*
X33868497Y-27015659D01*
X33930704Y-26910387D01*
X34022331Y-26826219D01*
X34131471Y-26768710D01*
X34246214Y-26743411D01*
X34354653Y-26755876D01*
X34391729Y-26771669D01*
X34440033Y-26783321D01*
X34455058Y-26771669D01*
X34471743Y-26751863D01*
X34484466Y-26756456D01*
X34493717Y-26790058D01*
X34499990Y-26857278D01*
X34503776Y-26962725D01*
X34505148Y-27076222D01*
X34366200Y-27076222D01*
X34364177Y-26970707D01*
X34356649Y-26904744D01*
X34341430Y-26867194D01*
X34321750Y-26849835D01*
X34238916Y-26825727D01*
X34143689Y-26830869D01*
X34067781Y-26861430D01*
X34010326Y-26929858D01*
X33978682Y-27025918D01*
X33973909Y-27132881D01*
X33997066Y-27234016D01*
X34039813Y-27303241D01*
X34110025Y-27344963D01*
X34199474Y-27354074D01*
X34287639Y-27329586D01*
X34309749Y-27316260D01*
X34338451Y-27290701D01*
X34355431Y-27255391D01*
X34363666Y-27197665D01*
X34366135Y-27104858D01*
X34366200Y-27076222D01*
X34505148Y-27076222D01*
X34505569Y-27111011D01*
X34505900Y-27247827D01*
X34506030Y-27419066D01*
X34506920Y-27546211D01*
X34509323Y-27635970D01*
X34513990Y-27695048D01*
X34521673Y-27730151D01*
X34533124Y-27747987D01*
X34549095Y-27755262D01*
X34563050Y-27757617D01*
X34611673Y-27772732D01*
X34613301Y-27793287D01*
X34570414Y-27813176D01*
X34537650Y-27820216D01*
X34465401Y-27835391D01*
X34410650Y-27851657D01*
X34390976Y-27855386D01*
X34378126Y-27842481D01*
G36*
X33539926Y-27842481D02*
X33532469Y-27804763D01*
X33528976Y-27734054D01*
X33528015Y-27622173D01*
X33528000Y-27597560D01*
X33528000Y-27325885D01*
X33449852Y-27391643D01*
X33357191Y-27442981D01*
X33253624Y-27459353D01*
X33156127Y-27440152D01*
X33099434Y-27404161D01*
X33025693Y-27304427D01*
X32995595Y-27190128D01*
X33007779Y-27070267D01*
X33060884Y-26953843D01*
X33153548Y-26849858D01*
X33187215Y-26823609D01*
X33248633Y-26782813D01*
X33302183Y-26760065D01*
X33366206Y-26750863D01*
X33459044Y-26750705D01*
X33481633Y-26751332D01*
X33667700Y-26756866D01*
X33667700Y-27064963D01*
X33528000Y-27064963D01*
X33524110Y-26952633D01*
X33507784Y-26881550D01*
X33472041Y-26842452D01*
X33409897Y-26826081D01*
X33345694Y-26823173D01*
X33266210Y-26834681D01*
X33208890Y-26878044D01*
X33200312Y-26888477D01*
X33153157Y-26977442D01*
X33132315Y-27080576D01*
X33137015Y-27183238D01*
X33166487Y-27270787D01*
X33219960Y-27328581D01*
X33223565Y-27330595D01*
X33309629Y-27354339D01*
X33400836Y-27346095D01*
X33473853Y-27308219D01*
X33477200Y-27305000D01*
X33504622Y-27268149D01*
X33520255Y-27217015D01*
X33527003Y-27137880D01*
X33528000Y-27064963D01*
X33667700Y-27064963D01*
X33667700Y-27253183D01*
X33667833Y-27423382D01*
X33668742Y-27549526D01*
X33671190Y-27638357D01*
X33675941Y-27696619D01*
X33683759Y-27731056D01*
X33695409Y-27748412D01*
X33711655Y-27755431D01*
X33724850Y-27757617D01*
X33773473Y-27772732D01*
X33775101Y-27793287D01*
X33732214Y-27813176D01*
X33699450Y-27820216D01*
X33627201Y-27835391D01*
X33572450Y-27851657D01*
X33552776Y-27855386D01*
X33539926Y-27842481D01*
X33539926Y-27842481D01*
G37*
X33539926Y-27842481D02*
X33532469Y-27804763D01*
X33528976Y-27734054D01*
X33528015Y-27622173D01*
X33528000Y-27597560D01*
X33528000Y-27325885D01*
X33449852Y-27391643D01*
X33357191Y-27442981D01*
X33253624Y-27459353D01*
X33156127Y-27440152D01*
X33099434Y-27404161D01*
X33025693Y-27304427D01*
X32995595Y-27190128D01*
X33007779Y-27070267D01*
X33060884Y-26953843D01*
X33153548Y-26849858D01*
X33187215Y-26823609D01*
X33248633Y-26782813D01*
X33302183Y-26760065D01*
X33366206Y-26750863D01*
X33459044Y-26750705D01*
X33481633Y-26751332D01*
X33667700Y-26756866D01*
X33667700Y-27064963D01*
X33528000Y-27064963D01*
X33524110Y-26952633D01*
X33507784Y-26881550D01*
X33472041Y-26842452D01*
X33409897Y-26826081D01*
X33345694Y-26823173D01*
X33266210Y-26834681D01*
X33208890Y-26878044D01*
X33200312Y-26888477D01*
X33153157Y-26977442D01*
X33132315Y-27080576D01*
X33137015Y-27183238D01*
X33166487Y-27270787D01*
X33219960Y-27328581D01*
X33223565Y-27330595D01*
X33309629Y-27354339D01*
X33400836Y-27346095D01*
X33473853Y-27308219D01*
X33477200Y-27305000D01*
X33504622Y-27268149D01*
X33520255Y-27217015D01*
X33527003Y-27137880D01*
X33528000Y-27064963D01*
X33667700Y-27064963D01*
X33667700Y-27253183D01*
X33667833Y-27423382D01*
X33668742Y-27549526D01*
X33671190Y-27638357D01*
X33675941Y-27696619D01*
X33683759Y-27731056D01*
X33695409Y-27748412D01*
X33711655Y-27755431D01*
X33724850Y-27757617D01*
X33773473Y-27772732D01*
X33775101Y-27793287D01*
X33732214Y-27813176D01*
X33699450Y-27820216D01*
X33627201Y-27835391D01*
X33572450Y-27851657D01*
X33552776Y-27855386D01*
X33539926Y-27842481D01*
G36*
X31463567Y-27437565D02*
X31416264Y-27408937D01*
X31389379Y-27383063D01*
X31371130Y-27350094D01*
X31359139Y-27299430D01*
X31351028Y-27220471D01*
X31344418Y-27102616D01*
X31343600Y-27085087D01*
X31337416Y-26963819D01*
X31330745Y-26884176D01*
X31321336Y-26837014D01*
X31306936Y-26813190D01*
X31285291Y-26803560D01*
X31273750Y-26801584D01*
X31223582Y-26787867D01*
X31217639Y-26770995D01*
X31249969Y-26755747D01*
X31314620Y-26746901D01*
X31342741Y-26746200D01*
X31468882Y-26746200D01*
X31476091Y-27016580D01*
X31479913Y-27137082D01*
X31485411Y-27217594D01*
X31495161Y-27268922D01*
X31511740Y-27301867D01*
X31537723Y-27327233D01*
X31552942Y-27338884D01*
X31601867Y-27371161D01*
X31640959Y-27376435D01*
X31694942Y-27356229D01*
X31711025Y-27348633D01*
X31764389Y-27316927D01*
X31798767Y-27275871D01*
X31817440Y-27215068D01*
X31823688Y-27124125D01*
X31821085Y-26999901D01*
X31815954Y-26902381D01*
X31807799Y-26844554D01*
X31792996Y-26815320D01*
X31767922Y-26803575D01*
X31756350Y-26801584D01*
X31711688Y-26786310D01*
X31699200Y-26769834D01*
X31722523Y-26758538D01*
X31784215Y-26750181D01*
X31871868Y-26746304D01*
X31889700Y-26746200D01*
X31985689Y-26749352D01*
X32052593Y-26757884D01*
X32080022Y-26770409D01*
X32080200Y-26771600D01*
X32058464Y-26790694D01*
X32016700Y-26797000D01*
X31953200Y-26797000D01*
X31953200Y-27355800D01*
X32016700Y-27355800D01*
X32069026Y-27362816D01*
X32076369Y-27380563D01*
X32042069Y-27404091D01*
X31969461Y-27428451D01*
X31967353Y-27428985D01*
X31887647Y-27448524D01*
X31845505Y-27453291D01*
X31828991Y-27439917D01*
X31826164Y-27405033D01*
X31826200Y-27389148D01*
X31826200Y-27320896D01*
X31754961Y-27389148D01*
X31666785Y-27442478D01*
X31563531Y-27458974D01*
X31463567Y-27437565D01*
X31463567Y-27437565D01*
G37*
X31463567Y-27437565D02*
X31416264Y-27408937D01*
X31389379Y-27383063D01*
X31371130Y-27350094D01*
X31359139Y-27299430D01*
X31351028Y-27220471D01*
X31344418Y-27102616D01*
X31343600Y-27085087D01*
X31337416Y-26963819D01*
X31330745Y-26884176D01*
X31321336Y-26837014D01*
X31306936Y-26813190D01*
X31285291Y-26803560D01*
X31273750Y-26801584D01*
X31223582Y-26787867D01*
X31217639Y-26770995D01*
X31249969Y-26755747D01*
X31314620Y-26746901D01*
X31342741Y-26746200D01*
X31468882Y-26746200D01*
X31476091Y-27016580D01*
X31479913Y-27137082D01*
X31485411Y-27217594D01*
X31495161Y-27268922D01*
X31511740Y-27301867D01*
X31537723Y-27327233D01*
X31552942Y-27338884D01*
X31601867Y-27371161D01*
X31640959Y-27376435D01*
X31694942Y-27356229D01*
X31711025Y-27348633D01*
X31764389Y-27316927D01*
X31798767Y-27275871D01*
X31817440Y-27215068D01*
X31823688Y-27124125D01*
X31821085Y-26999901D01*
X31815954Y-26902381D01*
X31807799Y-26844554D01*
X31792996Y-26815320D01*
X31767922Y-26803575D01*
X31756350Y-26801584D01*
X31711688Y-26786310D01*
X31699200Y-26769834D01*
X31722523Y-26758538D01*
X31784215Y-26750181D01*
X31871868Y-26746304D01*
X31889700Y-26746200D01*
X31985689Y-26749352D01*
X32052593Y-26757884D01*
X32080022Y-26770409D01*
X32080200Y-26771600D01*
X32058464Y-26790694D01*
X32016700Y-26797000D01*
X31953200Y-26797000D01*
X31953200Y-27355800D01*
X32016700Y-27355800D01*
X32069026Y-27362816D01*
X32076369Y-27380563D01*
X32042069Y-27404091D01*
X31969461Y-27428451D01*
X31967353Y-27428985D01*
X31887647Y-27448524D01*
X31845505Y-27453291D01*
X31828991Y-27439917D01*
X31826164Y-27405033D01*
X31826200Y-27389148D01*
X31826200Y-27320896D01*
X31754961Y-27389148D01*
X31666785Y-27442478D01*
X31563531Y-27458974D01*
X31463567Y-27437565D01*
G36*
X36225428Y-27176760D02*
X36155216Y-27173468D01*
X36120513Y-27168765D01*
X36118800Y-27167378D01*
X36126951Y-27123306D01*
X36157276Y-27095808D01*
X36218588Y-27081384D01*
X36319698Y-27076531D01*
X36347740Y-27076400D01*
X36446789Y-27077311D01*
X36504699Y-27081811D01*
X36531121Y-27092552D01*
X36535706Y-27112189D01*
X36532560Y-27127200D01*
X36520664Y-27152835D01*
X36494226Y-27168088D01*
X36442250Y-27175575D01*
X36353743Y-27177913D01*
X36319038Y-27178000D01*
X36225428Y-27176760D01*
X36225428Y-27176760D01*
G37*
X36225428Y-27176760D02*
X36155216Y-27173468D01*
X36120513Y-27168765D01*
X36118800Y-27167378D01*
X36126951Y-27123306D01*
X36157276Y-27095808D01*
X36218588Y-27081384D01*
X36319698Y-27076531D01*
X36347740Y-27076400D01*
X36446789Y-27077311D01*
X36504699Y-27081811D01*
X36531121Y-27092552D01*
X36535706Y-27112189D01*
X36532560Y-27127200D01*
X36520664Y-27152835D01*
X36494226Y-27168088D01*
X36442250Y-27175575D01*
X36353743Y-27177913D01*
X36319038Y-27178000D01*
X36225428Y-27176760D01*
G36*
X39282864Y-27773036D02*
X39247499Y-27726633D01*
X39253758Y-27688681D01*
X39273480Y-27665681D01*
X39324717Y-27639085D01*
X39381079Y-27639354D01*
X39403867Y-27652134D01*
X39421238Y-27700060D01*
X39404906Y-27754807D01*
X39371764Y-27786656D01*
X39320606Y-27797739D01*
X39282864Y-27773036D01*
X39282864Y-27773036D01*
G37*
X39282864Y-27773036D02*
X39247499Y-27726633D01*
X39253758Y-27688681D01*
X39273480Y-27665681D01*
X39324717Y-27639085D01*
X39381079Y-27639354D01*
X39403867Y-27652134D01*
X39421238Y-27700060D01*
X39404906Y-27754807D01*
X39371764Y-27786656D01*
X39320606Y-27797739D01*
X39282864Y-27773036D01*
G36*
X38340260Y-27778604D02*
X38317426Y-27744317D01*
X38318929Y-27692562D01*
X38331272Y-27670081D01*
X38382609Y-27638008D01*
X38435392Y-27646148D01*
X38469702Y-27690415D01*
X38468728Y-27747639D01*
X38435686Y-27785356D01*
X38387292Y-27797650D01*
X38340260Y-27778604D01*
X38340260Y-27778604D01*
G37*
X38340260Y-27778604D02*
X38317426Y-27744317D01*
X38318929Y-27692562D01*
X38331272Y-27670081D01*
X38382609Y-27638008D01*
X38435392Y-27646148D01*
X38469702Y-27690415D01*
X38468728Y-27747639D01*
X38435686Y-27785356D01*
X38387292Y-27797650D01*
X38340260Y-27778604D01*
G36*
X34779718Y-27775990D02*
X34754930Y-27731521D01*
X34758499Y-27690415D01*
X34793720Y-27645628D01*
X34846660Y-27638237D01*
X34896929Y-27670081D01*
X34914429Y-27720211D01*
X34910775Y-27744317D01*
X34874355Y-27788305D01*
X34825098Y-27796890D01*
X34779718Y-27775990D01*
X34779718Y-27775990D01*
G37*
X34779718Y-27775990D02*
X34754930Y-27731521D01*
X34758499Y-27690415D01*
X34793720Y-27645628D01*
X34846660Y-27638237D01*
X34896929Y-27670081D01*
X34914429Y-27720211D01*
X34910775Y-27744317D01*
X34874355Y-27788305D01*
X34825098Y-27796890D01*
X34779718Y-27775990D01*
D12*
X36552143Y-31916666D02*
X36599762Y-31964285D01*
X36647381Y-32107142D01*
X36647381Y-32202380D01*
X36599762Y-32345238D01*
X36504524Y-32440476D01*
X36409286Y-32488095D01*
X36218810Y-32535714D01*
X36075952Y-32535714D01*
X35885476Y-32488095D01*
X35790238Y-32440476D01*
X35695000Y-32345238D01*
X35647381Y-32202380D01*
X35647381Y-32107142D01*
X35695000Y-31964285D01*
X35742619Y-31916666D01*
X35742619Y-31535714D02*
X35695000Y-31488095D01*
X35647381Y-31392857D01*
X35647381Y-31154761D01*
X35695000Y-31059523D01*
X35742619Y-31011904D01*
X35837857Y-30964285D01*
X35933095Y-30964285D01*
X36075952Y-31011904D01*
X36647381Y-31583333D01*
X36647381Y-30964285D01*
X56237143Y-34456666D02*
X56284762Y-34504285D01*
X56332381Y-34647142D01*
X56332381Y-34742380D01*
X56284762Y-34885238D01*
X56189524Y-34980476D01*
X56094286Y-35028095D01*
X55903810Y-35075714D01*
X55760952Y-35075714D01*
X55570476Y-35028095D01*
X55475238Y-34980476D01*
X55380000Y-34885238D01*
X55332381Y-34742380D01*
X55332381Y-34647142D01*
X55380000Y-34504285D01*
X55427619Y-34456666D01*
X56332381Y-33504285D02*
X56332381Y-34075714D01*
X56332381Y-33790000D02*
X55332381Y-33790000D01*
X55475238Y-33885238D01*
X55570476Y-33980476D01*
X55618095Y-34075714D01*
X28932143Y-31916666D02*
X28979762Y-31964285D01*
X29027381Y-32107142D01*
X29027381Y-32202380D01*
X28979762Y-32345238D01*
X28884524Y-32440476D01*
X28789286Y-32488095D01*
X28598810Y-32535714D01*
X28455952Y-32535714D01*
X28265476Y-32488095D01*
X28170238Y-32440476D01*
X28075000Y-32345238D01*
X28027381Y-32202380D01*
X28027381Y-32107142D01*
X28075000Y-31964285D01*
X28122619Y-31916666D01*
X28027381Y-31583333D02*
X28027381Y-30964285D01*
X28408333Y-31297619D01*
X28408333Y-31154761D01*
X28455952Y-31059523D01*
X28503571Y-31011904D01*
X28598810Y-30964285D01*
X28836905Y-30964285D01*
X28932143Y-31011904D01*
X28979762Y-31059523D01*
X29027381Y-31154761D01*
X29027381Y-31440476D01*
X28979762Y-31535714D01*
X28932143Y-31583333D01*
X44267381Y-32758095D02*
X43267381Y-32758095D01*
X43267381Y-32520000D01*
X43315000Y-32377142D01*
X43410238Y-32281904D01*
X43505476Y-32234285D01*
X43695952Y-32186666D01*
X43838810Y-32186666D01*
X44029286Y-32234285D01*
X44124524Y-32281904D01*
X44219762Y-32377142D01*
X44267381Y-32520000D01*
X44267381Y-32758095D01*
X44267381Y-31234285D02*
X44267381Y-31805714D01*
X44267381Y-31520000D02*
X43267381Y-31520000D01*
X43410238Y-31615238D01*
X43505476Y-31710476D01*
X43553095Y-31805714D01*
X63396905Y-32837381D02*
X63396905Y-31837381D01*
X63635000Y-31837381D01*
X63777858Y-31885000D01*
X63873096Y-31980238D01*
X63920715Y-32075476D01*
X63968334Y-32265952D01*
X63968334Y-32408810D01*
X63920715Y-32599286D01*
X63873096Y-32694524D01*
X63777858Y-32789762D01*
X63635000Y-32837381D01*
X63396905Y-32837381D01*
X64349286Y-31932619D02*
X64396905Y-31885000D01*
X64492143Y-31837381D01*
X64730239Y-31837381D01*
X64825477Y-31885000D01*
X64873096Y-31932619D01*
X64920715Y-32027857D01*
X64920715Y-32123095D01*
X64873096Y-32265952D01*
X64301667Y-32837381D01*
X64920715Y-32837381D01*
X39187381Y-36996666D02*
X38711190Y-37330000D01*
X39187381Y-37568095D02*
X38187381Y-37568095D01*
X38187381Y-37187142D01*
X38235000Y-37091904D01*
X38282619Y-37044285D01*
X38377857Y-36996666D01*
X38520714Y-36996666D01*
X38615952Y-37044285D01*
X38663571Y-37091904D01*
X38711190Y-37187142D01*
X38711190Y-37568095D01*
X39187381Y-36044285D02*
X39187381Y-36615714D01*
X39187381Y-36330000D02*
X38187381Y-36330000D01*
X38330238Y-36425238D01*
X38425476Y-36520476D01*
X38473095Y-36615714D01*
X31567381Y-36996666D02*
X31091190Y-37330000D01*
X31567381Y-37568095D02*
X30567381Y-37568095D01*
X30567381Y-37187142D01*
X30615000Y-37091904D01*
X30662619Y-37044285D01*
X30757857Y-36996666D01*
X30900714Y-36996666D01*
X30995952Y-37044285D01*
X31043571Y-37091904D01*
X31091190Y-37187142D01*
X31091190Y-37568095D01*
X30662619Y-36615714D02*
X30615000Y-36568095D01*
X30567381Y-36472857D01*
X30567381Y-36234761D01*
X30615000Y-36139523D01*
X30662619Y-36091904D01*
X30757857Y-36044285D01*
X30853095Y-36044285D01*
X30995952Y-36091904D01*
X31567381Y-36663333D01*
X31567381Y-36044285D01*
X63317381Y-30646666D02*
X62841190Y-30980000D01*
X63317381Y-31218095D02*
X62317381Y-31218095D01*
X62317381Y-30837142D01*
X62365000Y-30741904D01*
X62412619Y-30694285D01*
X62507857Y-30646666D01*
X62650714Y-30646666D01*
X62745952Y-30694285D01*
X62793571Y-30741904D01*
X62841190Y-30837142D01*
X62841190Y-31218095D01*
X62317381Y-30313333D02*
X62317381Y-29694285D01*
X62698333Y-30027619D01*
X62698333Y-29884761D01*
X62745952Y-29789523D01*
X62793571Y-29741904D01*
X62888810Y-29694285D01*
X63126905Y-29694285D01*
X63222143Y-29741904D01*
X63269762Y-29789523D01*
X63317381Y-29884761D01*
X63317381Y-30170476D01*
X63269762Y-30265714D01*
X63222143Y-30313333D01*
X63317381Y-28741666D02*
X62841190Y-29075000D01*
X63317381Y-29313095D02*
X62317381Y-29313095D01*
X62317381Y-28932142D01*
X62365000Y-28836904D01*
X62412619Y-28789285D01*
X62507857Y-28741666D01*
X62650714Y-28741666D01*
X62745952Y-28789285D01*
X62793571Y-28836904D01*
X62841190Y-28932142D01*
X62841190Y-29313095D01*
X62650714Y-27884523D02*
X63317381Y-27884523D01*
X62269762Y-28122619D02*
X62984048Y-28360714D01*
X62984048Y-27741666D01*
X57658095Y-26757381D02*
X57658095Y-27566905D01*
X57705714Y-27662143D01*
X57753333Y-27709762D01*
X57848571Y-27757381D01*
X58039048Y-27757381D01*
X58134286Y-27709762D01*
X58181905Y-27662143D01*
X58229524Y-27566905D01*
X58229524Y-26757381D01*
X59229524Y-27757381D02*
X58658095Y-27757381D01*
X58943809Y-27757381D02*
X58943809Y-26757381D01*
X58848571Y-26900238D01*
X58753333Y-26995476D01*
X58658095Y-27043095D01*
M02*
